<?xml version="1.0" encoding="UTF-8"?><svg xmlns="http://www.w3.org/2000/svg" viewBox="0 0 1000 166.67"><defs><style>.d{fill:#fff;}.e{fill:#e5971a;}.f{fill:#cc7900;}.g{fill:#c47258;}.h{fill:none;}.i{fill:#fff200;}.j{fill:#d1d3d4;}.k{fill:#f1e2e7;}.l{fill:#343031;}.m{fill:#231f20;}</style></defs><g id="a"/><g id="b"><g id="c"><g><rect class="h" width="1000" height="166.67"/><g><g><path class="f" d="M571.46,103.33c1.1-.3,2.1-.81,2.89-1.58,4.08-3.98-2.12-7.35-5.81-8.2-3.2-.73-11.14-2.41-17.02-1.1-5.35,1.19-10.09,2.76-15.71,.77-5.29-1.88-8.99-10.01-14.68-10.16-7.74-.2-2.8,7.45,.64,9.87,15.29,10.74,21.72,7.16,26.61,6.8,8.84-.65,13.74,2.55,16.57,3.4,1.92,.58,4.39,.78,6.51,.19Z"/><g><path class="j" d="M573.62,144.91c4.18,2.09,8.99,2.93,13.63,2.33-.14,.25-.29,.49-.43,.75-1.19,2.15-2.43,4.37-4.42,5.81-1.78,1.29-4.35,1.77-6.22,.72-.21-.12-.42-.26-.61-.42-2.45-2.02-2.11-6.11-1.97-8.97,0-.07,.01-.14,.02-.22Z"/><path class="f" d="M573.62,144.91c.19-3.26,.81-6.52,1.49-9.71,.43-2,.88-3.97,1.26-5.89,1.22-6.22-.75-14.24,2.37-19.85,6-10.78,28.26-25.05,36.61-5.92,3.29,7.54-3.87,17.88-7.65,23.39-4.14,6.04-12.36,8.02-16.4,13.93-1.44,2.11-2.78,4.15-4.05,6.37-4.64,.6-9.45-.23-13.63-2.33Z"/></g><g><path class="e" d="M644.93,123.62c.62-.19,1.22-.4,1.8-.63,11.25-4.58,9.9-23.05,3.07-30.9-10.48-12.05-23.63-12.48-38.49-12.38-9.15,.06-16.66,2.52-25.3,5.31-13.14,4.23-23.97,12.56-24,27.77-.02,11.72,11.07,21.93,21.97,19.34,11.08-2.64,22.27-4.89,33.56-6.39,8.25-1.1,19.29,.36,27.4-2.11Z"/><path class="f" d="M580.33,122.07c5.8-1.26,11.41-3.27,17.42-3.57,6.2-.31,12.15,.8,18.21,.73,6.7-.09,13.71-1.47,20.25-2.43,5.13-.76,9.11-1.12,13.59-3.82,1.68-1.02,3.45-1.99,5.18-3-.48,5.7-2.98,10.88-8.24,13.01-.58,.24-1.18,.45-1.8,.63-8.11,2.47-19.15,1.01-27.4,2.11-11.29,1.51-22.47,3.76-33.56,6.39-7.68,1.83-15.46-2.72-19.38-9.66,5.22,.75,10.49,.74,15.73-.4Z"/><g><path class="f" d="M612.25,79.7c1.64,0,3.25,0,4.85,.02-1.47,4.55-2.68,10.09-4.59,14.03-.64-3.77-.64-9.03-.25-14.05Z"/><path class="f" d="M598.63,81.3c1.53-.36,3.07-.67,4.63-.92-.71,4.61-1.11,9.97-2.36,14-1.13-3.44-1.89-8.3-2.27-13.08Z"/></g></g><path class="f" d="M627.93,80.5c8.75,1.92,16.45,5.62,22.49,14.17,1.64,2.32,3.23,5.31,4.24,8.54,.55,3.23,.55,6.59-.12,9.65-2.12-.53-4.71-1.43-6.57-2.08-7.12-2.49-17.03-8.23-22.12-13.87-4.64-5.14-7.49-11.45-9.09-17.2,3.86,.05,7.59,.25,11.17,.79Z"/><g><path class="f" d="M640.92,116.55c.29-4.9,3.37-9.23,7.65-11.49,4.01-2.12,10.68-.27,14.67,1.38,4.34,1.79,8.23,4.92,10.36,9.11,.89,1.76,1.46,3.66,2,5.56,.81,2.9,1.55,5.86,1.59,8.86-.29,.13-.58,.25-.87,.37-4.41,1.71-9.24,2.3-13.95,1.78-.63-1.88-1.43-3.65-2.93-4.88-2.19-1.78-5.24-1.89-8.06-1.96-3.19-.08-6.76-.41-8.82-2.84-1.35-1.59-1.76-3.8-1.63-5.89Z"/><path class="j" d="M676.31,130.34c.29-.11,.58-.24,.87-.37,0,.32,0,.63,0,.95-.13,3.33-1.34,6.74-3.88,8.89-1.11,.94-2.51,1.62-3.97,1.56-3.03-.12-5.01-3.22-5.96-6.1-.34-1.03-.65-2.11-1-3.16,4.7,.52,9.53-.07,13.95-1.78Z"/></g><g><g><path class="f" d="M661.55,30.05c-1.18,6.85-2.2,13.24-2.28,14.36-.17,2.34-.37,2.32,.77,4.44,1.5,2.79,30.87,8.68,36.11,3.68-3.06-8.57-10.8-21.61-16.06-27.53-3.77-4.24-9.64-11.14-14.85-13.42-.35-.15-2.16,9.55-3.7,18.47Z"/><path class="e" d="M632.43,40.13c15.07-7.46,37.64-6.64,49.68-.66,6.23,3.09,13.12,9.04,16.35,15.46,3.01,5.99,2.76,12.86,3.95,19.51,1.28,7.15,1.66,14.91-.77,21.81-3.13,8.91-15.73,13.47-23.7,14.79-9.47,1.57-17.18,.15-26.63-1.87-6.3-1.35-14.92-5.75-19.86-10.13-10.2-9.05-12.24-21.26-13.82-32.14-1.92-13.19,4.78-21.81,14.79-26.77Z"/><path class="d" d="M674.45,101.02c7.03,4.44,20.78,3.16,25.3-4.47,1.81-3.06,2.33-6.86,1.4-10.29-.48-1.77-1.35-3.47-2.68-4.73-2.35-2.23-5.8-2.83-9.03-3.03-3.74-.23-7.57-.06-11.09,1.2-3.52,1.27-6.73,3.74-8.25,7.15-2.2,4.92-.21,11.29,4.35,14.17Z"/><path class="e" d="M610.81,45.8c3.35,6.37,6.53,12.26,7.16,13.24,1.33,2.02,1.16,2.14,3.37,3.14,2.92,1.32,25.74-17.46,26.73-24.93-7.19-3.11-18.02-6.06-25.84-7.53-5.61-1.05-14.52-2.92-20.04-1.45-.37,.1,4.26,9.22,8.62,17.52Z"/><g><path class="d" d="M642.33,87.05c9.59-2.05,20.5-2.52,29.04,1.74,.42,.21,.02,.82-.4,.61-8.36-4.17-19.09-3.7-28.47-1.69-.48,.1-.65-.56-.17-.66Z"/><path class="d" d="M643.42,99.5c9.29-3.38,18.83-5.42,28.64-5.33,.48,0,.45,.7-.03,.69-9.74-.09-19.2,1.94-28.43,5.3-.46,.17-.63-.5-.17-.66Z"/><path class="d" d="M647.93,107.28c7.43-4.34,15.65-7.04,23.95-9.28,.47-.13,.64,.53,.17,.66-8.24,2.23-16.39,4.9-23.76,9.21-.42,.25-.78-.34-.36-.59Z"/></g><g><path class="i" d="M670.25,68.85c.84,5.59-1.4,10.58-4.99,11.16-3.59,.58-7.18-3.48-8.01-9.06-.84-5.59,1.39-10.58,4.98-11.16,3.59-.58,7.18,3.48,8.02,9.06Z"/><path class="m" d="M660.31,71.07c.6,3.99,3.04,6.9,5.46,6.51,2.42-.39,3.9-3.94,3.3-7.93-.6-3.99-3.04-6.9-5.46-6.51-2.42,.39-3.89,3.94-3.29,7.93Z"/></g><g><path class="i" d="M698.96,67.22c.65,4.67-.59,8.77-2.77,9.15-2.18,.38-4.47-3.1-5.13-7.78-.65-4.67,.59-8.77,2.77-9.15,2.18-.38,4.48,3.11,5.13,7.78Z"/><path class="m" d="M692.18,68.89c.45,3.33,2.25,5.79,4.02,5.48,1.77-.3,2.82-3.25,2.37-6.58-.46-3.33-2.25-5.78-4.02-5.48-1.77,.3-2.82,3.25-2.37,6.58Z"/></g><path class="l" d="M677.1,91.76c.18,.49,.32,1.03,.38,1.19,.38,1,.9,1.99,1.75,2.64,1.66,1.28,4.37,1.58,6.3,.71,2.3-1.04,3.19-2.95,3.39-5.41,.1-1.22,.39-2.67,.16-3.87-.05-.27-.24-.61-.24-.88,0-.34,.65-.94,1-.85,.72,.2,.65,1.26,.62,1.85-.05,.91,0,1.73,.05,2.64,.11,1.67,.17,3.79,1.44,5.04,.93,.91,2.31,1.07,3.21,.04,.46-.53,.59-1.17,.69-1.85,.02-.19,.15-1.5,.56-1.43,.7,.12,.23,1.61,.14,2.03-.37,1.74-1.82,3.91-3.81,3.15-.82-.31-1.47-1.02-1.96-1.74-.45-.67-1.1-1.44-1.03-2.31-.51,2.16-1.79,3.69-3.79,4.59-.89,.4-1.88,.59-2.89,.59-2.38,0-4.42-1-5.79-2.97-.38-.54-2.16-3.79-.9-4.08,.27-.06,.52,.4,.71,.91Z"/><path class="g" d="M687.1,82.68c7.59-2.77,12.05,5.03,3.49,6.35-4.97,.76-10.17-3.9-3.49-6.35Z"/><path class="k" d="M638.5,42.87s-15.87-8.13-29.59-9.08l13.1,23.23,16.49-14.15Z"/><path class="d" d="M694.92,67.29c.62,1.2,1.77,1.82,2.56,1.37,.79-.45,.93-1.78,.31-2.99-.62-1.2-1.77-1.82-2.56-1.37-.79,.45-.93,1.78-.31,2.99Z"/><path class="d" d="M663.66,68.5c.82,1.59,2.29,2.44,3.27,1.89,.98-.55,1.11-2.29,.29-3.89-.83-1.59-2.29-2.44-3.27-1.89-.98,.55-1.11,2.29-.28,3.89Z"/></g><g><path class="d" d="M728.54,79.01c-9.89-1.3-20.88-.76-28.84,4.6-.39,.26,.1,.88,.49,.62,7.79-5.25,18.6-5.76,28.28-4.49,.49,.06,.57-.66,.07-.72Z"/><path class="d" d="M729.18,92.45c-9.78-2.75-19.61-4.03-29.42-3-.48,.05-.36,.79,.13,.74,9.74-1.02,19.5,.26,29.21,2.99,.48,.14,.56-.59,.08-.73Z"/><path class="d" d="M725.75,101.2c-8.04-3.95-16.65-6.06-25.28-7.68-.49-.09-.57,.63-.08,.72,8.56,1.61,17.1,3.7,25.08,7.62,.46,.22,.73-.44,.28-.66Z"/></g><g><path class="f" d="M658.02,34.77c3.96-.01,7.86,.3,11.5,.9,2.19,4.16,3.87,8.96,4.93,14.49-4.33-5.96-11.22-11.56-16.43-15.39Z"/><path class="f" d="M644.12,36.2c3.47-.73,7.06-1.18,10.65-1.35,2.94,4.39,5.27,9.63,6.86,15.87-4.73-5.76-12.05-11.01-17.51-14.52Z"/><path class="f" d="M673.2,36.4c3.33,.77,6.36,1.81,8.91,3.07,.42,.21,.84,.43,1.27,.67,.98,2.96,1.74,6.17,2.25,9.66-3.21-4.88-8.05-9.62-12.43-13.4Z"/></g></g><g><path class="d" d="M657.69,144.32c-1.05,2.9-2.93,5.43-5.64,6.85-2.1,1.1-4.69,1.43-6.87,.48-2.17-.95-3.76-3.33-3.4-5.68,.26-1.72,1.45-3.17,1.89-4.86,1.77,1.21,3.7,2.18,5.75,2.8,2.67,.8,5.55,.97,8.27,.41Z"/><path class="e" d="M618.98,108.99c3.9-7.13,15.23-3.35,20.72-.51,2.16,1.11,4.16,2.5,6.07,4,1.37,1.08,2.7,2.23,4.01,3.39,5.53,4.9,8.77,14.96,8.93,22.22,.05,2.09-.3,4.25-1.02,6.23-2.72,.56-5.6,.39-8.27-.41-2.05-.61-3.98-1.59-5.75-2.8,0-.04,.02-.07,.03-.11,.83-3.48-1.8-6.76-4.3-9.32-4.53-4.63-9.35-9.34-14.86-12.8-4.02-2.53-8.85-3.87-5.56-9.89Z"/></g><g><path class="e" d="M554.45,143.51c-1.73-.78-3.34-1.78-4.87-2.9,1.01-4.19,2.88-8.36,4.2-11.75,1.56-3.67,3.75-6.94,4.89-10.75,1.35-4.53,2.8-9.08,5.18-13.14,2.14-3.66,5.16-6.93,8.92-8.81,3.26-1.63,7.13-1.58,10.73-1.61,7.54-.06,12.84,4.82,14.43,12.38,1.69,8.05-7.07,16.53-11.69,21.05-5.07,4.97-13.23,5.08-18.19,9.94-2.25,2.21-3.78,4.65-5.15,7.29-2.87,.14-5.8-.5-8.44-1.69Z"/><path class="d" d="M554.45,143.51c2.64,1.19,5.57,1.84,8.44,1.69-.66,1.28-1.29,2.6-1.93,3.96-.53,1.12-1.07,2.26-1.91,3.18-1.27,1.38-3.21,2.13-5.07,1.88-1.86-.25-3.56-1.52-4.25-3.26-.26-.65-.46-1.32-.6-2.01-.54-2.64-.24-5.5,.45-8.34,1.53,1.12,3.14,2.12,4.87,2.9Z"/></g><g><path class="f" d="M643.84,139.34c-.06-1.15-.45-2.26-1.03-3.33,2.34-.65,4.66-1.82,6.59-3.2-.48,2.83-3.09,5.07-5.56,6.53Z"/><path class="f" d="M645.69,125.77c-2.58,1.46-5.3,2.74-7.55,4.63-.98-.99-1.97-1.97-2.98-2.93,2.83-1.17,7.13-3.07,10.53-1.69Z"/><path class="f" d="M637.56,118.64c-2.8,.54-5.87,1.78-8.24,3.67-1.14-.91-2.31-1.77-3.51-2.58,.54-.4,1.11-.75,1.7-1,2.83-1.18,7.38-2.29,10.05-.08Z"/></g><path class="f" d="M578.61,102c-1.95-2.64-3.97-6.52-5.7-10.54,1.2-.88,2.46-1.7,3.79-2.45,.76,4.33,1.85,9.08,1.91,12.99Z"/><path class="f" d="M585.57,85.16c.15-.05,.29-.1,.44-.15,1.3-.42,2.58-.83,3.84-1.23,.22,4.44,.75,9.38,.32,13.32-1.71-3.05-3.33-7.47-4.6-11.95Z"/><g><path class="f" d="M560.63,112.89c-.09-.03-.18-.08-.27-.11,.45-1.29,.94-2.57,1.48-3.82,2.55,1.85,5.85,2.95,8.81,3.3-2.5,2.38-7.12,1.6-10.03,.63Z"/><path class="f" d="M555.69,124.89c.65-1.27,1.3-2.54,1.88-3.84,2.6,1.77,5.78,2.85,8.66,3.23-2.6,2.58-7.46,1.7-10.54,.62Z"/><path class="f" d="M550.94,137.53c-.15-.04-.3-.08-.44-.13,.44-1.32,.92-2.62,1.41-3.87,2.68,1.6,6.01,2.42,8.97,2.52-2.29,2.59-6.96,2.2-9.94,1.48Z"/></g></g><g><g><path class="j" d="M323.34,143.76c-1.89,2.94-3.48,6.35-7.52,6.61-4.57,.29-5.67-3.03-5.45-6.77,.07-1.18,.27-2.31,.58-3.41,1.68,1.39,3.64,2.45,5.74,3.07,2.15,.63,4.43,.8,6.66,.5Z"/><path class="f" d="M318.08,128.4c1.1-1.33,2.21-2.63,3.24-3.91,3.34-4.17,4.76-10.76,9.41-13.83,8.92-5.89,32.33-8.76,31.87,8.23-.18,6.69-9.88,11.86-15.02,14.62-7.65,4.12-16.23,.94-22.71,8.17-.25,.27-.48,.57-.7,.87-.29,.39-.56,.79-.83,1.21-2.22,.29-4.5,.13-6.66-.5-2.1-.62-4.06-1.68-5.74-3.07,.49-1.75,1.24-3.4,2.17-4.98,1.4-2.4,3.17-4.64,4.97-6.8Z"/></g><g><path class="j" d="M432.03,125.75c6.67,5.61,9.92,11.51,.08,13.95-2.82,.7-7.02-.44-11.37-2.26,.13-1.8,.59-3.56,1.44-5.16,1.92-3.63,5.81-6.15,9.85-6.52Z"/><path class="f" d="M396.45,108.49c5.35-1.09,10.57,3.4,15.19,5.05,3.93,1.41,13.82,6.67,20.39,12.21-4.04,.37-7.93,2.89-9.85,6.52-.85,1.6-1.31,3.37-1.44,5.16-8.57-3.6-17.75-9.88-18.25-10.19-3.11-1.92-7.04-2.6-9.27-5.69-3.11-4.3-3.47-11.71,3.23-13.06Z"/></g><path class="f" d="M325.73,101.66c1.07-.38,2.03-.97,2.76-1.8,3.76-4.29-2.68-7.17-6.43-7.72-3.25-.48-11.29-1.54-17.05,.22-5.25,1.6-9.85,3.53-15.6,1.98-5.42-1.46-9.74-9.28-15.43-8.99-7.73,.4-2.21,7.65,1.41,9.79,16.07,9.53,22.21,5.45,27.05,4.72,8.76-1.33,13.89,1.47,16.78,2.11,1.96,.43,4.43,.43,6.51-.31Z"/><path class="e" d="M389.85,130.21c.63-.12,1.25-.27,1.85-.45,11.65-3.42,12.16-21.94,6.16-30.44-9.21-13.04-22.26-14.8-37.05-16.19-9.11-.86-16.83,.84-25.71,2.74-13.5,2.89-25.11,10.08-26.67,25.22-1.2,11.65,8.81,22.94,19.92,21.45,11.29-1.51,22.64-2.62,34.03-2.99,8.31-.27,19.16,2.29,27.47,.66Z"/><path class="f" d="M325.73,122.17c5.9-.67,11.69-2.11,17.69-1.8,6.2,.32,12,2.02,18.04,2.55,6.68,.59,13.79-.08,20.39-.38,5.18-.24,9.18-.2,13.91-2.44,1.78-.84,3.63-1.63,5.45-2.47-1.05,5.63-4.06,10.52-9.51,12.12-.6,.18-1.22,.33-1.85,.45-8.31,1.64-19.16-.92-27.47-.66-11.39,.36-22.74,1.48-34.03,2.99-7.83,1.05-15.11-4.26-18.31-11.56,5.12,1.27,10.36,1.79,15.69,1.19Z"/><path class="f" d="M397.87,99.32c2.5,3.55,3.87,8.84,3.77,14.05-2.28-.4-4.61-.88-7.07-1.4-6.05-1.3-14.33-5.52-19.07-9.73-6.1-5.41-9.16-12.01-10.97-18.73,13.26,1.4,24.91,3.88,33.35,15.82Z"/><g><g><path class="f" d="M408.5,29.13c-1.18,6.85-2.2,13.24-2.28,14.36-.17,2.34-.37,2.32,.77,4.44,1.5,2.79,30.87,8.68,36.11,3.68-3.06-8.57-10.8-21.61-16.06-27.53-3.77-4.24-9.64-11.14-14.85-13.42-.35-.15-2.16,9.55-3.7,18.47Z"/><path class="e" d="M379.38,39.21c15.07-7.46,37.64-6.64,49.68-.66,6.23,3.09,13.12,9.04,16.35,15.46,3.01,5.99,2.76,12.86,3.95,19.51,1.28,7.15,1.66,14.91-.77,21.81-3.13,8.91-15.73,13.47-23.7,14.79-9.47,1.57-17.18,.15-26.63-1.87-6.3-1.35-14.92-5.75-19.86-10.13-10.2-9.05-12.24-21.26-13.82-32.14-1.92-13.19,4.78-21.81,14.79-26.77Z"/><path class="d" d="M421.4,100.1c7.03,4.44,20.78,3.16,25.3-4.47,1.81-3.06,2.33-6.86,1.4-10.29-.48-1.77-1.35-3.47-2.68-4.73-2.35-2.23-5.8-2.83-9.03-3.03-3.74-.23-7.57-.06-11.09,1.2-3.52,1.27-6.73,3.74-8.25,7.15-2.2,4.92-.21,11.29,4.35,14.17Z"/><path class="e" d="M357.75,44.87c3.35,6.37,6.53,12.26,7.16,13.24,1.33,2.02,1.16,2.14,3.37,3.14,2.92,1.32,25.74-17.46,26.73-24.93-7.19-3.11-18.02-6.06-25.84-7.53-5.61-1.05-14.52-2.92-20.04-1.45-.37,.1,4.26,9.22,8.62,17.52Z"/><g><path class="d" d="M389.28,86.12c9.59-2.05,20.5-2.52,29.04,1.74,.42,.21,.02,.82-.4,.61-8.36-4.17-19.09-3.7-28.47-1.69-.48,.1-.65-.56-.17-.66Z"/><path class="d" d="M390.37,98.58c9.29-3.38,18.83-5.42,28.64-5.33,.48,0,.45,.7-.03,.69-9.74-.09-19.2,1.94-28.43,5.3-.46,.17-.63-.5-.17-.66Z"/><path class="d" d="M394.88,106.35c7.43-4.34,15.65-7.04,23.95-9.28,.47-.13,.64,.53,.17,.66-8.24,2.23-16.39,4.9-23.76,9.21-.42,.25-.78-.34-.36-.59Z"/></g><g><path class="i" d="M417.2,67.93c.84,5.59-1.4,10.58-4.99,11.16-3.59,.58-7.18-3.48-8.01-9.06-.84-5.59,1.39-10.58,4.98-11.16,3.59-.58,7.18,3.48,8.02,9.06Z"/><path class="m" d="M407.26,70.14c.6,3.99,3.04,6.9,5.46,6.51,2.42-.39,3.9-3.94,3.3-7.93-.6-3.99-3.04-6.9-5.46-6.51-2.42,.39-3.89,3.94-3.29,7.93Z"/></g><g><path class="i" d="M445.91,66.3c.65,4.67-.59,8.77-2.77,9.15-2.18,.38-4.47-3.1-5.13-7.78-.65-4.67,.59-8.77,2.77-9.15,2.18-.38,4.48,3.11,5.13,7.78Z"/><path class="m" d="M439.13,67.96c.45,3.33,2.25,5.79,4.02,5.48,1.77-.3,2.82-3.25,2.37-6.58-.46-3.33-2.25-5.78-4.02-5.48-1.77,.3-2.82,3.25-2.37,6.58Z"/></g><path class="l" d="M424.05,90.83c.18,.49,.32,1.03,.38,1.19,.38,1,.9,1.99,1.75,2.64,1.66,1.28,4.37,1.58,6.3,.71,2.3-1.04,3.19-2.95,3.39-5.41,.1-1.22,.39-2.67,.16-3.87-.05-.27-.24-.61-.24-.88,0-.34,.65-.94,1-.85,.72,.2,.65,1.26,.62,1.85-.05,.91,0,1.73,.05,2.64,.11,1.67,.17,3.79,1.44,5.04,.93,.91,2.31,1.07,3.21,.04,.46-.53,.59-1.17,.69-1.85,.02-.19,.15-1.5,.56-1.43,.7,.12,.23,1.61,.14,2.03-.37,1.74-1.82,3.91-3.81,3.15-.82-.31-1.47-1.02-1.96-1.74-.45-.67-1.1-1.44-1.03-2.31-.51,2.16-1.79,3.69-3.79,4.59-.89,.4-1.88,.59-2.89,.59-2.38,0-4.42-1-5.79-2.97-.38-.54-2.16-3.79-.9-4.08,.27-.06,.52,.4,.71,.91Z"/><path class="g" d="M434.05,81.76c7.59-2.77,12.05,5.03,3.49,6.35-4.97,.76-10.17-3.9-3.49-6.35Z"/><path class="k" d="M385.45,41.95s-15.87-8.13-29.59-9.08l13.1,23.23,16.49-14.15Z"/><path class="d" d="M441.86,66.37c.62,1.2,1.77,1.82,2.56,1.37,.79-.45,.93-1.78,.31-2.99-.62-1.2-1.77-1.82-2.56-1.37-.79,.45-.93,1.78-.31,2.99Z"/><path class="d" d="M410.61,67.58c.82,1.59,2.29,2.44,3.27,1.89,.98-.55,1.11-2.29,.29-3.89-.83-1.59-2.29-2.44-3.27-1.89-.98,.55-1.11,2.29-.28,3.89Z"/></g><g><path class="d" d="M475.49,78.08c-9.89-1.3-20.88-.76-28.84,4.6-.39,.26,.1,.88,.49,.62,7.79-5.25,18.6-5.76,28.28-4.49,.49,.06,.57-.66,.07-.72Z"/><path class="d" d="M476.13,91.53c-9.78-2.75-19.61-4.03-29.42-3-.48,.05-.36,.79,.13,.74,9.74-1.02,19.5,.26,29.21,2.99,.48,.14,.56-.59,.08-.73Z"/><path class="d" d="M472.7,100.28c-8.04-3.95-16.65-6.06-25.28-7.68-.49-.09-.57,.63-.08,.72,8.56,1.61,17.1,3.7,25.08,7.62,.46,.22,.73-.44,.28-.66Z"/></g><g><path class="f" d="M404.97,33.84c3.96-.01,7.86,.3,11.5,.9,2.19,4.16,3.87,8.96,4.93,14.49-4.33-5.96-11.22-11.56-16.43-15.39Z"/><path class="f" d="M391.06,35.27c3.47-.73,7.06-1.18,10.65-1.35,2.94,4.39,5.27,9.63,6.86,15.87-4.73-5.76-12.05-11.01-17.51-14.52Z"/><path class="f" d="M420.15,35.47c3.33,.77,6.36,1.81,8.91,3.07,.42,.21,.84,.43,1.27,.67,.98,2.96,1.74,6.17,2.25,9.66-3.21-4.88-8.05-9.62-12.43-13.4Z"/></g></g><g><g><path class="d" d="M411.33,137.61c4.36,4.94,8.16,10.95,4.24,15.98-4.54,5.82-11.58-.05-16.99-4.8,.81-2.49,2.05-4.83,3.82-6.75,2.31-2.5,5.58-4.19,8.93-4.43Z"/><path class="e" d="M371.37,105.61c4.68-.56,11.65,4.19,15.31,6.97,6.83,5.19,12.41,11.89,18.22,18.3,1.55,1.71,4.07,4.06,6.42,6.73-3.36,.24-6.63,1.93-8.93,4.43-1.77,1.92-3.01,4.25-3.82,6.75-1.73-1.52-3.3-2.93-4.57-3.8-9.03-6.2-20.55-15.78-25.03-26.21-1.9-4.43-3.67-12.45,2.4-13.17Z"/></g><g><path class="f" d="M392.19,140.67c2.28-2.04,6.22-4.58,9.46-3.38-2.99,1.73-6.01,4.55-7.47,7.82-.06-.04-.12-.09-.17-.12-1.09-.75-2.22-1.55-3.37-2.4,.43-.73,.96-1.38,1.56-1.92Z"/><path class="f" d="M383.71,132.71c2.28-2.04,6.23-4.58,9.46-3.38-3.05,1.77-6.15,4.67-7.58,8.03-.14,.33-.25,.67-.35,1.01-1.17-.97-2.33-1.98-3.47-3.03,.48-1.01,1.15-1.93,1.94-2.64Z"/><path class="f" d="M383.97,121.01c-3.05,1.77-6.15,4.67-7.58,8.03-.09,.2-.15,.41-.22,.62-1.06-1.21-2.06-2.44-2.98-3.7,.39-.58,.82-1.12,1.33-1.57,2.28-2.04,6.22-4.59,9.46-3.38Z"/></g></g><g><g><path class="d" d="M286.21,132.39c1.32,1.82,3.01,3.36,4.98,4.45,2.65,1.46,5.75,2.07,8.76,1.81-.06,.07-.12,.12-.18,.19-3,3.53-5.17,8.73-10.34,8.52-5.13-.21-5.91-4.4-5.16-8.93,.35-2.16,1.04-4.16,1.94-6.04Z"/><path class="e" d="M291.18,136.84c-1.97-1.09-3.66-2.63-4.98-4.45,.65-1.35,1.4-2.64,2.24-3.87,1.88-2.76,4.15-5.28,6.44-7.7,1.41-1.48,2.81-2.93,4.13-4.38,4.27-4.69,6.75-12.56,12.33-15.74,10.72-6.1,37.15-6.75,34.37,13.95-1.1,8.15-12.59,13.27-18.68,16.02-9.07,4.09-18.19-.83-26.37,7.19-.25,.25-.49,.52-.72,.79-3.02,.26-6.11-.35-8.76-1.81Z"/></g><g><path class="f" d="M315.86,109.12c-2.93,1.83-7.3,.12-9.95-1.42-.25-.14-.48-.31-.71-.49,.77-1.19,1.58-2.34,2.46-3.37,2.13,2.46,5.26,4.29,8.19,5.27Z"/><path class="f" d="M308.33,118.91c-2.93,1.83-7.3,.12-9.95-1.42-.07-.04-.14-.1-.21-.15,.28-.3,.57-.6,.84-.9,.61-.67,1.18-1.4,1.72-2.17,2.09,2.14,4.92,3.74,7.59,4.64Z"/><path class="f" d="M299.79,129.67c-2.93,1.83-7.3,.12-9.95-1.42-.28-.16-.54-.35-.79-.56,.81-1.13,1.68-2.23,2.59-3.29,2.12,2.45,5.23,4.29,8.15,5.27Z"/></g></g><g><path class="f" d="M361.75,83.22c1.63,.16,3.24,.32,4.82,.51-1.92,4.38-3.68,9.77-5.98,13.5-.26-3.82,.27-9.05,1.16-14Z"/><path class="f" d="M348.03,83.45c1.56-.2,3.12-.36,4.7-.45-1.17,4.51-2.11,9.81-3.75,13.69-.78-3.54-1.05-8.45-.95-13.24Z"/><path class="f" d="M334.66,85.97c.15-.03,.3-.07,.45-.1,1.34-.29,2.65-.57,3.94-.84-.23,4.44-.2,9.41-1.02,13.28-1.39-3.2-2.56-7.77-3.37-12.35Z"/><path class="f" d="M326.04,102.03c-1.67-2.82-3.29-6.88-4.61-11.06,1.28-.76,2.62-1.44,4.02-2.06,.32,4.39,.93,9.22,.59,13.11Z"/></g></g><g><path class="f" d="M68.69,94.39c1.14,.04,2.25-.14,3.23-.63,5.09-2.56,.2-7.65-3.06-9.57-2.83-1.67-9.9-5.66-15.89-6.19-5.46-.48-10.45-.42-15.21-4.01-4.48-3.38-5.55-12.25-10.93-14.11-7.32-2.53-4.92,6.26-2.37,9.61,11.33,14.86,18.55,13.38,23.32,14.51,8.62,2.05,12.33,6.57,14.77,8.25,1.65,1.13,3.95,2.06,6.15,2.15Z"/><path class="f" d="M70.65,116.94c-1.82-6.93,.16-15.8,4.6-19.97,2.73-2.57,5.67-5.33,9.4-6.29,11.94-3.07,37.62,3.25,29.5,22.48-2.15,5.08-7.33,7.48-12.34,8.88-5.79,1.62-11.68,4.04-17.76,4.37-2.38,.13-4.85-.02-7.01-1.03-3.36-1.58-5.42-4.73-6.39-8.45Z"/><g><path class="j" d="M165.9,138.49c.84,2.24,1.84,4.46,3.19,6.62,.34,.55,.71,1.11,.8,1.75,.15,1.08-.5,2.12-1.3,2.86-3.18,2.95-8.52,2.39-11.95-.26-.87-.67-2.63-3.66-4.65-7.49,4.85,.33,9.8-.9,13.92-3.47Z"/><path class="f" d="M137.93,110.07c.2-5.7,6.01-13.72,12.15-8.93,1.13,.89,1.96,2.1,2.71,3.33,3.84,6.21,5.31,13.71,8.26,20.25,2.06,4.58,3.14,9.24,4.84,13.78-4.12,2.57-9.07,3.8-13.92,3.47-4.03-7.66-9.1-18.73-10.22-21.71-1.28-3.42-3.96-6.37-3.83-10.18Z"/><g><path class="e" d="M136.31,123.06c.65-.1,1.29-.22,1.91-.37,12.03-2.89,13.38-21.37,7.63-30.13-8.82-13.45-22.04-15.79-37.06-17.85-9.25-1.27-17.2,.07-26.33,1.57-13.89,2.28-26.05,8.94-28.32,23.98-1.74,11.59,7.97,23.31,19.36,22.33,11.58-.99,23.21-1.6,34.83-1.44,8.49,.11,19.43,3.16,27.98,1.9Z"/><path class="f" d="M71.28,112.13c6.04-.4,12.01-1.58,18.11-1,6.3,.6,12.15,2.56,18.28,3.37,6.78,.89,14.06,.54,20.81,.54,5.3,0,9.36,.22,14.29-1.8,1.85-.76,3.77-1.46,5.67-2.22-1.32,5.57-4.61,10.33-10.23,11.68-.62,.15-1.26,.27-1.91,.37-8.55,1.26-19.49-1.79-27.98-1.9-11.63-.15-23.25,.45-34.83,1.44-8.03,.69-15.22-4.94-18.15-12.38,5.16,1.5,10.49,2.26,15.94,1.9Z"/><g><path class="f" d="M109.74,74.85c1.66,.23,3.29,.47,4.89,.72-2.16,4.29-4.19,9.59-6.7,13.21-.1-3.83,.67-9.03,1.8-13.94Z"/><path class="f" d="M95.74,74.45c1.6-.13,3.19-.22,4.81-.24-1.4,4.45-2.59,9.71-4.43,13.51-.64-3.57-.69-8.48-.38-13.27Z"/></g></g></g><path class="f" d="M83.39,124.47c-.38,1.95,.37,3.85,.37,5.81,0,2.65-1.36,5.19-2.67,7.59-1.29,2.35-2.87,4.95-5.35,5.63-2.4,.66-4.68-.77-6.44-2.36-1.23-1.11-2.42-2.44-2.59-4.17-.14-1.33,.35-2.7,.56-4.06,.49-3.18-.58-6.23-1-9.34-.55-4.12,.06-8.51,1.74-12.49,2.16-5.11,6.59-9.8,11.82-10.37,2.66-.29,5.26,.5,7.49,1.78,4.4,2.52,6.15,7.09,4.58,12.46-1.31,4.48-7.59,4.69-8.52,9.54Z"/><path class="f" d="M145.94,93.15c2.27,3.7,3.92,9.19,3.48,14.38-2.25-.54-5.17-1.29-7.59-1.97-5.95-1.68-13.95-6.43-18.41-10.93-5.74-5.79-8.37-12.57-9.75-19.4,13.15,2.25,24.61,5.46,32.27,17.92Z"/><path class="e" d="M54.95,130.77c-4.28-6.22-5.41-20.5-2.87-26.5,1.56-3.69,4.97-12.9,8.06-15.38,9.92-7.94,34.39-6.77,34.06,15.85-.05,3.3-1.61,6.48-3.47,9.21-3.43,5.04-14.78,11.6-18.85,14.43-1.56,1.08-3.15,2.16-4.91,2.88-2.18,.89-4.66,.9-6.96,1.25-1.98,.3-3.86,.02-5.07-1.73Z"/><g><g><path class="f" d="M161.32,24.2c-1.71,6.74-3.23,13.02-3.4,14.14-.35,2.32-.55,2.29,.42,4.49,1.28,2.89,30.1,11.07,35.71,6.49-2.38-8.79-9.08-22.39-13.86-28.7-3.43-4.52-8.74-11.86-13.75-14.54-.34-.18-2.9,9.35-5.13,18.13Z"/><path class="e" d="M131.5,31.97c15.6-6.26,38.04-3.67,49.58,3.23,5.97,3.57,12.37,10.03,15.09,16.69,2.53,6.2,1.74,13.04,2.41,19.76,.72,7.23,.49,15-2.47,21.69-3.82,8.64-16.74,12.2-24.79,12.89-9.57,.83-17.14-1.19-26.4-3.95-6.18-1.84-14.42-6.9-19-11.65-9.46-9.82-10.54-22.15-11.27-33.12-.88-13.3,6.47-21.37,16.84-25.53Z"/><path class="d" d="M168.64,95.96c6.66,4.98,20.47,4.78,25.57-2.48,2.05-2.91,2.86-6.65,2.2-10.15-.34-1.8-1.07-3.56-2.3-4.93-2.17-2.4-5.56-3.27-8.77-3.72-3.71-.52-7.54-.65-11.15,.33-3.61,.99-7,3.2-8.79,6.48-2.57,4.73-1.09,11.24,3.23,14.46Z"/><path class="e" d="M109.5,35.93c2.84,6.61,5.55,12.74,6.11,13.76,1.17,2.12,.99,2.23,3.12,3.4,2.81,1.54,27.02-15.39,28.6-22.76-6.93-3.66-17.49-7.45-25.18-9.52-5.51-1.49-14.25-4.05-19.87-3.01-.38,.07,3.53,9.52,7.22,18.14Z"/><g><path class="d" d="M137.7,79.52c9.72-1.3,20.63-.91,28.82,4.01,.4,.24-.05,.82-.45,.58-8.01-4.81-18.74-5.18-28.26-3.91-.48,.06-.6-.61-.12-.67Z"/><path class="d" d="M137.82,92.02c9.53-2.64,19.19-3.93,28.96-3.07,.48,.04,.4,.73-.09,.69-9.71-.86-19.29,.43-28.76,3.06-.47,.13-.59-.55-.12-.67Z"/><path class="d" d="M141.7,100.13c7.74-3.75,16.15-5.79,24.6-7.38,.48-.09,.6,.58,.12,.67-8.39,1.58-16.72,3.6-24.41,7.32-.44,.21-.75-.4-.31-.61Z"/></g><g><path class="i" d="M166.96,63.56c.4,5.63-2.22,10.44-5.84,10.74-3.62,.3-6.88-4.03-7.28-9.66-.4-5.63,2.22-10.44,5.84-10.74,3.62-.3,6.88,4.03,7.28,9.66Z"/><path class="m" d="M156.88,64.99c.28,4.02,2.49,7.12,4.93,6.92,2.44-.2,4.19-3.62,3.91-7.64-.29-4.02-2.49-7.12-4.94-6.92-2.44,.2-4.19,3.62-3.9,7.65Z"/></g><g><path class="i" d="M195.71,64.18c.28,4.71-1.27,8.7-3.47,8.9-2.2,.21-4.22-3.44-4.5-8.15-.28-4.71,1.27-8.7,3.47-8.9,2.2-.21,4.22,3.45,4.5,8.16Z"/><path class="m" d="M188.82,65.31c.19,3.35,1.79,5.94,3.58,5.78,1.78-.16,3.07-3.02,2.88-6.37-.19-3.35-1.79-5.94-3.58-5.78-1.78,.16-3.07,3.01-2.87,6.37Z"/></g><path class="l" d="M172,86.93c.14,.5,.23,1.05,.28,1.21,.3,1.02,.74,2.05,1.54,2.77,1.56,1.4,4.23,1.92,6.23,1.2,2.38-.85,3.42-2.69,3.8-5.12,.19-1.2,.59-2.63,.46-3.85-.03-.27-.19-.62-.17-.89,.03-.34,.72-.89,1.06-.77,.7,.25,.55,1.31,.47,1.89-.12,.91-.14,1.72-.15,2.64-.02,1.67-.13,3.8,1.05,5.13,.86,.98,2.22,1.25,3.2,.3,.5-.49,.68-1.12,.83-1.79,.04-.19,.26-1.48,.67-1.38,.69,.17,.1,1.62-.02,2.03-.51,1.7-2.12,3.75-4.05,2.84-.8-.38-1.39-1.13-1.82-1.89-.39-.7-.99-1.52-.85-2.38-.68,2.11-2.07,3.54-4.13,4.28-.91,.33-1.92,.44-2.93,.36-2.37-.18-4.33-1.34-5.54-3.41-.33-.57-1.85-3.94-.57-4.13,.28-.04,.48,.44,.63,.97Z"/><path class="g" d="M182.68,78.67c7.78-2.17,11.62,5.95,2.98,6.6-5.01,.37-9.83-4.69-2.98-6.6Z"/><path class="k" d="M137.34,35.18s-15.19-9.34-28.79-11.36l11.24,24.18,17.55-12.81Z"/><path class="d" d="M191.67,63.94c.52,1.25,1.62,1.95,2.44,1.57,.83-.38,1.07-1.7,.55-2.95-.52-1.25-1.62-1.95-2.45-1.57-.83,.38-1.07,1.7-.54,2.95Z"/><path class="d" d="M160.42,62.7c.7,1.65,2.09,2.61,3.11,2.14,1.02-.47,1.29-2.2,.59-3.85-.7-1.65-2.09-2.61-3.12-2.14-1.02,.47-1.29,2.2-.59,3.85Z"/></g><g><path class="d" d="M224.28,78.24c-9.76-2.07-20.76-2.39-29.11,2.33-.41,.23,.03,.88,.44,.65,8.18-4.63,18.99-4.29,28.55-2.27,.48,.1,.62-.61,.13-.72Z"/><path class="d" d="M223.87,91.7c-9.54-3.5-19.23-5.55-29.1-5.29-.49,.01-.42,.76,.07,.75,9.79-.25,19.42,1.78,28.89,5.26,.47,.17,.6-.55,.13-.72Z"/><path class="d" d="M219.76,100.15c-7.71-4.57-16.12-7.35-24.6-9.64-.48-.13-.62,.59-.13,.72,8.41,2.27,16.75,5.03,24.41,9.56,.44,.26,.77-.38,.33-.64Z"/></g><g><path class="f" d="M157.44,28.63c3.95,.3,7.81,.91,11.4,1.8,1.86,4.32,3.15,9.23,3.78,14.83-3.85-6.28-10.28-12.4-15.18-16.63Z"/><path class="f" d="M143.46,28.97c3.52-.46,7.13-.62,10.72-.51,2.59,4.6,4.5,10.01,5.6,16.36-4.26-6.11-11.16-11.91-16.32-15.85Z"/><path class="f" d="M172.44,31.44c3.26,1.03,6.2,2.3,8.64,3.76,.4,.24,.81,.5,1.21,.76,.75,3.03,1.26,6.29,1.49,9.8-2.82-5.12-7.28-10.22-11.34-14.33Z"/></g></g><g><path class="e" d="M53.72,128.96c-2.04-5.59-2.16-12.58,1.16-16.99,1.69-2.25,4.1-3.61,6.59-4.32,4.9-1.39,9.35,.81,12,6.15,1.39,2.81,.27,6.46-.28,9.37-.37,1.97,.02,3.25,.87,4.48,.54,.77,1.26,1.53,2.09,2.42,2.47,2.66,4.22,5.96,5.14,9.46-4.97,2.51-10.6,3.65-16.16,3.39-1.28-1.01-2.64-1.93-3.9-2.98-3.28-2.76-5.92-6.61-7.52-10.98Z"/><path class="d" d="M81.29,139.53c.04,.16,.09,.31,.13,.47,.69,2.87,1.75,8.03-1.15,9.98-1.32,.89-2.99,1.16-4.55,1.23-1.65,.08-3.43-.05-4.77-1.26-1.03-.93-1.64-2.35-2.44-3.56-.93-1.4-2.11-2.48-3.36-3.47,5.56,.26,11.19-.87,16.16-3.39Z"/></g><g><path class="d" d="M140.35,149.56c1.37-.44,2.76-1.03,3.91-1.87,.46,1.95,1.13,3.78,2.21,5.15,1.05,1.32,2.16,1.61,1.9,3.59-.4,2.9-4.47,3.62-6.83,3.95-1.53,.21-3.12,.4-4.59-.07-2.89-.92-4.43-3.99-5.65-6.77-.39-.89-.8-1.78-1.2-2.67,3.46,.17,6.95-.25,10.25-1.3Z"/><path class="e" d="M115.53,106.72c.35-4.81,2.46-12.75,8.18-10.6,4.41,1.65,8.43,9.07,10.4,13.22,4.41,9.27,7.06,19.97,8.84,30.04,.42,2.36,.65,5.46,1.32,8.3-1.15,.84-2.54,1.43-3.91,1.87-3.3,1.05-6.79,1.47-10.25,1.3-1.44-3.14-2.94-6.24-4.42-9.34-5.26-11.06-10.16-22.13-10.16-34.8Z"/></g><g><path class="f" d="M126.67,122.35c-1.25,2.28-4.46,3.61-7.38,4.31-.4-1.12-.77-2.25-1.12-3.39,2.75,.11,6.21-.21,8.5-.92Z"/><path class="f" d="M130.68,131.5c-1.17,2.4-4.44,3.87-7.51,4.63-.53-1.17-1.05-2.34-1.55-3.52,2.98,.17,6.45-.41,9.05-1.11Z"/><path class="f" d="M134.72,141.97c-1.05,2.42-3.96,3.71-6.75,4.35-.56-1.17-1.12-2.34-1.68-3.51,2.86,.28,5.86-.09,8.42-.84Z"/></g><path class="f" d="M72.49,92.02c-1.58-2.9-3.05-7.02-4.21-11.26,1.34-.7,2.74-1.32,4.19-1.87,.13,4.4,.54,9.25,.02,13.13Z"/><path class="f" d="M81.99,76.37c.15-.03,.31-.06,.46-.08,1.38-.23,2.72-.45,4.06-.66-.43,4.43-.62,9.39-1.63,13.23-1.28-3.26-2.27-7.88-2.89-12.49Z"/><g><path class="f" d="M52.78,102.58c.45-1.11,.99-2.43,1.58-3.81,2.91,1.59,6.43,2.55,9.62,2.88-2.77,2.31-7.69,1.81-11.2,.92Z"/><path class="f" d="M59.81,113.55c-1.42,2.91-5.35,4.34-8.74,4.97-.16-1.32-.26-2.64-.31-3.94,3.05,.21,6.27-.22,9.05-1.03Z"/><path class="f" d="M56.13,133.94c-.71-1.15-1.33-2.36-1.87-3.62,2.83-.58,5.59-1.87,7.77-3.43-.17,3.15-3.16,5.57-5.9,7.05Z"/></g></g><g><g><g><path class="j" d="M855.47,134.82c2.34,1.88,4.63,3.84,4.42,7.27-.27,4.57-3.69,5.26-7.38,4.59-3.01-.55-5.62-1.94-8-3.74-1.57-1.19-3.03-2.56-4.44-3.99,5.39,.33,10.89-1.15,15.4-4.14Z"/><path class="f" d="M834.32,91.84c6.62,.99,10.57,11.25,12.7,16.68,3.16,8.09-1.03,16.22,5.36,23.54,.24,.28,.51,.54,.78,.8,.72,.68,1.52,1.32,2.32,1.96-4.5,2.99-10,4.46-15.4,4.14-.58-.58-1.15-1.17-1.71-1.77-1.18-1.25-2.34-2.51-3.49-3.69-3.74-3.82-10.11-6.03-12.59-11.02-4.76-9.57-4.78-33.15,12.03-30.64Z"/></g><g><path class="f" d="M873.96,139.53c-1.33-.98-2.54-2.13-3.59-3.41,2.73-9.67,11.47-22.74,11.83-23.35,1.94-3.23,2.57-7.21,5.77-9.63,4.46-3.38,12.26-4.21,13.87,2.42,1.29,5.29-3.31,10.8-4.94,15.52-1.5,4.34-7.53,15.89-13.69,22.73-2.11-.34-4.19-1.27-6.09-2.31-1.09-.6-2.17-1.24-3.18-1.98Z"/><path class="j" d="M873.96,139.53c1.01,.74,2.08,1.38,3.18,1.98,1.9,1.04,3.97,1.97,6.09,2.31-5.34,5.95-10.77,8.35-13.39-.61-.54-1.84-.24-4.32,.54-7.08,1.05,1.28,2.25,2.43,3.59,3.41Z"/></g><path class="f" d="M819.83,98.43c1.14-.03,2.23-.29,3.18-.85,4.91-2.9-.31-7.64-3.7-9.34-2.94-1.47-10.25-4.98-16.27-5.11-5.48-.12-10.46,.28-15.44-2.99-4.69-3.08-6.35-11.86-11.85-13.35-7.47-2.03-4.49,6.57-1.72,9.74,12.3,14.07,19.4,12.12,24.23,12.93,8.74,1.47,12.74,5.74,15.28,7.24,1.73,1.02,4.08,1.8,6.28,1.73Z"/><path class="e" d="M887.52,123.34c.63-.12,1.25-.27,1.85-.45,11.65-3.42,12.16-21.94,6.16-30.44-9.21-13.04-22.26-14.8-37.05-16.19-9.11-.86-16.83,.84-25.71,2.74-13.5,2.89-25.11,10.08-26.67,25.22-1.2,11.65,8.81,22.94,19.92,21.45,11.29-1.51,22.64-2.62,34.03-2.99,8.31-.27,19.16,2.29,27.47,.66Z"/><path class="e" d="M887.08,123.34c.63-.12,1.25-.27,1.85-.45,11.65-3.42,12.16-21.94,6.16-30.44-9.21-13.04-22.26-14.8-37.05-16.19-9.11-.86-16.83,.84-25.71,2.74-13.5,2.89-25.11,10.08-26.67,25.22-1.2,11.65,8.81,22.94,19.92,21.45,11.29-1.51,22.64-2.62,34.03-2.99,8.31-.27,19.16,2.29,27.47,.66Z"/><path class="f" d="M823.4,115.3c5.9-.67,11.69-2.11,17.69-1.8,6.2,.32,12,2.02,18.04,2.55,6.68,.59,13.79-.08,20.39-.38,5.18-.24,9.18-.2,13.91-2.44,1.78-.84,3.63-1.63,5.45-2.47-1.05,5.63-4.06,10.52-9.51,12.12-.6,.18-1.22,.33-1.85,.45-8.31,1.64-19.16-.92-27.47-.66-11.39,.36-22.74,1.48-34.03,2.99-7.83,1.05-15.11-4.26-18.31-11.56,5.12,1.27,10.36,1.79,15.69,1.19Z"/><g><path class="e" d="M853.95,145.17c-1.85-.96-3.51-2.27-4.92-3.81,.33-.66,.66-1.29,.98-1.88,1.81-3.33,4.23-6.34,5.89-9.75,4.77-9.86,12.52-22.69,22.16-28.68,4.1-2.55,11.76-5.5,13.38,.39,1.25,4.54-2.39,12.14-4.6,16.18-3.53,6.48-8.27,12.86-13.3,18.26-2.47,2.65-8.26,6.86-10.31,11.23-3.2,.19-6.44-.48-9.29-1.95Z"/><path class="d" d="M853.95,145.17c2.84,1.48,6.09,2.14,9.29,1.95-.75,1.61-1,3.25-.38,4.84,.16,.41,.37,.8,.44,1.24,.22,1.41-1.1,2.6-2.42,3.14-4.9,2.01-9.92-.74-12.75-4.77-2.1-3-.69-6.98,.91-10.2,1.41,1.54,3.07,2.85,4.92,3.81Z"/></g><path class="f" d="M895.53,92.45c3.26,4.62,4.59,12.21,3.26,18.72-2.03-.66-4.1-1.37-6.26-2.12-7.12-2.49-16.49-8.72-21.58-14.35-5.11-5.66-7.86-11.85-9.36-18.12,13.51,1.39,25.37,3.76,33.93,15.88Z"/><g><g><path class="f" d="M907.53,28.13c-1.18,6.85-2.2,13.24-2.28,14.36-.17,2.34-.37,2.32,.77,4.44,1.5,2.79,30.87,8.68,36.11,3.68-3.06-8.57-10.8-21.61-16.06-27.53-3.77-4.24-9.64-11.14-14.85-13.42-.35-.15-2.16,9.55-3.7,18.47Z"/><path class="e" d="M878.41,38.21c15.07-7.46,37.64-6.64,49.68-.66,6.23,3.09,13.12,9.04,16.35,15.46,3.01,5.99,2.76,12.86,3.95,19.51,1.28,7.15,1.66,14.91-.77,21.81-3.13,8.91-15.73,13.47-23.7,14.79-9.47,1.57-17.18,.15-26.63-1.87-6.3-1.35-14.92-5.75-19.86-10.13-10.2-9.05-12.24-21.26-13.82-32.14-1.92-13.19,4.78-21.81,14.79-26.77Z"/><path class="d" d="M920.44,99.1c7.03,4.44,20.78,3.16,25.3-4.47,1.81-3.06,2.33-6.86,1.4-10.29-.48-1.77-1.35-3.47-2.68-4.73-2.35-2.23-5.8-2.83-9.03-3.03-3.74-.23-7.57-.06-11.09,1.2-3.52,1.27-6.73,3.74-8.25,7.15-2.2,4.92-.21,11.29,4.35,14.17Z"/><path class="e" d="M856.79,43.88c3.35,6.37,6.53,12.26,7.16,13.24,1.33,2.02,1.16,2.14,3.37,3.14,2.92,1.32,25.74-17.46,26.73-24.93-7.19-3.11-18.02-6.06-25.84-7.53-5.61-1.05-14.52-2.92-20.04-1.45-.37,.1,4.26,9.22,8.62,17.52Z"/><g><path class="d" d="M888.31,85.13c9.59-2.05,20.5-2.52,29.04,1.74,.42,.21,.02,.82-.4,.61-8.36-4.17-19.09-3.7-28.47-1.69-.48,.1-.65-.56-.17-.66Z"/><path class="d" d="M889.4,97.59c9.29-3.38,18.83-5.42,28.64-5.33,.48,0,.45,.7-.03,.69-9.74-.09-19.2,1.94-28.43,5.3-.46,.17-.63-.5-.17-.66Z"/><path class="d" d="M893.91,105.36c7.43-4.34,15.65-7.04,23.95-9.28,.47-.13,.64,.53,.17,.66-8.24,2.23-16.39,4.9-23.76,9.21-.42,.25-.78-.34-.36-.59Z"/></g><g><path class="i" d="M916.23,66.93c.84,5.59-1.4,10.58-4.99,11.16-3.59,.58-7.18-3.48-8.01-9.06-.84-5.59,1.39-10.58,4.98-11.16,3.59-.58,7.18,3.48,8.02,9.06Z"/><path class="m" d="M906.3,69.15c.6,3.99,3.04,6.9,5.46,6.51,2.42-.39,3.9-3.94,3.3-7.93-.6-3.99-3.04-6.9-5.46-6.51-2.42,.39-3.89,3.94-3.29,7.93Z"/></g><g><path class="i" d="M944.95,65.31c.65,4.67-.59,8.77-2.77,9.15-2.18,.38-4.47-3.1-5.13-7.78-.65-4.67,.59-8.77,2.77-9.15,2.18-.38,4.48,3.11,5.13,7.78Z"/><path class="m" d="M938.16,66.97c.45,3.33,2.25,5.79,4.02,5.48,1.77-.3,2.82-3.25,2.37-6.58-.46-3.33-2.25-5.78-4.02-5.48-1.77,.3-2.82,3.25-2.37,6.58Z"/></g><path class="l" d="M923.08,89.84c.18,.49,.32,1.03,.38,1.19,.38,1,.9,1.99,1.75,2.64,1.66,1.28,4.37,1.58,6.3,.71,2.3-1.04,3.19-2.95,3.39-5.41,.1-1.22,.39-2.67,.16-3.87-.05-.27-.24-.61-.24-.88,0-.34,.65-.94,1-.85,.72,.2,.65,1.26,.62,1.85-.05,.91,0,1.73,.05,2.64,.11,1.67,.17,3.79,1.44,5.04,.93,.91,2.31,1.07,3.21,.04,.46-.53,.59-1.17,.69-1.85,.02-.19,.15-1.5,.56-1.43,.7,.12,.23,1.61,.14,2.03-.37,1.74-1.82,3.91-3.81,3.15-.82-.31-1.47-1.02-1.96-1.74-.45-.67-1.1-1.44-1.03-2.31-.51,2.16-1.79,3.69-3.79,4.59-.89,.4-1.88,.59-2.89,.59-2.38,0-4.42-1-5.79-2.97-.38-.54-2.16-3.79-.9-4.08,.27-.06,.52,.4,.71,.91Z"/><path class="g" d="M933.08,80.76c7.59-2.77,12.05,5.03,3.49,6.35-4.97,.76-10.17-3.9-3.49-6.35Z"/><path class="k" d="M884.48,40.96s-15.87-8.13-29.59-9.08l13.1,23.23,16.49-14.15Z"/><path class="d" d="M940.9,65.38c.62,1.2,1.77,1.82,2.56,1.37,.79-.45,.93-1.78,.31-2.99-.62-1.2-1.77-1.82-2.56-1.37-.79,.45-.93,1.78-.31,2.99Z"/><path class="d" d="M909.64,66.58c.82,1.59,2.29,2.44,3.27,1.89,.98-.55,1.11-2.29,.29-3.89-.83-1.59-2.29-2.44-3.27-1.89-.98,.55-1.11,2.29-.28,3.89Z"/></g><g><path class="d" d="M974.52,77.09c-9.89-1.3-20.88-.76-28.84,4.6-.39,.26,.1,.88,.49,.62,7.79-5.25,18.6-5.76,28.28-4.49,.49,.06,.57-.66,.07-.72Z"/><path class="d" d="M975.16,90.53c-9.78-2.75-19.61-4.03-29.42-3-.48,.05-.36,.79,.13,.74,9.74-1.02,19.5,.26,29.21,2.99,.48,.14,.56-.59,.08-.73Z"/><path class="d" d="M971.73,99.28c-8.04-3.95-16.65-6.06-25.28-7.68-.49-.09-.57,.63-.08,.72,8.56,1.61,17.1,3.7,25.08,7.62,.46,.22,.74-.44,.28-.66Z"/></g><g><path class="f" d="M904,32.85c3.96-.01,7.86,.3,11.5,.9,2.19,4.16,3.87,8.96,4.93,14.49-4.33-5.96-11.22-11.56-16.43-15.39Z"/><path class="f" d="M890.1,34.28c3.47-.73,7.06-1.18,10.65-1.35,2.94,4.39,5.27,9.63,6.86,15.87-4.73-5.76-12.05-11.01-17.51-14.52Z"/><path class="f" d="M919.18,34.48c3.33,.77,6.36,1.81,8.91,3.07,.42,.21,.84,.43,1.27,.67,.98,2.96,1.74,6.17,2.25,9.66-3.21-4.88-8.05-9.62-12.43-13.4Z"/></g></g><g><path class="d" d="M844.83,141.15c2.34,2.72,4.58,5.51,3.53,9.21-1.41,4.93-5.66,4.71-9.89,2.93-3.46-1.46-6.25-3.73-8.66-6.39-.13-.15-.25-.3-.38-.45,2.11-.09,4.21-.32,6.27-.81,3.33-.79,6.56-2.25,9.13-4.49Z"/><path class="e" d="M829.74,87.97c7.67,2.98,9.95,15.35,11.2,21.91,1.86,9.78-5.07,17.49,.81,27.33,.22,.37,.48,.74,.74,1.1,.7,.96,1.52,1.9,2.33,2.84-2.57,2.24-5.8,3.7-9.13,4.49-2.06,.48-4.16,.72-6.27,.81-2.08-2.36-3.88-4.99-5.59-7.61-1.11-1.71-2.19-3.42-3.29-5.04-3.55-5.25-11.58-13.69-13.35-19.86-3.42-11.85,3.09-33.52,22.55-25.96Z"/></g></g><g><path class="f" d="M859.73,122.45c.62-1.09,1.28-2.19,1.95-3.29,2.34,1.21,5.03,1.91,7.48,2.1-2.25,2.33-6.49,1.95-9.44,1.19Z"/><path class="f" d="M855.37,130.76c.18-.34,.36-.68,.53-1.03,.37-.77,.77-1.57,1.18-2.37,2.39,1.28,5.18,2,7.7,2.2-2.25,2.32-6.47,1.95-9.42,1.19Z"/><path class="f" d="M849.91,140.29c-.09-.03-.18-.07-.28-.1,.13-.24,.25-.47,.37-.7,.51-.94,1.07-1.85,1.64-2.75,2.5,1.48,5.54,2.3,8.26,2.51-2.4,2.48-7.05,1.89-9.99,1.03Z"/></g><g><path class="f" d="M858.98,76.35c1.63,.16,3.24,.32,4.82,.51-1.92,4.38-3.68,9.77-5.98,13.5-.26-3.82,.27-9.05,1.16-14Z"/><path class="f" d="M845.27,76.58c1.56-.2,3.12-.36,4.7-.45-1.17,4.51-2.11,9.81-3.75,13.69-.78-3.54-1.05-8.45-.95-13.24Z"/><path class="f" d="M831.89,79.1c.15-.03,.3-.07,.45-.1,1.34-.29,2.65-.57,3.94-.84-.23,4.44-.2,9.41-1.02,13.28-1.39-3.2-2.56-7.77-3.37-12.35Z"/><path class="f" d="M823.27,95.16c-1.67-2.82-3.29-6.88-4.61-11.06,1.28-.76,2.62-1.44,4.02-2.06,.32,4.39,.93,9.22,.59,13.11Z"/></g><g><path class="f" d="M827.14,126.18c-.02,3.47-2.82,6.91-5.47,9.3-.37-.57-.75-1.15-1.12-1.7-.34-.51-.74-1.05-1.15-1.61,2.85-1.42,5.6-3.64,7.75-5.99Z"/><path class="f" d="M814.84,106.55c-1.29,3.06-5.34,4.39-8.53,4.86-.37-1.32-.61-2.68-.7-4.07,3.07,.47,6.42,.07,9.22-.79Z"/><path class="f" d="M813.77,124.95c-.92-1.19-1.81-2.41-2.65-3.61,3.23-.85,6.37-2.58,8.83-4.57-.11,3.43-3.25,6.32-6.18,8.18Z"/></g></g></g></g></g></g></svg>