<svg width="2559" height="98" viewBox="0 0 2559 98" fill="none" xmlns="http://www.w3.org/2000/svg">
<mask id="mask0_7_105" style="mask-type:alpha" maskUnits="userSpaceOnUse" x="0" y="0" width="2560" height="98">
<path d="M0 0H2560V98H0V0Z" fill="#C4C4C4"/>
</mask>
<g mask="url(#mask0_7_105)">
<path fill-rule="evenodd" clip-rule="evenodd" d="M333.257 0.373566C303.787 58.3936 244.695 98 176.602 98C79.0674 98 0 16.7397 0 -83.5C0 -183.74 79.0674 -265 176.602 -265C244.695 -265 303.787 -225.394 333.257 -167.374C362.728 -225.394 421.82 -265 489.913 -265C559.539 -265 619.755 -223.589 648.514 -163.425C677.273 -223.589 737.489 -265 807.115 -265C875.208 -265 934.3 -225.394 963.77 -167.374C993.241 -225.394 1052.33 -265 1120.43 -265C1190.05 -265 1250.27 -223.589 1279.03 -163.425C1307.79 -223.589 1368 -265 1437.63 -265C1505.72 -265 1564.81 -225.394 1594.28 -167.374C1623.75 -225.394 1682.85 -265 1750.94 -265C1820.57 -265 1880.78 -223.589 1909.54 -163.425C1938.3 -223.589 1998.51 -265 2068.14 -265C2136.23 -265 2195.33 -225.394 2224.8 -167.374C2254.27 -225.394 2313.36 -265 2381.45 -265C2478.99 -265 2558.05 -183.74 2558.05 -83.5C2558.05 16.7397 2478.99 98 2381.45 98C2313.36 98 2254.27 58.3936 2224.8 0.373596C2195.33 58.3936 2136.23 98 2068.14 98C1998.51 98 1938.3 56.5894 1909.54 -3.57468C1880.78 56.5894 1820.57 98 1750.94 98C1682.85 98 1623.75 58.3936 1594.28 0.373596C1564.81 58.3936 1505.72 98 1437.63 98C1368 98 1307.79 56.5894 1279.03 -3.57468C1250.27 56.5894 1190.05 98 1120.43 98C1052.33 98 993.241 58.3937 963.77 0.373596C934.3 58.3937 875.208 98 807.115 98C737.489 98 677.273 56.5894 648.514 -3.57468C619.755 56.5894 559.539 98 489.913 98C421.82 98 362.728 58.3936 333.257 0.373566Z" fill="#F0486B"/>
<path fill-rule="evenodd" clip-rule="evenodd" d="M333.257 -25.5577L343.608 -5.1796C371.145 49.0346 426.338 86 489.913 86C554.919 86 611.163 47.3492 638.034 -8.86588L648.514 -30.7897L658.994 -8.86588C685.865 47.3492 742.109 86 807.115 86C870.69 86 925.882 49.0346 953.42 -5.1796L963.77 -25.5576L974.121 -5.1796C1001.66 49.0346 1056.85 86 1120.43 86C1185.43 86 1241.68 47.3492 1268.55 -8.86591L1279.03 -30.7898L1289.51 -8.86591C1316.38 47.3492 1372.62 86 1437.63 86C1501.2 86 1556.4 49.0346 1583.93 -5.1796L1594.28 -25.5576L1604.63 -5.1796C1632.17 49.0346 1687.36 86 1750.94 86C1815.94 86 1872.19 47.3492 1899.06 -8.86591L1909.54 -30.7898L1920.02 -8.86591C1946.89 47.3492 2003.14 86 2068.14 86C2131.72 86 2186.91 49.0346 2214.45 -5.17953L2224.8 -25.5577L2235.15 -5.17953C2262.68 49.0346 2317.88 86 2381.45 86C2472.54 86 2546.38 10.1123 2546.38 -83.5C2546.38 -177.112 2472.54 -253 2381.45 -253C2317.88 -253 2262.68 -216.035 2235.15 -161.82L2224.8 -141.442L2214.45 -161.82C2186.91 -216.035 2131.72 -253 2068.14 -253C2003.14 -253 1946.89 -214.349 1920.02 -158.134L1909.54 -136.21L1899.06 -158.134C1872.19 -214.349 1815.94 -253 1750.94 -253C1687.36 -253 1632.17 -216.035 1604.63 -161.82L1594.28 -141.442L1583.93 -161.82C1556.4 -216.035 1501.2 -253 1437.63 -253C1372.62 -253 1316.38 -214.349 1289.51 -158.134L1279.03 -136.21L1268.55 -158.134C1241.68 -214.349 1185.43 -253 1120.43 -253C1056.85 -253 1001.66 -216.035 974.121 -161.82L963.77 -141.442L953.42 -161.82C925.882 -216.035 870.69 -253 807.115 -253C742.109 -253 685.865 -214.349 658.994 -158.134L648.514 -136.21L638.034 -158.134C611.163 -214.349 554.919 -253 489.913 -253C426.338 -253 371.145 -216.035 343.608 -161.82L333.257 -141.442L322.907 -161.82C295.369 -216.035 240.176 -253 176.602 -253C85.516 -253 11.6762 -177.112 11.6762 -83.5C11.6762 10.1123 85.516 86 176.602 86C240.176 86 295.369 49.0346 322.907 -5.1796L333.257 -25.5577ZM326.454 -179.587C295.249 -230.881 239.802 -265 176.602 -265C79.0674 -265 0 -183.74 0 -83.5C0 16.7397 79.0674 98 176.602 98C239.802 98 295.249 63.8808 326.454 12.5872C328.869 8.61627 331.14 4.54245 333.257 0.373566C335.375 4.54245 337.645 8.61627 340.061 12.5872C371.266 63.8808 426.712 98 489.913 98C554.507 98 611.002 62.3588 641.794 9.16757C644.193 5.0238 646.435 0.77356 648.514 -3.57468C650.592 0.77356 652.835 5.0238 655.234 9.16757C686.026 62.3588 742.521 98 807.115 98C870.315 98 925.762 63.8808 956.967 12.5871C959.382 8.61624 961.653 4.54245 963.77 0.373596C965.888 4.54245 968.158 8.61627 970.574 12.5872C1001.78 63.8808 1057.23 98 1120.43 98C1185.02 98 1241.51 62.3588 1272.31 9.16754C1274.71 5.0238 1276.95 0.773529 1279.03 -3.57468C1281.11 0.773529 1283.35 5.0238 1285.75 9.16754C1316.54 62.3588 1373.03 98 1437.63 98C1500.83 98 1556.27 63.8808 1587.48 12.5872C1589.9 8.61627 1592.17 4.54248 1594.28 0.373596C1596.4 4.54248 1598.67 8.61627 1601.09 12.5872C1632.29 63.8808 1687.74 98 1750.94 98C1815.53 98 1872.03 62.3588 1902.82 9.16754C1905.22 5.0238 1907.46 0.773529 1909.54 -3.57468C1911.62 0.773529 1913.86 5.0238 1916.26 9.16754C1947.05 62.3588 2003.55 98 2068.14 98C2131.34 98 2186.79 63.8808 2217.99 12.5871C2220.41 8.61627 2222.68 4.54245 2224.8 0.373596C2226.91 4.54245 2229.18 8.61627 2231.6 12.5871C2262.81 63.8808 2318.25 98 2381.45 98C2478.99 98 2558.05 16.7397 2558.05 -83.5C2558.05 -183.74 2478.99 -265 2381.45 -265C2318.25 -265 2262.81 -230.881 2231.6 -179.587C2229.18 -175.616 2226.91 -171.542 2224.8 -167.374C2222.68 -171.542 2220.41 -175.616 2217.99 -179.587C2186.79 -230.881 2131.34 -265 2068.14 -265C2003.55 -265 1947.05 -229.359 1916.26 -176.168C1913.86 -172.024 1911.62 -167.774 1909.54 -163.425C1907.46 -167.774 1905.22 -172.024 1902.82 -176.168C1872.03 -229.359 1815.53 -265 1750.94 -265C1687.74 -265 1632.29 -230.881 1601.09 -179.587C1598.67 -175.616 1596.4 -171.542 1594.28 -167.374C1592.17 -171.542 1589.9 -175.616 1587.48 -179.587C1556.27 -230.881 1500.83 -265 1437.63 -265C1373.03 -265 1316.54 -229.359 1285.75 -176.168C1283.35 -172.024 1281.11 -167.774 1279.03 -163.425C1276.95 -167.774 1274.71 -172.024 1272.31 -176.168C1241.51 -229.359 1185.02 -265 1120.43 -265C1057.23 -265 1001.78 -230.881 970.574 -179.587C968.158 -175.616 965.888 -171.542 963.77 -167.374C961.653 -171.542 959.382 -175.616 956.967 -179.587C925.762 -230.881 870.315 -265 807.115 -265C742.521 -265 686.026 -229.359 655.234 -176.168C652.835 -172.024 650.592 -167.774 648.514 -163.425C646.435 -167.774 644.193 -172.024 641.794 -176.168C611.002 -229.359 554.507 -265 489.913 -265C426.712 -265 371.266 -230.881 340.061 -179.587C337.645 -175.616 335.375 -171.542 333.257 -167.374C331.14 -171.542 328.869 -175.616 326.454 -179.587Z" fill="#C4010E"/>
<path fill-rule="evenodd" clip-rule="evenodd" d="M333.257 -23.6264C303.787 34.3936 244.695 74 176.602 74C79.0674 74 0 -7.26031 0 -107.5C0 -207.74 79.0674 -289 176.602 -289C244.695 -289 303.787 -249.394 333.257 -191.374C362.728 -249.394 421.82 -289 489.913 -289C559.539 -289 619.755 -247.589 648.514 -187.425C677.273 -247.589 737.489 -289 807.115 -289C875.208 -289 934.3 -249.394 963.77 -191.374C993.241 -249.394 1052.33 -289 1120.43 -289C1190.05 -289 1250.27 -247.589 1279.03 -187.425C1307.79 -247.589 1368 -289 1437.63 -289C1505.72 -289 1564.81 -249.394 1594.28 -191.374C1623.75 -249.394 1682.85 -289 1750.94 -289C1820.57 -289 1880.78 -247.589 1909.54 -187.425C1938.3 -247.589 1998.51 -289 2068.14 -289C2136.23 -289 2195.33 -249.394 2224.8 -191.374C2254.27 -249.394 2313.36 -289 2381.45 -289C2478.99 -289 2558.05 -207.74 2558.05 -107.5C2558.05 -7.26031 2478.99 74 2381.45 74C2313.36 74 2254.27 34.3936 2224.8 -23.6264C2195.33 34.3936 2136.23 74 2068.14 74C1998.51 74 1938.3 32.5894 1909.54 -27.5747C1880.78 32.5894 1820.57 74 1750.94 74C1682.85 74 1623.75 34.3936 1594.28 -23.6264C1564.81 34.3936 1505.72 74 1437.63 74C1368 74 1307.79 32.5894 1279.03 -27.5747C1250.27 32.5894 1190.05 74 1120.43 74C1052.33 74 993.241 34.3937 963.77 -23.6264C934.3 34.3937 875.208 74 807.115 74C737.489 74 677.273 32.5894 648.514 -27.5747C619.755 32.5894 559.539 74 489.913 74C421.82 74 362.728 34.3936 333.257 -23.6264Z" fill="#F0486B"/>
<path fill-rule="evenodd" clip-rule="evenodd" d="M333.257 -49.5577L343.608 -29.1796C371.145 25.0346 426.338 62 489.913 62C554.919 62 611.163 23.3492 638.034 -32.8659L648.514 -54.7897L658.994 -32.8659C685.865 23.3492 742.109 62 807.115 62C870.69 62 925.882 25.0346 953.42 -29.1796L963.77 -49.5576L974.121 -29.1796C1001.66 25.0346 1056.85 62 1120.43 62C1185.43 62 1241.68 23.3492 1268.55 -32.8659L1279.03 -54.7898L1289.51 -32.8659C1316.38 23.3492 1372.62 62 1437.63 62C1501.2 62 1556.4 25.0346 1583.93 -29.1796L1594.28 -49.5576L1604.63 -29.1796C1632.17 25.0346 1687.36 62 1750.94 62C1815.94 62 1872.19 23.3492 1899.06 -32.8659L1909.54 -54.7898L1920.02 -32.8659C1946.89 23.3492 2003.14 62 2068.14 62C2131.72 62 2186.91 25.0346 2214.45 -29.1795L2224.8 -49.5577L2235.15 -29.1795C2262.68 25.0346 2317.88 62 2381.45 62C2472.54 62 2546.38 -13.8877 2546.38 -107.5C2546.38 -201.112 2472.54 -277 2381.45 -277C2317.88 -277 2262.68 -240.035 2235.15 -185.82L2224.8 -165.442L2214.45 -185.82C2186.91 -240.035 2131.72 -277 2068.14 -277C2003.14 -277 1946.89 -238.349 1920.02 -182.134L1909.54 -160.21L1899.06 -182.134C1872.19 -238.349 1815.94 -277 1750.94 -277C1687.36 -277 1632.17 -240.035 1604.63 -185.82L1594.28 -165.442L1583.93 -185.82C1556.4 -240.035 1501.2 -277 1437.63 -277C1372.62 -277 1316.38 -238.349 1289.51 -182.134L1279.03 -160.21L1268.55 -182.134C1241.68 -238.349 1185.43 -277 1120.43 -277C1056.85 -277 1001.66 -240.035 974.121 -185.82L963.77 -165.442L953.42 -185.82C925.882 -240.035 870.69 -277 807.115 -277C742.109 -277 685.865 -238.349 658.994 -182.134L648.514 -160.21L638.034 -182.134C611.163 -238.349 554.919 -277 489.913 -277C426.338 -277 371.145 -240.035 343.608 -185.82L333.257 -165.442L322.907 -185.82C295.369 -240.035 240.176 -277 176.602 -277C85.516 -277 11.6762 -201.112 11.6762 -107.5C11.6762 -13.8877 85.516 62 176.602 62C240.176 62 295.369 25.0346 322.907 -29.1796L333.257 -49.5577ZM326.454 -203.587C295.249 -254.881 239.802 -289 176.602 -289C79.0674 -289 0 -207.74 0 -107.5C0 -7.26031 79.0674 74 176.602 74C239.802 74 295.249 39.8808 326.454 -11.4128C328.869 -15.3837 331.14 -19.4576 333.257 -23.6264C335.375 -19.4576 337.645 -15.3837 340.061 -11.4128C371.266 39.8808 426.712 74 489.913 74C554.507 74 611.002 38.3588 641.794 -14.8324C644.193 -18.9762 646.435 -23.2264 648.514 -27.5747C650.592 -23.2264 652.835 -18.9762 655.234 -14.8324C686.026 38.3588 742.521 74 807.115 74C870.315 74 925.762 39.8808 956.967 -11.4129C959.382 -15.3838 961.653 -19.4576 963.77 -23.6264C965.888 -19.4576 968.158 -15.3837 970.574 -11.4128C1001.78 39.8808 1057.23 74 1120.43 74C1185.02 74 1241.51 38.3588 1272.31 -14.8325C1274.71 -18.9762 1276.95 -23.2265 1279.03 -27.5747C1281.11 -23.2265 1283.35 -18.9762 1285.75 -14.8325C1316.54 38.3588 1373.03 74 1437.63 74C1500.83 74 1556.27 39.8808 1587.48 -11.4128C1589.9 -15.3837 1592.17 -19.4575 1594.28 -23.6264C1596.4 -19.4575 1598.67 -15.3837 1601.09 -11.4128C1632.29 39.8808 1687.74 74 1750.94 74C1815.53 74 1872.03 38.3588 1902.82 -14.8325C1905.22 -18.9762 1907.46 -23.2265 1909.54 -27.5747C1911.62 -23.2265 1913.86 -18.9762 1916.26 -14.8325C1947.05 38.3588 2003.55 74 2068.14 74C2131.34 74 2186.79 39.8808 2217.99 -11.4129C2220.41 -15.3837 2222.68 -19.4576 2224.8 -23.6264C2226.91 -19.4576 2229.18 -15.3837 2231.6 -11.4129C2262.81 39.8808 2318.25 74 2381.45 74C2478.99 74 2558.05 -7.26031 2558.05 -107.5C2558.05 -207.74 2478.99 -289 2381.45 -289C2318.25 -289 2262.81 -254.881 2231.6 -203.587C2229.18 -199.616 2226.91 -195.542 2224.8 -191.374C2222.68 -195.542 2220.41 -199.616 2217.99 -203.587C2186.79 -254.881 2131.34 -289 2068.14 -289C2003.55 -289 1947.05 -253.359 1916.26 -200.168C1913.86 -196.024 1911.62 -191.774 1909.54 -187.425C1907.46 -191.774 1905.22 -196.024 1902.82 -200.168C1872.03 -253.359 1815.53 -289 1750.94 -289C1687.74 -289 1632.29 -254.881 1601.09 -203.587C1598.67 -199.616 1596.4 -195.542 1594.28 -191.374C1592.17 -195.542 1589.9 -199.616 1587.48 -203.587C1556.27 -254.881 1500.83 -289 1437.63 -289C1373.03 -289 1316.54 -253.359 1285.75 -200.168C1283.35 -196.024 1281.11 -191.774 1279.03 -187.425C1276.95 -191.774 1274.71 -196.024 1272.31 -200.168C1241.51 -253.359 1185.02 -289 1120.43 -289C1057.23 -289 1001.78 -254.881 970.574 -203.587C968.158 -199.616 965.888 -195.542 963.77 -191.374C961.653 -195.542 959.382 -199.616 956.967 -203.587C925.762 -254.881 870.315 -289 807.115 -289C742.521 -289 686.026 -253.359 655.234 -200.168C652.835 -196.024 650.592 -191.774 648.514 -187.425C646.435 -191.774 644.193 -196.024 641.794 -200.168C611.002 -253.359 554.507 -289 489.913 -289C426.712 -289 371.266 -254.881 340.061 -203.587C337.645 -199.616 335.375 -195.542 333.257 -191.374C331.14 -195.542 328.869 -199.616 326.454 -203.587Z" fill="#FF7198"/>
<path fill-rule="evenodd" clip-rule="evenodd" d="M333.257 -48.6264C303.787 9.39365 244.695 49 176.602 49C79.0674 49 0 -32.2603 0 -132.5C0 -232.74 79.0674 -314 176.602 -314C244.695 -314 303.787 -274.394 333.257 -216.374C362.728 -274.394 421.82 -314 489.913 -314C559.539 -314 619.755 -272.589 648.514 -212.425C677.273 -272.589 737.489 -314 807.115 -314C875.208 -314 934.3 -274.394 963.77 -216.374C993.241 -274.394 1052.33 -314 1120.43 -314C1190.05 -314 1250.27 -272.589 1279.03 -212.425C1307.79 -272.589 1368 -314 1437.63 -314C1505.72 -314 1564.81 -274.394 1594.28 -216.374C1623.75 -274.394 1682.85 -314 1750.94 -314C1820.57 -314 1880.78 -272.589 1909.54 -212.425C1938.3 -272.589 1998.51 -314 2068.14 -314C2136.23 -314 2195.33 -274.394 2224.8 -216.374C2254.27 -274.394 2313.36 -314 2381.45 -314C2478.99 -314 2558.05 -232.74 2558.05 -132.5C2558.05 -32.2603 2478.99 49 2381.45 49C2313.36 49 2254.27 9.39365 2224.8 -48.6264C2195.33 9.39365 2136.23 49 2068.14 49C1998.51 49 1938.3 7.58939 1909.54 -52.5747C1880.78 7.58939 1820.57 49 1750.94 49C1682.85 49 1623.75 9.39365 1594.28 -48.6264C1564.81 9.39365 1505.72 49 1437.63 49C1368 49 1307.79 7.58939 1279.03 -52.5747C1250.27 7.58939 1190.05 49 1120.43 49C1052.33 49 993.241 9.39368 963.77 -48.6264C934.3 9.39368 875.208 49 807.115 49C737.489 49 677.273 7.58942 648.514 -52.5747C619.755 7.58942 559.539 49 489.913 49C421.82 49 362.728 9.39365 333.257 -48.6264Z" fill="#F0486B"/>
<path fill-rule="evenodd" clip-rule="evenodd" d="M333.257 -74.5577L343.608 -54.1796C371.145 0.0346069 426.338 37 489.913 37C554.919 37 611.163 -1.65076 638.034 -57.8659L648.514 -79.7897L658.994 -57.8659C685.865 -1.65076 742.109 37 807.115 37C870.69 37 925.882 0.0346069 953.42 -54.1796L963.77 -74.5576L974.121 -54.1796C1001.66 0.0346069 1056.85 37 1120.43 37C1185.43 37 1241.68 -1.65079 1268.55 -57.8659L1279.03 -79.7898L1289.51 -57.8659C1316.38 -1.65079 1372.62 37 1437.63 37C1501.2 37 1556.4 0.0346069 1583.93 -54.1796L1594.28 -74.5576L1604.63 -54.1796C1632.17 0.0346069 1687.36 37 1750.94 37C1815.94 37 1872.19 -1.65079 1899.06 -57.8659L1909.54 -79.7898L1920.02 -57.8659C1946.89 -1.65079 2003.14 37 2068.14 37C2131.72 37 2186.91 0.0346069 2214.45 -54.1795L2224.8 -74.5577L2235.15 -54.1795C2262.68 0.0346069 2317.88 37 2381.45 37C2472.54 37 2546.38 -38.8877 2546.38 -132.5C2546.38 -226.112 2472.54 -302 2381.45 -302C2317.88 -302 2262.68 -265.035 2235.15 -210.82L2224.8 -190.442L2214.45 -210.82C2186.91 -265.035 2131.72 -302 2068.14 -302C2003.14 -302 1946.89 -263.349 1920.02 -207.134L1909.54 -185.21L1899.06 -207.134C1872.19 -263.349 1815.94 -302 1750.94 -302C1687.36 -302 1632.17 -265.035 1604.63 -210.82L1594.28 -190.442L1583.93 -210.82C1556.4 -265.035 1501.2 -302 1437.63 -302C1372.62 -302 1316.38 -263.349 1289.51 -207.134L1279.03 -185.21L1268.55 -207.134C1241.68 -263.349 1185.43 -302 1120.43 -302C1056.85 -302 1001.66 -265.035 974.121 -210.82L963.77 -190.442L953.42 -210.82C925.882 -265.035 870.69 -302 807.115 -302C742.109 -302 685.865 -263.349 658.994 -207.134L648.514 -185.21L638.034 -207.134C611.163 -263.349 554.919 -302 489.913 -302C426.338 -302 371.145 -265.035 343.608 -210.82L333.257 -190.442L322.907 -210.82C295.369 -265.035 240.176 -302 176.602 -302C85.516 -302 11.6762 -226.112 11.6762 -132.5C11.6762 -38.8877 85.516 37 176.602 37C240.176 37 295.369 0.0346069 322.907 -54.1796L333.257 -74.5577ZM326.454 -228.587C295.249 -279.881 239.802 -314 176.602 -314C79.0674 -314 0 -232.74 0 -132.5C0 -32.2603 79.0674 49 176.602 49C239.802 49 295.249 14.8808 326.454 -36.4128C328.869 -40.3837 331.14 -44.4576 333.257 -48.6264C335.375 -44.4576 337.645 -40.3837 340.061 -36.4128C371.266 14.8808 426.712 49 489.913 49C554.507 49 611.002 13.3588 641.794 -39.8324C644.193 -43.9762 646.435 -48.2264 648.514 -52.5747C650.592 -48.2264 652.835 -43.9762 655.234 -39.8324C686.026 13.3588 742.521 49 807.115 49C870.315 49 925.762 14.8808 956.967 -36.4129C959.382 -40.3838 961.653 -44.4576 963.77 -48.6264C965.888 -44.4576 968.158 -40.3837 970.574 -36.4128C1001.78 14.8808 1057.23 49 1120.43 49C1185.02 49 1241.51 13.3588 1272.31 -39.8325C1274.71 -43.9762 1276.95 -48.2265 1279.03 -52.5747C1281.11 -48.2265 1283.35 -43.9762 1285.75 -39.8325C1316.54 13.3588 1373.03 49 1437.63 49C1500.83 49 1556.27 14.8808 1587.48 -36.4128C1589.9 -40.3837 1592.17 -44.4575 1594.28 -48.6264C1596.4 -44.4575 1598.67 -40.3837 1601.09 -36.4128C1632.29 14.8808 1687.74 49 1750.94 49C1815.53 49 1872.03 13.3588 1902.82 -39.8325C1905.22 -43.9762 1907.46 -48.2265 1909.54 -52.5747C1911.62 -48.2265 1913.86 -43.9762 1916.26 -39.8325C1947.05 13.3588 2003.55 49 2068.14 49C2131.34 49 2186.79 14.8808 2217.99 -36.4129C2220.41 -40.3837 2222.68 -44.4576 2224.8 -48.6264C2226.91 -44.4576 2229.18 -40.3837 2231.6 -36.4129C2262.81 14.8808 2318.25 49 2381.45 49C2478.99 49 2558.05 -32.2603 2558.05 -132.5C2558.05 -232.74 2478.99 -314 2381.45 -314C2318.25 -314 2262.81 -279.881 2231.6 -228.587C2229.18 -224.616 2226.91 -220.542 2224.8 -216.374C2222.68 -220.542 2220.41 -224.616 2217.99 -228.587C2186.79 -279.881 2131.34 -314 2068.14 -314C2003.55 -314 1947.05 -278.359 1916.26 -225.168C1913.86 -221.024 1911.62 -216.774 1909.54 -212.425C1907.46 -216.774 1905.22 -221.024 1902.82 -225.168C1872.03 -278.359 1815.53 -314 1750.94 -314C1687.74 -314 1632.29 -279.881 1601.09 -228.587C1598.67 -224.616 1596.4 -220.542 1594.28 -216.374C1592.17 -220.542 1589.9 -224.616 1587.48 -228.587C1556.27 -279.881 1500.83 -314 1437.63 -314C1373.03 -314 1316.54 -278.359 1285.75 -225.168C1283.35 -221.024 1281.11 -216.774 1279.03 -212.425C1276.95 -216.774 1274.71 -221.024 1272.31 -225.168C1241.51 -278.359 1185.02 -314 1120.43 -314C1057.23 -314 1001.78 -279.881 970.574 -228.587C968.158 -224.616 965.888 -220.542 963.77 -216.374C961.653 -220.542 959.382 -224.616 956.967 -228.587C925.762 -279.881 870.315 -314 807.115 -314C742.521 -314 686.026 -278.359 655.234 -225.168C652.835 -221.024 650.592 -216.774 648.514 -212.425C646.435 -216.774 644.193 -221.024 641.794 -225.168C611.002 -278.359 554.507 -314 489.913 -314C426.712 -314 371.266 -279.881 340.061 -228.587C337.645 -224.616 335.375 -220.542 333.257 -216.374C331.14 -220.542 328.869 -224.616 326.454 -228.587Z" fill="#C4010E"/>
<path fill-rule="evenodd" clip-rule="evenodd" d="M333.257 -75.6264C303.787 -17.6064 244.695 22 176.602 22C79.0674 22 0 -59.2603 0 -159.5C0 -259.74 79.0674 -341 176.602 -341C244.695 -341 303.787 -301.394 333.257 -243.374C362.728 -301.394 421.82 -341 489.913 -341C559.539 -341 619.755 -299.589 648.514 -239.425C677.273 -299.589 737.489 -341 807.115 -341C875.208 -341 934.3 -301.394 963.77 -243.374C993.241 -301.394 1052.33 -341 1120.43 -341C1190.05 -341 1250.27 -299.589 1279.03 -239.425C1307.79 -299.589 1368 -341 1437.63 -341C1505.72 -341 1564.81 -301.394 1594.28 -243.374C1623.75 -301.394 1682.85 -341 1750.94 -341C1820.57 -341 1880.78 -299.589 1909.54 -239.425C1938.3 -299.589 1998.51 -341 2068.14 -341C2136.23 -341 2195.33 -301.394 2224.8 -243.374C2254.27 -301.394 2313.36 -341 2381.45 -341C2478.99 -341 2558.05 -259.74 2558.05 -159.5C2558.05 -59.2603 2478.99 22 2381.45 22C2313.36 22 2254.27 -17.6064 2224.8 -75.6264C2195.33 -17.6064 2136.23 22 2068.14 22C1998.51 22 1938.3 -19.4106 1909.54 -79.5747C1880.78 -19.4106 1820.57 22 1750.94 22C1682.85 22 1623.75 -17.6064 1594.28 -75.6264C1564.81 -17.6064 1505.72 22 1437.63 22C1368 22 1307.79 -19.4106 1279.03 -79.5747C1250.27 -19.4106 1190.05 22 1120.43 22C1052.33 22 993.241 -17.6063 963.77 -75.6264C934.3 -17.6063 875.208 22 807.115 22C737.489 22 677.273 -19.4106 648.514 -79.5747C619.755 -19.4106 559.539 22 489.913 22C421.82 22 362.728 -17.6064 333.257 -75.6264Z" fill="#F0486B"/>
<path fill-rule="evenodd" clip-rule="evenodd" d="M333.257 -101.558L343.608 -81.1796C371.145 -26.9654 426.338 10 489.913 10C554.919 10 611.163 -28.6508 638.034 -84.8659L648.514 -106.79L658.994 -84.8659C685.865 -28.6508 742.109 10 807.115 10C870.69 10 925.882 -26.9654 953.42 -81.1796L963.77 -101.558L974.121 -81.1796C1001.66 -26.9654 1056.85 10 1120.43 10C1185.43 10 1241.68 -28.6508 1268.55 -84.8659L1279.03 -106.79L1289.51 -84.8659C1316.38 -28.6508 1372.62 10 1437.63 10C1501.2 10 1556.4 -26.9654 1583.93 -81.1796L1594.28 -101.558L1604.63 -81.1796C1632.17 -26.9654 1687.36 10 1750.94 10C1815.94 10 1872.19 -28.6508 1899.06 -84.8659L1909.54 -106.79L1920.02 -84.8659C1946.89 -28.6508 2003.14 10 2068.14 10C2131.72 10 2186.91 -26.9654 2214.45 -81.1795L2224.8 -101.558L2235.15 -81.1795C2262.68 -26.9654 2317.88 10 2381.45 10C2472.54 10 2546.38 -65.8877 2546.38 -159.5C2546.38 -253.112 2472.54 -329 2381.45 -329C2317.88 -329 2262.68 -292.035 2235.15 -237.82L2224.8 -217.442L2214.45 -237.82C2186.91 -292.035 2131.72 -329 2068.14 -329C2003.14 -329 1946.89 -290.349 1920.02 -234.134L1909.54 -212.21L1899.06 -234.134C1872.19 -290.349 1815.94 -329 1750.94 -329C1687.36 -329 1632.17 -292.035 1604.63 -237.82L1594.28 -217.442L1583.93 -237.82C1556.4 -292.035 1501.2 -329 1437.63 -329C1372.62 -329 1316.38 -290.349 1289.51 -234.134L1279.03 -212.21L1268.55 -234.134C1241.68 -290.349 1185.43 -329 1120.43 -329C1056.85 -329 1001.66 -292.035 974.121 -237.82L963.77 -217.442L953.42 -237.82C925.882 -292.035 870.69 -329 807.115 -329C742.109 -329 685.865 -290.349 658.994 -234.134L648.514 -212.21L638.034 -234.134C611.163 -290.349 554.919 -329 489.913 -329C426.338 -329 371.145 -292.035 343.608 -237.82L333.257 -217.442L322.907 -237.82C295.369 -292.035 240.176 -329 176.602 -329C85.516 -329 11.6762 -253.112 11.6762 -159.5C11.6762 -65.8877 85.516 10 176.602 10C240.176 10 295.369 -26.9654 322.907 -81.1796L333.257 -101.558ZM326.454 -255.587C295.249 -306.881 239.802 -341 176.602 -341C79.0674 -341 0 -259.74 0 -159.5C0 -59.2603 79.0674 22 176.602 22C239.802 22 295.249 -12.1192 326.454 -63.4128C328.869 -67.3837 331.14 -71.4576 333.257 -75.6264C335.375 -71.4576 337.645 -67.3837 340.061 -63.4128C371.266 -12.1192 426.712 22 489.913 22C554.507 22 611.002 -13.6412 641.794 -66.8324C644.193 -70.9762 646.435 -75.2264 648.514 -79.5747C650.592 -75.2264 652.835 -70.9762 655.234 -66.8324C686.026 -13.6412 742.521 22 807.115 22C870.315 22 925.762 -12.1192 956.967 -63.4129C959.382 -67.3838 961.653 -71.4576 963.77 -75.6264C965.888 -71.4576 968.158 -67.3837 970.574 -63.4128C1001.78 -12.1192 1057.23 22 1120.43 22C1185.02 22 1241.51 -13.6412 1272.31 -66.8325C1274.71 -70.9762 1276.95 -75.2265 1279.03 -79.5747C1281.11 -75.2265 1283.35 -70.9762 1285.75 -66.8325C1316.54 -13.6412 1373.03 22 1437.63 22C1500.83 22 1556.27 -12.1192 1587.48 -63.4128C1589.9 -67.3837 1592.17 -71.4575 1594.28 -75.6264C1596.4 -71.4575 1598.67 -67.3837 1601.09 -63.4128C1632.29 -12.1192 1687.74 22 1750.94 22C1815.53 22 1872.03 -13.6412 1902.82 -66.8325C1905.22 -70.9762 1907.46 -75.2265 1909.54 -79.5747C1911.62 -75.2265 1913.86 -70.9762 1916.26 -66.8325C1947.05 -13.6412 2003.55 22 2068.14 22C2131.34 22 2186.79 -12.1192 2217.99 -63.4129C2220.41 -67.3837 2222.68 -71.4576 2224.8 -75.6264C2226.91 -71.4576 2229.18 -67.3837 2231.6 -63.4129C2262.81 -12.1192 2318.25 22 2381.45 22C2478.99 22 2558.05 -59.2603 2558.05 -159.5C2558.05 -259.74 2478.99 -341 2381.45 -341C2318.25 -341 2262.81 -306.881 2231.6 -255.587C2229.18 -251.616 2226.91 -247.542 2224.8 -243.374C2222.68 -247.542 2220.41 -251.616 2217.99 -255.587C2186.79 -306.881 2131.34 -341 2068.14 -341C2003.55 -341 1947.05 -305.359 1916.26 -252.168C1913.86 -248.024 1911.62 -243.774 1909.54 -239.425C1907.46 -243.774 1905.22 -248.024 1902.82 -252.168C1872.03 -305.359 1815.53 -341 1750.94 -341C1687.74 -341 1632.29 -306.881 1601.09 -255.587C1598.67 -251.616 1596.4 -247.542 1594.28 -243.374C1592.17 -247.542 1589.9 -251.616 1587.48 -255.587C1556.27 -306.881 1500.83 -341 1437.63 -341C1373.03 -341 1316.54 -305.359 1285.75 -252.168C1283.35 -248.024 1281.11 -243.774 1279.03 -239.425C1276.95 -243.774 1274.71 -248.024 1272.31 -252.168C1241.51 -305.359 1185.02 -341 1120.43 -341C1057.23 -341 1001.78 -306.881 970.574 -255.587C968.158 -251.616 965.888 -247.542 963.77 -243.374C961.653 -247.542 959.382 -251.616 956.967 -255.587C925.762 -306.881 870.315 -341 807.115 -341C742.521 -341 686.026 -305.359 655.234 -252.168C652.835 -248.024 650.592 -243.774 648.514 -239.425C646.435 -243.774 644.193 -248.024 641.794 -252.168C611.002 -305.359 554.507 -341 489.913 -341C426.712 -341 371.266 -306.881 340.061 -255.587C337.645 -251.616 335.375 -247.542 333.257 -243.374C331.14 -247.542 328.869 -251.616 326.454 -255.587Z" fill="#FF7198"/>
</g>
</svg>
