<svg width="2559" height="325" viewBox="0 0 2559 325" fill="none" xmlns="http://www.w3.org/2000/svg">
<path fill-rule="evenodd" clip-rule="evenodd" d="M87.6417 141.185V320H0V141.185V141.017H0.000416354C0.10443 120.005 19.6836 103 43.8208 103C67.958 103 87.5372 120.005 87.6413 141.017H87.6417V141.185Z" fill="#BFBF29"/>
<mask id="mask0_16_719" style="mask-type:alpha" maskUnits="userSpaceOnUse" x="0" y="103" width="88" height="217">
<path fill-rule="evenodd" clip-rule="evenodd" d="M87.6417 141.185V320H0V141.185V141.017H0.000416354C0.10443 120.005 19.6836 103 43.8208 103C67.958 103 87.5372 120.005 87.6413 141.017H87.6417V141.185Z" fill="#BFBF29"/>
</mask>
<g mask="url(#mask0_16_719)">
<path d="M17.1252 105H44.3244V317H17.1252V105Z" fill="#D4D440"/>
<path d="M60.4426 106H87.6418V318H60.4426V106Z" fill="#AEAE1A"/>
</g>
<path fill-rule="evenodd" clip-rule="evenodd" d="M87.6413 141.017C87.5372 120.005 67.958 103 43.8208 103C19.6836 103 0.10443 120.005 0.000416354 141.017L0 320H87.6417L87.6413 141.017ZM81.6417 141.116L81.6413 141.047C81.5573 124.079 65.4508 109 43.8208 109C22.1909 109 6.08434 124.079 6.00034 141.047L6 141.116V314H81.6417V141.116Z" fill="#ADA51B"/>
<path fill-rule="evenodd" clip-rule="evenodd" d="M171.254 146.185V325H83.6121V146.185V146.017H83.6125C83.7165 125.005 103.296 108 127.433 108C151.57 108 171.149 125.005 171.253 146.017H171.254V146.185Z" fill="#BFBF29"/>
<mask id="mask1_16_719" style="mask-type:alpha" maskUnits="userSpaceOnUse" x="83" y="108" width="89" height="217">
<path fill-rule="evenodd" clip-rule="evenodd" d="M171.254 146.185V325H83.6121V146.185V146.017H83.6125C83.7165 125.005 103.296 108 127.433 108C151.57 108 171.149 125.005 171.253 146.017H171.254V146.185Z" fill="#BFBF29"/>
</mask>
<g mask="url(#mask1_16_719)">
<path d="M100.738 110H127.937V322H100.738V110Z" fill="#D4D440"/>
<path d="M144.055 111H171.254V323H144.055V111Z" fill="#AEAE1A"/>
</g>
<path fill-rule="evenodd" clip-rule="evenodd" d="M171.253 146.017C171.149 125.005 151.57 108 127.433 108C103.296 108 83.7165 125.005 83.6125 146.017L83.6121 325H171.254L171.253 146.017ZM165.254 146.116L165.253 146.047C165.169 129.079 149.063 114 127.433 114C105.803 114 89.6964 129.079 89.6124 146.047L89.6121 146.116V319H165.254V146.116Z" fill="#ADA51B"/>
<path fill-rule="evenodd" clip-rule="evenodd" d="M255.873 120.185V299H168.232V120.185V120.017H168.232C168.336 99.0053 187.915 82 212.053 82C236.19 82 255.769 99.0053 255.873 120.017H255.873V120.185Z" fill="#BFBF29"/>
<mask id="mask2_16_719" style="mask-type:alpha" maskUnits="userSpaceOnUse" x="168" y="82" width="88" height="217">
<path fill-rule="evenodd" clip-rule="evenodd" d="M255.873 120.185V299H168.232V120.185V120.017H168.232C168.336 99.0053 187.915 82 212.053 82C236.19 82 255.769 99.0053 255.873 120.017H255.873V120.185Z" fill="#BFBF29"/>
</mask>
<g mask="url(#mask2_16_719)">
<path d="M185.357 84H212.556V296H185.357V84Z" fill="#D4D440"/>
<path d="M228.674 85H255.873V297H228.674V85Z" fill="#AEAE1A"/>
</g>
<path fill-rule="evenodd" clip-rule="evenodd" d="M255.873 120.017C255.769 99.0053 236.19 82 212.053 82C187.915 82 168.336 99.0053 168.232 120.017L168.232 299H255.873L255.873 120.017ZM249.873 120.116L249.873 120.047C249.789 103.079 233.682 88 212.053 88C190.423 88 174.316 103.079 174.232 120.047L174.232 120.116V293H249.873V120.116Z" fill="#ADA51B"/>
<path fill-rule="evenodd" clip-rule="evenodd" d="M337.471 177.185V356H249.829V177.185V177.017H249.83C249.934 156.005 269.513 139 293.65 139C317.787 139 337.367 156.005 337.471 177.017H337.471V177.185Z" fill="#BFBF29"/>
<mask id="mask3_16_719" style="mask-type:alpha" maskUnits="userSpaceOnUse" x="249" y="139" width="89" height="217">
<path fill-rule="evenodd" clip-rule="evenodd" d="M337.471 177.185V356H249.829V177.185V177.017H249.83C249.934 156.005 269.513 139 293.65 139C317.787 139 337.367 156.005 337.471 177.017H337.471V177.185Z" fill="#BFBF29"/>
</mask>
<g mask="url(#mask3_16_719)">
<path d="M266.955 141H294.154V353H266.955V141Z" fill="#D4D440"/>
<path d="M310.272 142H337.471V354H310.272V142Z" fill="#AEAE1A"/>
</g>
<path fill-rule="evenodd" clip-rule="evenodd" d="M337.471 177.017C337.367 156.005 317.787 139 293.65 139C269.513 139 249.934 156.005 249.83 177.017L249.829 356H337.471L337.471 177.017ZM331.471 177.116L331.471 177.047C331.387 160.079 315.28 145 293.65 145C272.02 145 255.914 160.079 255.83 177.047L255.829 177.116V350H331.471V177.116Z" fill="#ADA51B"/>
<path fill-rule="evenodd" clip-rule="evenodd" d="M418.061 145.185V324H330.419V145.185V145.017H330.42C330.524 124.005 350.103 107 374.24 107C398.377 107 417.956 124.005 418.06 145.017H418.061V145.185Z" fill="#BFBF29"/>
<mask id="mask4_16_719" style="mask-type:alpha" maskUnits="userSpaceOnUse" x="330" y="107" width="89" height="217">
<path fill-rule="evenodd" clip-rule="evenodd" d="M418.061 145.185V324H330.419V145.185V145.017H330.42C330.524 124.005 350.103 107 374.24 107C398.377 107 417.956 124.005 418.06 145.017H418.061V145.185Z" fill="#BFBF29"/>
</mask>
<g mask="url(#mask4_16_719)">
<path d="M347.545 109H374.744V321H347.545V109Z" fill="#D4D440"/>
<path d="M390.862 110H418.061V322H390.862V110Z" fill="#AEAE1A"/>
</g>
<path fill-rule="evenodd" clip-rule="evenodd" d="M418.06 145.017C417.956 124.005 398.377 107 374.24 107C350.103 107 330.524 124.005 330.42 145.017L330.419 324H418.061L418.06 145.017ZM412.061 145.116L412.061 145.047C411.977 128.079 395.87 113 374.24 113C352.61 113 336.504 128.079 336.42 145.047L336.419 145.116V318H412.061V145.116Z" fill="#ADA51B"/>
<path fill-rule="evenodd" clip-rule="evenodd" d="M486.562 116.185V295H398.921V116.185V116.017H398.921C399.025 95.0053 418.604 78 442.741 78C466.879 78 486.458 95.0053 486.562 116.017H486.562V116.185Z" fill="#BFBF29"/>
<mask id="mask5_16_719" style="mask-type:alpha" maskUnits="userSpaceOnUse" x="398" y="78" width="89" height="217">
<path fill-rule="evenodd" clip-rule="evenodd" d="M486.562 116.185V295H398.921V116.185V116.017H398.921C399.025 95.0053 418.604 78 442.741 78C466.879 78 486.458 95.0053 486.562 116.017H486.562V116.185Z" fill="#BFBF29"/>
</mask>
<g mask="url(#mask5_16_719)">
<path d="M416.046 80H443.245V292H416.046V80Z" fill="#D4D440"/>
<path d="M459.363 81H486.563V293H459.363V81Z" fill="#AEAE1A"/>
</g>
<path fill-rule="evenodd" clip-rule="evenodd" d="M486.562 116.017C486.458 95.0053 466.879 78 442.741 78C418.604 78 399.025 95.0053 398.921 116.017L398.921 295H486.562L486.562 116.017ZM480.562 116.116L480.562 116.047C480.478 99.0792 464.371 84 442.741 84C421.112 84 405.005 99.0792 404.921 116.047L404.921 116.116V289H480.562V116.116Z" fill="#ADA51B"/>
<path fill-rule="evenodd" clip-rule="evenodd" d="M545.642 39.1853V218H458V39.1853V39.017H458C458.104 18.0053 477.684 1 501.821 1C525.958 1 545.537 18.0053 545.641 39.017H545.642V39.1853Z" fill="#BFBF29"/>
<mask id="mask6_16_719" style="mask-type:alpha" maskUnits="userSpaceOnUse" x="458" y="1" width="88" height="217">
<path fill-rule="evenodd" clip-rule="evenodd" d="M545.642 39.1853V218H458V39.1853V39.017H458C458.104 18.0053 477.684 1 501.821 1C525.958 1 545.537 18.0053 545.641 39.017H545.642V39.1853Z" fill="#BFBF29"/>
</mask>
<g mask="url(#mask6_16_719)">
<path d="M475.125 3H502.325V215H475.125V3Z" fill="#D4D440"/>
<path d="M518.443 4H545.642V216H518.443V4Z" fill="#AEAE1A"/>
</g>
<path fill-rule="evenodd" clip-rule="evenodd" d="M545.641 39.017C545.537 18.0053 525.958 1 501.821 1C477.684 1 458.104 18.0053 458 39.017L458 218H545.642L545.641 39.017ZM539.642 39.1161L539.641 39.0467C539.557 22.0792 523.451 7 501.821 7C480.191 7 464.084 22.0792 464 39.0467L464 39.116V212H539.642V39.1161Z" fill="#ADA51B"/>
<path fill-rule="evenodd" clip-rule="evenodd" d="M582.915 104.185V283H495.273V104.185V104.017H495.273C495.377 83.0053 514.957 66 539.094 66C563.231 66 582.81 83.0053 582.914 104.017H582.915V104.185Z" fill="#BFBF29"/>
<mask id="mask7_16_719" style="mask-type:alpha" maskUnits="userSpaceOnUse" x="495" y="66" width="88" height="217">
<path fill-rule="evenodd" clip-rule="evenodd" d="M582.915 104.185V283H495.273V104.185V104.017H495.273C495.377 83.0053 514.957 66 539.094 66C563.231 66 582.81 83.0053 582.914 104.017H582.915V104.185Z" fill="#BFBF29"/>
</mask>
<g mask="url(#mask7_16_719)">
<path d="M512.398 68H539.598V280H512.398V68Z" fill="#D4D440"/>
<path d="M555.716 69H582.915V281H555.716V69Z" fill="#AEAE1A"/>
</g>
<path fill-rule="evenodd" clip-rule="evenodd" d="M582.914 104.017C582.81 83.0053 563.231 66 539.094 66C514.957 66 495.377 83.0053 495.273 104.017L495.273 283H582.915L582.914 104.017ZM576.915 104.116L576.914 104.047C576.83 87.0792 560.724 72 539.094 72C517.464 72 501.357 87.0792 501.273 104.047L501.273 104.116V277H576.915V104.116Z" fill="#ADA51B"/>
<path fill-rule="evenodd" clip-rule="evenodd" d="M633.283 72.1853V251H545.642V72.1853V72.017H545.642C545.746 51.0053 565.325 34 589.462 34C613.6 34 633.179 51.0053 633.283 72.017H633.283V72.1853Z" fill="#BFBF29"/>
<mask id="mask8_16_719" style="mask-type:alpha" maskUnits="userSpaceOnUse" x="545" y="34" width="89" height="217">
<path fill-rule="evenodd" clip-rule="evenodd" d="M633.283 72.1853V251H545.642V72.1853V72.017H545.642C545.746 51.0053 565.325 34 589.462 34C613.6 34 633.179 51.0053 633.283 72.017H633.283V72.1853Z" fill="#BFBF29"/>
</mask>
<g mask="url(#mask8_16_719)">
<path d="M562.767 36H589.966V248H562.767V36Z" fill="#D4D440"/>
<path d="M606.084 37H633.283V249H606.084V37Z" fill="#AEAE1A"/>
</g>
<path fill-rule="evenodd" clip-rule="evenodd" d="M633.283 72.017C633.179 51.0053 613.6 34 589.462 34C565.325 34 545.746 51.0053 545.642 72.017L545.642 251H633.283L633.283 72.017ZM627.283 72.1161L627.283 72.0467C627.199 55.0792 611.092 40 589.462 40C567.833 40 551.726 55.0792 551.642 72.0467L551.642 72.116V245H627.283V72.1161Z" fill="#ADA51B"/>
<path fill-rule="evenodd" clip-rule="evenodd" d="M711.859 39.1853V218H624.217V39.1853V39.017H624.217C624.321 18.0053 643.901 1 668.038 1C692.175 1 711.754 18.0053 711.858 39.017H711.859V39.1853Z" fill="#BFBF29"/>
<mask id="mask9_16_719" style="mask-type:alpha" maskUnits="userSpaceOnUse" x="624" y="1" width="88" height="217">
<path fill-rule="evenodd" clip-rule="evenodd" d="M711.859 39.1853V218H624.217V39.1853V39.017H624.217C624.321 18.0053 643.901 1 668.038 1C692.175 1 711.754 18.0053 711.858 39.017H711.859V39.1853Z" fill="#BFBF29"/>
</mask>
<g mask="url(#mask9_16_719)">
<path d="M641.342 3H668.541V215H641.342V3Z" fill="#D4D440"/>
<path d="M684.659 4H711.859V216H684.659V4Z" fill="#AEAE1A"/>
</g>
<path fill-rule="evenodd" clip-rule="evenodd" d="M711.858 39.017C711.754 18.0053 692.175 1 668.038 1C643.901 1 624.321 18.0053 624.217 39.017L624.217 218H711.859L711.858 39.017ZM705.859 39.1161L705.858 39.0467C705.774 22.0792 689.668 7 668.038 7C646.408 7 630.301 22.0792 630.217 39.0467L630.217 39.116V212H705.859V39.1161Z" fill="#ADA51B"/>
<path fill-rule="evenodd" clip-rule="evenodd" d="M755.176 94.1853V273H667.534V94.1853V94.017H667.535C667.639 73.0053 687.218 56 711.355 56C735.492 56 755.071 73.0053 755.175 94.017H755.176V94.1853Z" fill="#BFBF29"/>
<mask id="mask10_16_719" style="mask-type:alpha" maskUnits="userSpaceOnUse" x="667" y="56" width="89" height="217">
<path fill-rule="evenodd" clip-rule="evenodd" d="M755.176 94.1853V273H667.534V94.1853V94.017H667.535C667.639 73.0053 687.218 56 711.355 56C735.492 56 755.071 73.0053 755.175 94.017H755.176V94.1853Z" fill="#BFBF29"/>
</mask>
<g mask="url(#mask10_16_719)">
<path d="M684.659 58H711.859V270H684.659V58Z" fill="#D4D440"/>
<path d="M727.977 59H755.176V271H727.977V59Z" fill="#AEAE1A"/>
</g>
<path fill-rule="evenodd" clip-rule="evenodd" d="M755.175 94.017C755.071 73.0053 735.492 56 711.355 56C687.218 56 667.639 73.0053 667.535 94.017L667.534 273H755.176L755.175 94.017ZM749.176 94.1161L749.176 94.0467C749.092 77.0792 732.985 62 711.355 62C689.725 62 673.619 77.0792 673.535 94.0467L673.534 94.116V267H749.176V94.1161Z" fill="#ADA51B"/>
<path fill-rule="evenodd" clip-rule="evenodd" d="M817.633 133.185V312H729.991V133.185V133.017H729.992C730.096 112.005 749.675 95 773.812 95C797.949 95 817.529 112.005 817.633 133.017H817.633V133.185Z" fill="#BFBF29"/>
<mask id="mask11_16_719" style="mask-type:alpha" maskUnits="userSpaceOnUse" x="729" y="95" width="89" height="217">
<path fill-rule="evenodd" clip-rule="evenodd" d="M817.633 133.185V312H729.991V133.185V133.017H729.992C730.096 112.005 749.675 95 773.812 95C797.949 95 817.529 112.005 817.633 133.017H817.633V133.185Z" fill="#BFBF29"/>
</mask>
<g mask="url(#mask11_16_719)">
<path d="M747.117 97H774.316V309H747.117V97Z" fill="#D4D440"/>
<path d="M790.434 98H817.633V310H790.434V98Z" fill="#AEAE1A"/>
</g>
<path fill-rule="evenodd" clip-rule="evenodd" d="M817.633 133.017C817.529 112.005 797.949 95 773.812 95C749.675 95 730.096 112.005 729.992 133.017L729.991 312H817.633L817.633 133.017ZM811.633 133.116L811.633 133.047C811.549 116.079 795.442 101 773.812 101C752.182 101 736.076 116.079 735.992 133.047L735.991 133.116V306H811.633V133.116Z" fill="#ADA51B"/>
<path fill-rule="evenodd" clip-rule="evenodd" d="M884.12 161.185V340H796.478V161.185V161.017H796.479C796.583 140.005 816.162 123 840.299 123C864.436 123 884.015 140.005 884.119 161.017H884.12V161.185Z" fill="#BFBF29"/>
<mask id="mask12_16_719" style="mask-type:alpha" maskUnits="userSpaceOnUse" x="796" y="123" width="89" height="217">
<path fill-rule="evenodd" clip-rule="evenodd" d="M884.12 161.185V340H796.478V161.185V161.017H796.479C796.583 140.005 816.162 123 840.299 123C864.436 123 884.015 140.005 884.119 161.017H884.12V161.185Z" fill="#BFBF29"/>
</mask>
<g mask="url(#mask12_16_719)">
<path d="M813.604 125H840.803V337H813.604V125Z" fill="#D4D440"/>
<path d="M856.921 126H884.12V338H856.921V126Z" fill="#AEAE1A"/>
</g>
<path fill-rule="evenodd" clip-rule="evenodd" d="M884.119 161.017C884.015 140.005 864.436 123 840.299 123C816.162 123 796.583 140.005 796.479 161.017L796.478 340H884.12L884.119 161.017ZM878.12 161.116L878.119 161.047C878.035 144.079 861.929 129 840.299 129C818.669 129 802.562 144.079 802.478 161.047L802.478 161.116V334H878.12V161.116Z" fill="#ADA51B"/>
<path fill-rule="evenodd" clip-rule="evenodd" d="M949.599 117.185V296H861.958V117.185V117.017H861.958C862.062 96.0053 881.641 79 905.778 79C929.916 79 949.495 96.0053 949.599 117.017H949.599V117.185Z" fill="#BFBF29"/>
<mask id="mask13_16_719" style="mask-type:alpha" maskUnits="userSpaceOnUse" x="861" y="79" width="89" height="217">
<path fill-rule="evenodd" clip-rule="evenodd" d="M949.599 117.185V296H861.958V117.185V117.017H861.958C862.062 96.0053 881.641 79 905.778 79C929.916 79 949.495 96.0053 949.599 117.017H949.599V117.185Z" fill="#BFBF29"/>
</mask>
<g mask="url(#mask13_16_719)">
<path d="M879.083 81H906.282V293H879.083V81Z" fill="#D4D440"/>
<path d="M922.4 82H949.599V294H922.4V82Z" fill="#AEAE1A"/>
</g>
<path fill-rule="evenodd" clip-rule="evenodd" d="M949.599 117.017C949.495 96.0053 929.916 79 905.778 79C881.641 79 862.062 96.0053 861.958 117.017L861.958 296H949.599L949.599 117.017ZM943.599 117.116L943.599 117.047C943.515 100.079 927.408 85 905.778 85C884.148 85 868.042 100.079 867.958 117.047L867.958 117.116V290H943.599V117.116Z" fill="#ADA51B"/>
<path fill-rule="evenodd" clip-rule="evenodd" d="M993.924 154.185V333H906.282V154.185V154.017H906.283C906.387 133.005 925.966 116 950.103 116C974.24 116 993.819 133.005 993.923 154.017H993.924V154.185Z" fill="#BFBF29"/>
<mask id="mask14_16_719" style="mask-type:alpha" maskUnits="userSpaceOnUse" x="906" y="116" width="88" height="217">
<path fill-rule="evenodd" clip-rule="evenodd" d="M993.924 154.185V333H906.282V154.185V154.017H906.283C906.387 133.005 925.966 116 950.103 116C974.24 116 993.819 133.005 993.923 154.017H993.924V154.185Z" fill="#BFBF29"/>
</mask>
<g mask="url(#mask14_16_719)">
<path d="M923.408 118H950.607V330H923.408V118Z" fill="#D4D440"/>
<path d="M966.725 119H993.924V331H966.725V119Z" fill="#AEAE1A"/>
</g>
<path fill-rule="evenodd" clip-rule="evenodd" d="M993.923 154.017C993.819 133.005 974.24 116 950.103 116C925.966 116 906.387 133.005 906.283 154.017L906.282 333H993.924L993.923 154.017ZM987.924 154.116L987.924 154.047C987.84 137.079 971.733 122 950.103 122C928.473 122 912.367 137.079 912.283 154.047L912.282 154.116V327H987.924V154.116Z" fill="#ADA51B"/>
<path fill-rule="evenodd" clip-rule="evenodd" d="M1037.24 89.1853V268H949.599V89.1853V89.017H949.6C949.704 68.0053 969.283 51 993.42 51C1017.56 51 1037.14 68.0053 1037.24 89.017H1037.24V89.1853Z" fill="#BFBF29"/>
<mask id="mask15_16_719" style="mask-type:alpha" maskUnits="userSpaceOnUse" x="949" y="51" width="89" height="217">
<path fill-rule="evenodd" clip-rule="evenodd" d="M1037.24 89.1853V268H949.599V89.1853V89.017H949.6C949.704 68.0053 969.283 51 993.42 51C1017.56 51 1037.14 68.0053 1037.24 89.017H1037.24V89.1853Z" fill="#BFBF29"/>
</mask>
<g mask="url(#mask15_16_719)">
<path d="M966.725 53H993.924V265H966.725V53Z" fill="#D4D440"/>
<path d="M1010.04 54H1037.24V266H1010.04V54Z" fill="#AEAE1A"/>
</g>
<path fill-rule="evenodd" clip-rule="evenodd" d="M1037.24 89.017C1037.14 68.0053 1017.56 51 993.42 51C969.283 51 949.704 68.0053 949.6 89.017L949.599 268H1037.24L1037.24 89.017ZM1031.24 89.1161L1031.24 89.0467C1031.16 72.0792 1015.05 57 993.42 57C971.79 57 955.683 72.0792 955.599 89.0467L955.599 89.116V262H1031.24V89.1161Z" fill="#ADA51B"/>
<path fill-rule="evenodd" clip-rule="evenodd" d="M1117.83 145.185V324H1030.19V145.185V145.017H1030.19C1030.29 124.005 1049.87 107 1074.01 107C1098.15 107 1117.73 124.005 1117.83 145.017H1117.83V145.185Z" fill="#BFBF29"/>
<mask id="mask16_16_719" style="mask-type:alpha" maskUnits="userSpaceOnUse" x="1030" y="107" width="88" height="217">
<path fill-rule="evenodd" clip-rule="evenodd" d="M1117.83 145.185V324H1030.19V145.185V145.017H1030.19C1030.29 124.005 1049.87 107 1074.01 107C1098.15 107 1117.73 124.005 1117.83 145.017H1117.83V145.185Z" fill="#BFBF29"/>
</mask>
<g mask="url(#mask16_16_719)">
<path d="M1047.31 109H1074.51V321H1047.31V109Z" fill="#D4D440"/>
<path d="M1090.63 110H1117.83V322H1090.63V110Z" fill="#AEAE1A"/>
</g>
<path fill-rule="evenodd" clip-rule="evenodd" d="M1117.83 145.017C1117.73 124.005 1098.15 107 1074.01 107C1049.87 107 1030.29 124.005 1030.19 145.017L1030.19 324H1117.83L1117.83 145.017ZM1111.83 145.116L1111.83 145.047C1111.75 128.079 1095.64 113 1074.01 113C1052.38 113 1036.27 128.079 1036.19 145.047L1036.19 145.116V318H1111.83V145.116Z" fill="#ADA51B"/>
<path fill-rule="evenodd" clip-rule="evenodd" d="M1190.36 172.185V351H1102.72V172.185V172.017H1102.72C1102.82 151.005 1122.4 134 1146.54 134C1170.68 134 1190.26 151.005 1190.36 172.017H1190.36V172.185Z" fill="#BFBF29"/>
<mask id="mask17_16_719" style="mask-type:alpha" maskUnits="userSpaceOnUse" x="1102" y="134" width="89" height="217">
<path fill-rule="evenodd" clip-rule="evenodd" d="M1190.36 172.185V351H1102.72V172.185V172.017H1102.72C1102.82 151.005 1122.4 134 1146.54 134C1170.68 134 1190.26 151.005 1190.36 172.017H1190.36V172.185Z" fill="#BFBF29"/>
</mask>
<g mask="url(#mask17_16_719)">
<path d="M1119.85 136H1147.04V348H1119.85V136Z" fill="#D4D440"/>
<path d="M1163.16 137H1190.36V349H1163.16V137Z" fill="#AEAE1A"/>
</g>
<path fill-rule="evenodd" clip-rule="evenodd" d="M1190.36 172.017C1190.26 151.005 1170.68 134 1146.54 134C1122.4 134 1102.82 151.005 1102.72 172.017L1102.72 351H1190.36L1190.36 172.017ZM1184.36 172.116L1184.36 172.047C1184.28 155.079 1168.17 140 1146.54 140C1124.91 140 1108.8 155.079 1108.72 172.047L1108.72 172.116V345H1184.36V172.116Z" fill="#ADA51B"/>
<path fill-rule="evenodd" clip-rule="evenodd" d="M1279.01 141.185V320H1191.37V141.185V141.017H1191.37C1191.47 120.005 1211.05 103 1235.19 103C1259.33 103 1278.91 120.005 1279.01 141.017H1279.01V141.185Z" fill="#BFBF29"/>
<mask id="mask18_16_719" style="mask-type:alpha" maskUnits="userSpaceOnUse" x="1191" y="103" width="89" height="217">
<path fill-rule="evenodd" clip-rule="evenodd" d="M1279.01 141.185V320H1191.37V141.185V141.017H1191.37C1191.47 120.005 1211.05 103 1235.19 103C1259.33 103 1278.91 120.005 1279.01 141.017H1279.01V141.185Z" fill="#BFBF29"/>
</mask>
<g mask="url(#mask18_16_719)">
<path d="M1208.49 105H1235.69V317H1208.49V105Z" fill="#D4D440"/>
<path d="M1251.81 106H1279.01V318H1251.81V106Z" fill="#AEAE1A"/>
</g>
<path fill-rule="evenodd" clip-rule="evenodd" d="M1279.01 141.017C1278.91 120.005 1259.33 103 1235.19 103C1211.05 103 1191.47 120.005 1191.37 141.017L1191.37 320H1279.01L1279.01 141.017ZM1273.01 141.116L1273.01 141.047C1272.93 124.079 1256.82 109 1235.19 109C1213.56 109 1197.45 124.079 1197.37 141.047L1197.37 141.116V314H1273.01V141.116Z" fill="#ADA51B"/>
<path fill-rule="evenodd" clip-rule="evenodd" d="M1362.62 146.185V325H1274.98V146.185V146.017H1274.98C1275.09 125.005 1294.67 108 1318.8 108C1342.94 108 1362.52 125.005 1362.62 146.017H1362.62V146.185Z" fill="#BFBF29"/>
<mask id="mask19_16_719" style="mask-type:alpha" maskUnits="userSpaceOnUse" x="1274" y="108" width="89" height="217">
<path fill-rule="evenodd" clip-rule="evenodd" d="M1362.62 146.185V325H1274.98V146.185V146.017H1274.98C1275.09 125.005 1294.67 108 1318.8 108C1342.94 108 1362.52 125.005 1362.62 146.017H1362.62V146.185Z" fill="#BFBF29"/>
</mask>
<g mask="url(#mask19_16_719)">
<path d="M1292.11 110H1319.31V322H1292.11V110Z" fill="#D4D440"/>
<path d="M1335.42 111H1362.62V323H1335.42V111Z" fill="#AEAE1A"/>
</g>
<path fill-rule="evenodd" clip-rule="evenodd" d="M1362.62 146.017C1362.52 125.005 1342.94 108 1318.8 108C1294.67 108 1275.09 125.005 1274.98 146.017L1274.98 325H1362.62L1362.62 146.017ZM1356.62 146.116L1356.62 146.047C1356.54 129.079 1340.43 114 1318.8 114C1297.17 114 1281.07 129.079 1280.98 146.047L1280.98 146.116V319H1356.62V146.116Z" fill="#ADA51B"/>
<path fill-rule="evenodd" clip-rule="evenodd" d="M1447.24 120.185V299H1359.6V120.185V120.017H1359.6C1359.71 99.0053 1379.28 82 1403.42 82C1427.56 82 1447.14 99.0053 1447.24 120.017H1447.24V120.185Z" fill="#BFBF29"/>
<mask id="mask20_16_719" style="mask-type:alpha" maskUnits="userSpaceOnUse" x="1359" y="82" width="89" height="217">
<path fill-rule="evenodd" clip-rule="evenodd" d="M1447.24 120.185V299H1359.6V120.185V120.017H1359.6C1359.71 99.0053 1379.28 82 1403.42 82C1427.56 82 1447.14 99.0053 1447.24 120.017H1447.24V120.185Z" fill="#BFBF29"/>
</mask>
<g mask="url(#mask20_16_719)">
<path d="M1376.73 84H1403.93V296H1376.73V84Z" fill="#D4D440"/>
<path d="M1420.04 85H1447.24V297H1420.04V85Z" fill="#AEAE1A"/>
</g>
<path fill-rule="evenodd" clip-rule="evenodd" d="M1447.24 120.017C1447.14 99.0053 1427.56 82 1403.42 82C1379.28 82 1359.71 99.0053 1359.6 120.017L1359.6 299H1447.24L1447.24 120.017ZM1441.24 120.116L1441.24 120.047C1441.16 103.079 1425.05 88 1403.42 88C1381.79 88 1365.69 103.079 1365.6 120.047L1365.6 120.116V293H1441.24V120.116Z" fill="#ADA51B"/>
<path fill-rule="evenodd" clip-rule="evenodd" d="M1528.84 177.185V356H1441.2V177.185V177.017H1441.2C1441.3 156.005 1460.88 139 1485.02 139C1509.16 139 1528.74 156.005 1528.84 177.017H1528.84V177.185Z" fill="#BFBF29"/>
<mask id="mask21_16_719" style="mask-type:alpha" maskUnits="userSpaceOnUse" x="1441" y="139" width="88" height="217">
<path fill-rule="evenodd" clip-rule="evenodd" d="M1528.84 177.185V356H1441.2V177.185V177.017H1441.2C1441.3 156.005 1460.88 139 1485.02 139C1509.16 139 1528.74 156.005 1528.84 177.017H1528.84V177.185Z" fill="#BFBF29"/>
</mask>
<g mask="url(#mask21_16_719)">
<path d="M1458.32 141H1485.52V353H1458.32V141Z" fill="#D4D440"/>
<path d="M1501.64 142H1528.84V354H1501.64V142Z" fill="#AEAE1A"/>
</g>
<path fill-rule="evenodd" clip-rule="evenodd" d="M1528.84 177.017C1528.74 156.005 1509.16 139 1485.02 139C1460.88 139 1441.3 156.005 1441.2 177.017L1441.2 356H1528.84L1528.84 177.017ZM1522.84 177.116L1522.84 177.047C1522.76 160.079 1506.65 145 1485.02 145C1463.39 145 1447.28 160.079 1447.2 177.047L1447.2 177.116V350H1522.84V177.116Z" fill="#ADA51B"/>
<path fill-rule="evenodd" clip-rule="evenodd" d="M1609.43 145.185V324H1521.79V145.185V145.017H1521.79C1521.89 124.005 1541.47 107 1565.61 107C1589.75 107 1609.33 124.005 1609.43 145.017H1609.43V145.185Z" fill="#BFBF29"/>
<mask id="mask22_16_719" style="mask-type:alpha" maskUnits="userSpaceOnUse" x="1521" y="107" width="89" height="217">
<path fill-rule="evenodd" clip-rule="evenodd" d="M1609.43 145.185V324H1521.79V145.185V145.017H1521.79C1521.89 124.005 1541.47 107 1565.61 107C1589.75 107 1609.33 124.005 1609.43 145.017H1609.43V145.185Z" fill="#BFBF29"/>
</mask>
<g mask="url(#mask22_16_719)">
<path d="M1538.91 109H1566.11V321H1538.91V109Z" fill="#D4D440"/>
<path d="M1582.23 110H1609.43V322H1582.23V110Z" fill="#AEAE1A"/>
</g>
<path fill-rule="evenodd" clip-rule="evenodd" d="M1609.43 145.017C1609.33 124.005 1589.75 107 1565.61 107C1541.47 107 1521.89 124.005 1521.79 145.017L1521.79 324H1609.43L1609.43 145.017ZM1603.43 145.116L1603.43 145.047C1603.35 128.079 1587.24 113 1565.61 113C1543.98 113 1527.87 128.079 1527.79 145.047L1527.79 145.116V318H1603.43V145.116Z" fill="#ADA51B"/>
<path fill-rule="evenodd" clip-rule="evenodd" d="M1677.93 116.185V295H1590.29V116.185V116.017H1590.29C1590.39 95.0053 1609.97 78 1634.11 78C1658.25 78 1677.83 95.0053 1677.93 116.017H1677.93V116.185Z" fill="#BFBF29"/>
<mask id="mask23_16_719" style="mask-type:alpha" maskUnits="userSpaceOnUse" x="1590" y="78" width="88" height="217">
<path fill-rule="evenodd" clip-rule="evenodd" d="M1677.93 116.185V295H1590.29V116.185V116.017H1590.29C1590.39 95.0053 1609.97 78 1634.11 78C1658.25 78 1677.83 95.0053 1677.93 116.017H1677.93V116.185Z" fill="#BFBF29"/>
</mask>
<g mask="url(#mask23_16_719)">
<path d="M1607.42 80H1634.61V292H1607.42V80Z" fill="#D4D440"/>
<path d="M1650.73 81H1677.93V293H1650.73V81Z" fill="#AEAE1A"/>
</g>
<path fill-rule="evenodd" clip-rule="evenodd" d="M1677.93 116.017C1677.83 95.0053 1658.25 78 1634.11 78C1609.97 78 1590.39 95.0053 1590.29 116.017L1590.29 295H1677.93L1677.93 116.017ZM1671.93 116.116L1671.93 116.047C1671.85 99.0792 1655.74 84 1634.11 84C1612.48 84 1596.37 99.0792 1596.29 116.047L1596.29 116.116V289H1671.93V116.116Z" fill="#ADA51B"/>
<path fill-rule="evenodd" clip-rule="evenodd" d="M1725.28 152.185V331H1637.64V152.185V152.017H1637.64C1637.74 131.005 1657.32 114 1681.46 114C1705.59 114 1725.17 131.005 1725.28 152.017H1725.28V152.185Z" fill="#BFBF29"/>
<mask id="mask24_16_719" style="mask-type:alpha" maskUnits="userSpaceOnUse" x="1637" y="114" width="89" height="217">
<path fill-rule="evenodd" clip-rule="evenodd" d="M1725.28 152.185V331H1637.64V152.185V152.017H1637.64C1637.74 131.005 1657.32 114 1681.46 114C1705.59 114 1725.17 131.005 1725.28 152.017H1725.28V152.185Z" fill="#BFBF29"/>
</mask>
<g mask="url(#mask24_16_719)">
<path d="M1654.76 116H1681.96V328H1654.76V116Z" fill="#D4D440"/>
<path d="M1698.08 117H1725.28V329H1698.08V117Z" fill="#AEAE1A"/>
</g>
<path fill-rule="evenodd" clip-rule="evenodd" d="M1725.28 152.017C1725.17 131.005 1705.59 114 1681.46 114C1657.32 114 1637.74 131.005 1637.64 152.017L1637.64 331H1725.28L1725.28 152.017ZM1719.28 152.116L1719.28 152.047C1719.19 135.079 1703.09 120 1681.46 120C1659.83 120 1643.72 135.079 1643.64 152.047L1643.64 152.116V325H1719.28V152.116Z" fill="#ADA51B"/>
<path fill-rule="evenodd" clip-rule="evenodd" d="M1790.76 110.185V289H1703.12V110.185V110.017H1703.12C1703.22 89.0053 1722.8 72 1746.94 72C1771.07 72 1790.65 89.0053 1790.76 110.017H1790.76V110.185Z" fill="#BFBF29"/>
<mask id="mask25_16_719" style="mask-type:alpha" maskUnits="userSpaceOnUse" x="1703" y="72" width="88" height="217">
<path fill-rule="evenodd" clip-rule="evenodd" d="M1790.76 110.185V289H1703.12V110.185V110.017H1703.12C1703.22 89.0053 1722.8 72 1746.94 72C1771.07 72 1790.65 89.0053 1790.76 110.017H1790.76V110.185Z" fill="#BFBF29"/>
</mask>
<g mask="url(#mask25_16_719)">
<path d="M1720.24 74H1747.44V286H1720.24V74Z" fill="#D4D440"/>
<path d="M1763.56 75H1790.76V287H1763.56V75Z" fill="#AEAE1A"/>
</g>
<path fill-rule="evenodd" clip-rule="evenodd" d="M1790.76 110.017C1790.65 89.0053 1771.07 72 1746.94 72C1722.8 72 1703.22 89.0053 1703.12 110.017L1703.12 289H1790.76L1790.76 110.017ZM1784.76 110.116L1784.76 110.047C1784.67 93.0792 1768.57 78 1746.94 78C1725.31 78 1709.2 93.0792 1709.12 110.047L1709.12 110.116V283H1784.76V110.116Z" fill="#ADA51B"/>
<path fill-rule="evenodd" clip-rule="evenodd" d="M1834.08 161.185V340H1746.43V161.185V161.017H1746.43C1746.54 140.005 1766.12 123 1790.25 123C1814.39 123 1833.97 140.005 1834.07 161.017H1834.08V161.185Z" fill="#BFBF29"/>
<mask id="mask26_16_719" style="mask-type:alpha" maskUnits="userSpaceOnUse" x="1746" y="123" width="89" height="217">
<path fill-rule="evenodd" clip-rule="evenodd" d="M1834.08 161.185V340H1746.43V161.185V161.017H1746.43C1746.54 140.005 1766.12 123 1790.25 123C1814.39 123 1833.97 140.005 1834.07 161.017H1834.08V161.185Z" fill="#BFBF29"/>
</mask>
<g mask="url(#mask26_16_719)">
<path d="M1763.56 125H1790.76V337H1763.56V125Z" fill="#D4D440"/>
<path d="M1806.88 126H1834.08V338H1806.88V126Z" fill="#AEAE1A"/>
</g>
<path fill-rule="evenodd" clip-rule="evenodd" d="M1834.07 161.017C1833.97 140.005 1814.39 123 1790.25 123C1766.12 123 1746.54 140.005 1746.43 161.017L1746.43 340H1834.08L1834.07 161.017ZM1828.08 161.116L1828.07 161.047C1827.99 144.079 1811.88 129 1790.25 129C1768.62 129 1752.52 144.079 1752.43 161.047L1752.43 161.116V334H1828.08V161.116Z" fill="#ADA51B"/>
<path fill-rule="evenodd" clip-rule="evenodd" d="M1886.46 141.185V320H1798.82V141.185V141.017H1798.82C1798.92 120.005 1818.5 103 1842.64 103C1866.77 103 1886.35 120.005 1886.46 141.017H1886.46V141.185Z" fill="#BFBF29"/>
<mask id="mask27_16_719" style="mask-type:alpha" maskUnits="userSpaceOnUse" x="1798" y="103" width="89" height="217">
<path fill-rule="evenodd" clip-rule="evenodd" d="M1886.46 141.185V320H1798.82V141.185V141.017H1798.82C1798.92 120.005 1818.5 103 1842.64 103C1866.77 103 1886.35 120.005 1886.46 141.017H1886.46V141.185Z" fill="#BFBF29"/>
</mask>
<g mask="url(#mask27_16_719)">
<path d="M1815.94 105H1843.14V317H1815.94V105Z" fill="#D4D440"/>
<path d="M1859.26 106H1886.46V318H1859.26V106Z" fill="#AEAE1A"/>
</g>
<path fill-rule="evenodd" clip-rule="evenodd" d="M1886.46 141.017C1886.35 120.005 1866.77 103 1842.64 103C1818.5 103 1798.92 120.005 1798.82 141.017L1798.82 320H1886.46L1886.46 141.017ZM1880.46 141.116L1880.46 141.047C1880.37 124.079 1864.27 109 1842.64 109C1821.01 109 1804.9 124.079 1804.82 141.047L1804.82 141.116V314H1880.46V141.116Z" fill="#ADA51B"/>
<path fill-rule="evenodd" clip-rule="evenodd" d="M1933.81 92.1853V271H1846.16V92.1853V92.017H1846.16C1846.27 71.0053 1865.85 54 1889.98 54C1914.12 54 1933.7 71.0053 1933.8 92.017H1933.81V92.1853Z" fill="#BFBF29"/>
<mask id="mask28_16_719" style="mask-type:alpha" maskUnits="userSpaceOnUse" x="1846" y="54" width="88" height="217">
<path fill-rule="evenodd" clip-rule="evenodd" d="M1933.81 92.1853V271H1846.16V92.1853V92.017H1846.16C1846.27 71.0053 1865.85 54 1889.98 54C1914.12 54 1933.7 71.0053 1933.8 92.017H1933.81V92.1853Z" fill="#BFBF29"/>
</mask>
<g mask="url(#mask28_16_719)">
<path d="M1863.29 56H1890.49V268H1863.29V56Z" fill="#D4D440"/>
<path d="M1906.61 57H1933.81V269H1906.61V57Z" fill="#AEAE1A"/>
</g>
<path fill-rule="evenodd" clip-rule="evenodd" d="M1933.8 92.017C1933.7 71.0053 1914.12 54 1889.98 54C1865.85 54 1846.27 71.0053 1846.16 92.017L1846.16 271H1933.81L1933.8 92.017ZM1927.81 92.1161L1927.8 92.0467C1927.72 75.0792 1911.61 60 1889.98 60C1868.35 60 1852.25 75.0792 1852.16 92.0467L1852.16 92.116V265H1927.81V92.1161Z" fill="#ADA51B"/>
<path fill-rule="evenodd" clip-rule="evenodd" d="M2012.38 69.1853V248H1924.74V69.1853V69.017H1924.74C1924.84 48.0053 1944.42 31 1968.56 31C1992.7 31 2012.28 48.0053 2012.38 69.017H2012.38V69.1853Z" fill="#BFBF29"/>
<mask id="mask29_16_719" style="mask-type:alpha" maskUnits="userSpaceOnUse" x="1924" y="31" width="89" height="217">
<path fill-rule="evenodd" clip-rule="evenodd" d="M2012.38 69.1853V248H1924.74V69.1853V69.017H1924.74C1924.84 48.0053 1944.42 31 1968.56 31C1992.7 31 2012.28 48.0053 2012.38 69.017H2012.38V69.1853Z" fill="#BFBF29"/>
</mask>
<g mask="url(#mask29_16_719)">
<path d="M1941.86 33H1969.06V245H1941.86V33Z" fill="#D4D440"/>
<path d="M1985.18 34H2012.38V246H1985.18V34Z" fill="#AEAE1A"/>
</g>
<path fill-rule="evenodd" clip-rule="evenodd" d="M2012.38 69.017C2012.28 48.0053 1992.7 31 1968.56 31C1944.42 31 1924.84 48.0053 1924.74 69.017L1924.74 248H2012.38L2012.38 69.017ZM2006.38 69.1161L2006.38 69.0467C2006.3 52.0792 1990.19 37 1968.56 37C1946.93 37 1930.82 52.0792 1930.74 69.0467L1930.74 69.116V242H2006.38V69.1161Z" fill="#ADA51B"/>
<path fill-rule="evenodd" clip-rule="evenodd" d="M2097 38.1853V217H2009.36V38.1853V38.017H2009.36C2009.46 17.0053 2029.04 0 2053.18 0C2077.32 0 2096.9 17.0053 2097 38.017H2097V38.1853Z" fill="#BFBF29"/>
<mask id="mask30_16_719" style="mask-type:alpha" maskUnits="userSpaceOnUse" x="2009" y="0" width="88" height="217">
<path fill-rule="evenodd" clip-rule="evenodd" d="M2097 38.1853V217H2009.36V38.1853V38.017H2009.36C2009.46 17.0053 2029.04 0 2053.18 0C2077.32 0 2096.9 17.0053 2097 38.017H2097V38.1853Z" fill="#BFBF29"/>
</mask>
<g mask="url(#mask30_16_719)">
<path d="M2026.48 2H2053.68V214H2026.48V2Z" fill="#D4D440"/>
<path d="M2069.8 3H2097V215H2069.8V3Z" fill="#AEAE1A"/>
</g>
<path fill-rule="evenodd" clip-rule="evenodd" d="M2097 38.017C2096.9 17.0053 2077.32 0 2053.18 0C2029.04 0 2009.46 17.0053 2009.36 38.017L2009.36 217H2097L2097 38.017ZM2091 38.1161L2091 38.0467C2090.92 21.0792 2074.81 6 2053.18 6C2031.55 6 2015.44 21.0792 2015.36 38.0467L2015.36 38.116V211H2091V38.1161Z" fill="#ADA51B"/>
<path fill-rule="evenodd" clip-rule="evenodd" d="M2145.64 117.185V296H2058V117.185V117.017H2058C2058.1 96.0053 2077.68 79 2101.82 79C2125.96 79 2145.54 96.0053 2145.64 117.017H2145.64V117.185Z" fill="#BFBF29"/>
<mask id="mask31_16_719" style="mask-type:alpha" maskUnits="userSpaceOnUse" x="2058" y="79" width="88" height="217">
<path fill-rule="evenodd" clip-rule="evenodd" d="M2145.64 117.185V296H2058V117.185V117.017H2058C2058.1 96.0053 2077.68 79 2101.82 79C2125.96 79 2145.54 96.0053 2145.64 117.017H2145.64V117.185Z" fill="#BFBF29"/>
</mask>
<g mask="url(#mask31_16_719)">
<path d="M2075.13 81H2102.32V293H2075.13V81Z" fill="#D4D440"/>
<path d="M2118.44 82H2145.64V294H2118.44V82Z" fill="#AEAE1A"/>
</g>
<path fill-rule="evenodd" clip-rule="evenodd" d="M2145.64 117.017C2145.54 96.0053 2125.96 79 2101.82 79C2077.68 79 2058.1 96.0053 2058 117.017L2058 296H2145.64L2145.64 117.017ZM2139.64 117.116L2139.64 117.047C2139.56 100.079 2123.45 85 2101.82 85C2080.19 85 2064.08 100.079 2064 117.047L2064 117.116V290H2139.64V117.116Z" fill="#ADA51B"/>
<path fill-rule="evenodd" clip-rule="evenodd" d="M2189.97 154.185V333H2102.32V154.185V154.017H2102.32C2102.43 133.005 2122.01 116 2146.15 116C2170.28 116 2189.86 133.005 2189.97 154.017H2189.97V154.185Z" fill="#BFBF29"/>
<mask id="mask32_16_719" style="mask-type:alpha" maskUnits="userSpaceOnUse" x="2102" y="116" width="88" height="217">
<path fill-rule="evenodd" clip-rule="evenodd" d="M2189.97 154.185V333H2102.32V154.185V154.017H2102.32C2102.43 133.005 2122.01 116 2146.15 116C2170.28 116 2189.86 133.005 2189.97 154.017H2189.97V154.185Z" fill="#BFBF29"/>
</mask>
<g mask="url(#mask32_16_719)">
<path d="M2119.45 118H2146.65V330H2119.45V118Z" fill="#D4D440"/>
<path d="M2162.77 119H2189.97V331H2162.77V119Z" fill="#AEAE1A"/>
</g>
<path fill-rule="evenodd" clip-rule="evenodd" d="M2189.97 154.017C2189.86 133.005 2170.28 116 2146.15 116C2122.01 116 2102.43 133.005 2102.32 154.017L2102.32 333H2189.97L2189.97 154.017ZM2183.97 154.116L2183.97 154.047C2183.88 137.079 2167.78 122 2146.15 122C2124.52 122 2108.41 137.079 2108.32 154.047L2108.32 154.116V327H2183.97V154.116Z" fill="#ADA51B"/>
<path fill-rule="evenodd" clip-rule="evenodd" d="M2233.28 89.1853V268H2145.64V89.1853V89.017H2145.64C2145.75 68.0053 2165.33 51 2189.46 51C2213.6 51 2233.18 68.0053 2233.28 89.017H2233.28V89.1853Z" fill="#BFBF29"/>
<mask id="mask33_16_719" style="mask-type:alpha" maskUnits="userSpaceOnUse" x="2145" y="51" width="89" height="217">
<path fill-rule="evenodd" clip-rule="evenodd" d="M2233.28 89.1853V268H2145.64V89.1853V89.017H2145.64C2145.75 68.0053 2165.33 51 2189.46 51C2213.6 51 2233.18 68.0053 2233.28 89.017H2233.28V89.1853Z" fill="#BFBF29"/>
</mask>
<g mask="url(#mask33_16_719)">
<path d="M2162.77 53H2189.97V265H2162.77V53Z" fill="#D4D440"/>
<path d="M2206.08 54H2233.28V266H2206.08V54Z" fill="#AEAE1A"/>
</g>
<path fill-rule="evenodd" clip-rule="evenodd" d="M2233.28 89.017C2233.18 68.0053 2213.6 51 2189.46 51C2165.33 51 2145.75 68.0053 2145.64 89.017L2145.64 268H2233.28L2233.28 89.017ZM2227.28 89.1161L2227.28 89.0467C2227.2 72.0792 2211.09 57 2189.46 57C2167.83 57 2151.73 72.0792 2151.64 89.0467L2151.64 89.116V262H2227.28V89.1161Z" fill="#ADA51B"/>
<path fill-rule="evenodd" clip-rule="evenodd" d="M2313.87 145.185V324H2226.23V145.185V145.017H2226.23C2226.34 124.005 2245.92 107 2270.05 107C2294.19 107 2313.77 124.005 2313.87 145.017H2313.87V145.185Z" fill="#BFBF29"/>
<mask id="mask34_16_719" style="mask-type:alpha" maskUnits="userSpaceOnUse" x="2226" y="107" width="88" height="217">
<path fill-rule="evenodd" clip-rule="evenodd" d="M2313.87 145.185V324H2226.23V145.185V145.017H2226.23C2226.34 124.005 2245.92 107 2270.05 107C2294.19 107 2313.77 124.005 2313.87 145.017H2313.87V145.185Z" fill="#BFBF29"/>
</mask>
<g mask="url(#mask34_16_719)">
<path d="M2243.36 109H2270.56V321H2243.36V109Z" fill="#D4D440"/>
<path d="M2286.67 110H2313.87V322H2286.67V110Z" fill="#AEAE1A"/>
</g>
<path fill-rule="evenodd" clip-rule="evenodd" d="M2313.87 145.017C2313.77 124.005 2294.19 107 2270.05 107C2245.92 107 2226.34 124.005 2226.23 145.017L2226.23 324H2313.87L2313.87 145.017ZM2307.87 145.116L2307.87 145.047C2307.79 128.079 2291.68 113 2270.05 113C2248.42 113 2232.32 128.079 2232.23 145.047L2232.23 145.116V318H2307.87V145.116Z" fill="#ADA51B"/>
<path fill-rule="evenodd" clip-rule="evenodd" d="M2386.4 172.185V351H2298.76V172.185V172.017H2298.76C2298.87 151.005 2318.45 134 2342.58 134C2366.72 134 2386.3 151.005 2386.4 172.017H2386.4V172.185Z" fill="#BFBF29"/>
<mask id="mask35_16_719" style="mask-type:alpha" maskUnits="userSpaceOnUse" x="2298" y="134" width="89" height="217">
<path fill-rule="evenodd" clip-rule="evenodd" d="M2386.4 172.185V351H2298.76V172.185V172.017H2298.76C2298.87 151.005 2318.45 134 2342.58 134C2366.72 134 2386.3 151.005 2386.4 172.017H2386.4V172.185Z" fill="#BFBF29"/>
</mask>
<g mask="url(#mask35_16_719)">
<path d="M2315.89 136H2343.09V348H2315.89V136Z" fill="#D4D440"/>
<path d="M2359.21 137H2386.4V349H2359.21V137Z" fill="#AEAE1A"/>
</g>
<path fill-rule="evenodd" clip-rule="evenodd" d="M2386.4 172.017C2386.3 151.005 2366.72 134 2342.58 134C2318.45 134 2298.87 151.005 2298.76 172.017L2298.76 351H2386.4L2386.4 172.017ZM2380.4 172.116L2380.4 172.047C2380.32 155.079 2364.21 140 2342.58 140C2320.95 140 2304.85 155.079 2304.76 172.047L2304.76 172.116V345H2380.4V172.116Z" fill="#ADA51B"/>
<path fill-rule="evenodd" clip-rule="evenodd" d="M2475.05 141.185V320H2387.41V141.185V141.017H2387.41C2387.52 120.005 2407.1 103 2431.23 103C2455.37 103 2474.95 120.005 2475.05 141.017H2475.05V141.185Z" fill="#BFBF29"/>
<mask id="mask36_16_719" style="mask-type:alpha" maskUnits="userSpaceOnUse" x="2387" y="103" width="89" height="217">
<path fill-rule="evenodd" clip-rule="evenodd" d="M2475.05 141.185V320H2387.41V141.185V141.017H2387.41C2387.52 120.005 2407.1 103 2431.23 103C2455.37 103 2474.95 120.005 2475.05 141.017H2475.05V141.185Z" fill="#BFBF29"/>
</mask>
<g mask="url(#mask36_16_719)">
<path d="M2404.54 105H2431.74V317H2404.54V105Z" fill="#D4D440"/>
<path d="M2447.85 106H2475.05V318H2447.85V106Z" fill="#AEAE1A"/>
</g>
<path fill-rule="evenodd" clip-rule="evenodd" d="M2475.05 141.017C2474.95 120.005 2455.37 103 2431.23 103C2407.1 103 2387.52 120.005 2387.41 141.017L2387.41 320H2475.05L2475.05 141.017ZM2469.05 141.116L2469.05 141.047C2468.97 124.079 2452.86 109 2431.23 109C2409.6 109 2393.5 124.079 2393.41 141.047L2393.41 141.116V314H2469.05V141.116Z" fill="#ADA51B"/>
<path fill-rule="evenodd" clip-rule="evenodd" d="M2558.67 146.185V325H2471.02V146.185V146.017H2471.02C2471.13 125.005 2490.71 108 2514.84 108C2538.98 108 2558.56 125.005 2558.67 146.017H2558.67V146.185Z" fill="#BFBF29"/>
<mask id="mask37_16_719" style="mask-type:alpha" maskUnits="userSpaceOnUse" x="2471" y="108" width="88" height="217">
<path fill-rule="evenodd" clip-rule="evenodd" d="M2558.67 146.185V325H2471.02V146.185V146.017H2471.02C2471.13 125.005 2490.71 108 2514.84 108C2538.98 108 2558.56 125.005 2558.67 146.017H2558.67V146.185Z" fill="#BFBF29"/>
</mask>
<g mask="url(#mask37_16_719)">
<path d="M2488.15 110H2515.35V322H2488.15V110Z" fill="#D4D440"/>
<path d="M2531.47 111H2558.67V323H2531.47V111Z" fill="#AEAE1A"/>
</g>
<path fill-rule="evenodd" clip-rule="evenodd" d="M2558.67 146.017C2558.56 125.005 2538.98 108 2514.84 108C2490.71 108 2471.13 125.005 2471.02 146.017L2471.02 325H2558.67L2558.67 146.017ZM2552.67 146.116L2552.67 146.047C2552.58 129.079 2536.47 114 2514.84 114C2493.21 114 2477.11 129.079 2477.02 146.047L2477.02 146.116V319H2552.67V146.116Z" fill="#ADA51B"/>
</svg>
