<svg width="1083" height="564" viewBox="0 0 1083 564" fill="none" xmlns="http://www.w3.org/2000/svg">
<path fill-rule="evenodd" clip-rule="evenodd" d="M275.22 93.1467L232.963 1.01231L143.856 9.92309L0.249268 251.427L0.253174 251.428V295.42L0.249268 295.427L142.911 320.92L160.275 261.248L194.26 262.087L198.509 293.427L135.595 363.853L167.249 382.644L130.77 443.944L130.773 443.946V487.94L130.77 487.944L130.773 487.946V487.951L130.777 487.949L220.943 559.599H340.055L375.423 492.912L382.983 558.399H494.062L493.99 555.441L581.025 558.443L581.088 558.999H597.158L605.596 559.29L605.58 558.999H790.08L817.618 563.92L834.982 504.248L868.967 505.087L876.719 562.256L1022.8 539.038L1022.8 539.041V495.03L1022.79 495.024L907.725 244.131L926.881 227.057L933.16 245.173L953.608 318.144L1082.57 307.518L1082.56 307.513L1082.57 307.518V263.518L1082.57 263.515L1007.98 1.90834L920.305 3.78367L902.69 32.3368L892.702 3.79891H798.06L712.744 161.764L639.018 1.01231L549.911 9.92309L498.757 95.9483L495.434 64.9627L416.89 0.631104L275.22 17.9549V93.1467ZM227.013 45.6074L145.726 53.7361L158.295 32.5989L218.295 26.5989L227.013 45.6074ZM995.641 46.1722L989.974 26.2989L933.874 27.4989L921.374 47.7608L995.641 46.1722ZM882.674 47.7989L875.674 27.7989H812.374L801.573 47.7989H882.674ZM633.067 45.6074L624.349 26.5989L564.349 32.5989L551.78 53.7361L633.067 45.6074ZM474.145 91.5258L472.62 77.2989L409.62 25.6989L299.22 39.1989V59.0201L416.89 44.6311L474.145 91.5258ZM569.288 295.025L556.661 294.473L562.402 274.747L568.172 274.999L569.288 295.025ZM598.438 288.399L601.712 272.393L603.882 288.399H598.438ZM901.72 288.607L820.433 296.736L833.002 275.599L893.002 269.599L901.72 288.607ZM769.4 335.601L774.934 307.661L784.897 309.54L769.4 335.601ZM832.319 251.548L863.124 248.467L845.052 224.499L832.319 251.548ZM208.545 318.217L216.849 316.898L185.454 365.541L172.917 358.099L208.545 318.217Z" fill="black"/>
<path d="M218.295 26.5999L313.095 233.3L222.495 247.7L215.295 194.6L142.395 192.8L125.895 249.5L38.5947 233.9L158.295 32.6L218.295 26.5999ZM173.595 105.2L161.295 135.8L207.195 137L196.695 106.1L173.595 105.2Z" fill="#0B9BD7"/>
<path d="M409.62 25.7L472.62 77.2999L485.52 197.6L423.42 248.3H299.22V39.1999L409.62 25.7ZM367.92 105.8V171.2L408.42 157.1V124.4L367.92 105.8Z" fill="#FACF07"/>
<path d="M624.349 26.5999L719.149 233.3L628.549 247.7L621.349 194.6L548.449 192.8L531.949 249.5L444.649 233.9L564.349 32.6L624.349 26.5999ZM579.649 105.2L567.349 135.8L613.249 137L602.749 106.1L579.649 105.2Z" fill="#E52927"/>
<path d="M705.274 226.1L812.374 27.7999H875.674L896.674 87.8L933.874 27.4999L989.974 26.2999L1051.47 242L971.374 248.6L956.074 194L937.774 141.2L882.574 190.4L840.274 134.3L789.574 242L705.274 226.1Z" fill="#45AF4A"/>
<path d="M379.317 325.1L340.617 372.8L295.317 343.7L283.917 358.1L364.917 417.5L325.617 491.6H229.317L162.117 438.2L191.217 389.3L249.117 422L257.817 408.5L172.917 358.1L253.317 268.1H325.617L379.317 325.1Z" fill="#E52927"/>
<path d="M380.372 282.5L455.972 268.1L459.572 359.6L503.672 353L506.372 272.3L568.172 275L580.172 490.4L510.572 488L509.972 420.5L467.972 428.6L469.472 490.4H404.372L380.372 282.5Z" fill="#45AF4A"/>
<path d="M602.529 268.4H749.529L737.229 330.5L664.929 341.6L664.029 356.9L727.929 361.7L724.929 409.4L667.929 414.5L673.029 430.7L742.329 431.3L767.829 491H602.529L586.329 347.6L602.529 268.4Z" fill="#FACF07"/>
<path d="M893.002 269.6L987.802 476.3L897.202 490.7L890.002 437.6L817.102 435.8L800.602 492.5L713.302 476.9L833.002 275.6L893.002 269.6ZM848.302 348.2L836.002 378.8L881.902 380L871.402 349.1L848.302 348.2Z" fill="#0B9BD7"/>
</svg>
