<svg width="1311" height="347" viewBox="0 0 1311 347" fill="none" xmlns="http://www.w3.org/2000/svg">
<path d="M4.96875 62.5778H154.031V348H4.96875V62.5778Z" fill="black"/>
<path d="M9.9375 62.5778H149.062V348H9.9375V62.5778Z" fill="#3BEF37"/>
<path d="M94.4062 62.5778H149.062V348H94.4062V62.5778Z" fill="#00BB00"/>
<path d="M59.625 62.5778H89.4375V348H59.625V62.5778Z" fill="#00BB00"/>
<path d="M44.7188 62.5778H54.6562V348H44.7188V62.5778Z" fill="#00BB00"/>
<path d="M9.9375 62.5778H19.875V348H9.9375V62.5778Z" fill="#00BB00"/>
<path d="M24.8438 62.5778H29.8125V348H24.8438V62.5778Z" fill="#00BB00"/>
<path d="M144.094 62.5778H149.062V348H144.094V62.5778Z" fill="black"/>
<path d="M109.312 62.5778H114.281V348H109.312V62.5778Z" fill="black"/>
<path d="M99.375 62.5778H104.344V348H99.375V62.5778Z" fill="black"/>
<path d="M119.25 62.5778H139.125V348H119.25V62.5778Z" fill="black"/>
<path d="M0 0H159V62.5778H0V0Z" fill="black"/>
<path d="M4.96875 3.91111H154.031V54.7556H4.96875V3.91111Z" fill="#3BEF37"/>
<path d="M99.375 7.82222H154.031V54.7556H99.375V7.82222Z" fill="#00BB00"/>
<path d="M54.6562 7.82222H94.4062V54.7556H54.6562V7.82222Z" fill="#00BB00"/>
<path d="M39.75 7.82222H49.6875V54.7556H39.75V7.82222Z" fill="#00BB00"/>
<path d="M4.96875 7.82222H14.9062V54.7556H4.96875V7.82222Z" fill="#00BB00"/>
<path d="M19.875 7.82222H24.8438V54.7556H19.875V7.82222Z" fill="#00BB00"/>
<path d="M149.062 7.82222H154.031V54.7556H149.062V7.82222Z" fill="black"/>
<path d="M114.281 7.82222H119.25V54.7556H114.281V7.82222Z" fill="black"/>
<path d="M104.344 7.82222H109.312V54.7556H104.344V7.82222Z" fill="black"/>
<path d="M124.219 7.82222H144.094V54.7556H124.219V7.82222Z" fill="black"/>
<path d="M1156.97 106.578H1306.03V346H1156.97V106.578Z" fill="black"/>
<path d="M1161.94 106.578H1301.06V346H1161.94V106.578Z" fill="#3BEF37"/>
<path d="M1246.41 106.578H1301.06V346H1246.41V106.578Z" fill="#00BB00"/>
<path d="M1211.62 106.578H1241.44V346H1211.62V106.578Z" fill="#00BB00"/>
<path d="M1196.72 106.578H1206.66V346H1196.72V106.578Z" fill="#00BB00"/>
<path d="M1161.94 106.578H1171.88V346H1161.94V106.578Z" fill="#00BB00"/>
<path d="M1176.84 106.578H1181.81V346H1176.84V106.578Z" fill="#00BB00"/>
<path d="M1296.09 106.578H1301.06V346H1296.09V106.578Z" fill="black"/>
<path d="M1261.31 106.578H1266.28V346H1261.31V106.578Z" fill="black"/>
<path d="M1251.38 106.578H1256.34V346H1251.38V106.578Z" fill="black"/>
<path d="M1271.25 106.578H1291.12V346H1271.25V106.578Z" fill="black"/>
<path d="M1152 44H1311V106.578H1152V44Z" fill="black"/>
<path d="M1156.97 47.9111H1306.03V98.7556H1156.97V47.9111Z" fill="#3BEF37"/>
<path d="M1251.38 51.8222H1306.03V98.7556H1251.38V51.8222Z" fill="#00BB00"/>
<path d="M1206.66 51.8222H1246.41V98.7556H1206.66V51.8222Z" fill="#00BB00"/>
<path d="M1191.75 51.8222H1201.69V98.7556H1191.75V51.8222Z" fill="#00BB00"/>
<path d="M1156.97 51.8222H1166.91V98.7556H1156.97V51.8222Z" fill="#00BB00"/>
<path d="M1171.88 51.8222H1176.84V98.7556H1171.88V51.8222Z" fill="#00BB00"/>
<path d="M1301.06 51.8222H1306.03V98.7556H1301.06V51.8222Z" fill="black"/>
<path d="M1266.28 51.8222H1271.25V98.7556H1266.28V51.8222Z" fill="black"/>
<path d="M1256.34 51.8222H1261.31V98.7556H1256.34V51.8222Z" fill="black"/>
<path d="M1276.22 51.8222H1296.09V98.7556H1276.22V51.8222Z" fill="black"/>
</svg>
