<svg width="159" height="302" viewBox="0 0 159 302" fill="none" xmlns="http://www.w3.org/2000/svg">
<path d="M4.96875 62.5778H154.031V302H4.96875V62.5778Z" fill="black"/>
<path d="M9.9375 62.5778H149.062V302H9.9375V62.5778Z" fill="#3BEF37"/>
<path d="M94.4062 62.5778H149.062V302H94.4062V62.5778Z" fill="#00BB00"/>
<path d="M59.625 62.5778H89.4375V302H59.625V62.5778Z" fill="#00BB00"/>
<path d="M44.7188 62.5778H54.6562V302H44.7188V62.5778Z" fill="#00BB00"/>
<path d="M9.9375 62.5778H19.875V302H9.9375V62.5778Z" fill="#00BB00"/>
<path d="M24.8438 62.5778H29.8125V302H24.8438V62.5778Z" fill="#00BB00"/>
<path d="M144.094 62.5778H149.062V302H144.094V62.5778Z" fill="black"/>
<path d="M109.312 62.5778H114.281V302H109.312V62.5778Z" fill="black"/>
<path d="M99.375 62.5778H104.344V302H99.375V62.5778Z" fill="black"/>
<path d="M119.25 62.5778H139.125V302H119.25V62.5778Z" fill="black"/>
<path d="M0 0H159V62.5778H0V0Z" fill="black"/>
<path d="M4.96875 3.91111H154.031V54.7556H4.96875V3.91111Z" fill="#3BEF37"/>
<path d="M99.375 7.82222H154.031V54.7556H99.375V7.82222Z" fill="#00BB00"/>
<path d="M54.6562 7.82222H94.4062V54.7556H54.6562V7.82222Z" fill="#00BB00"/>
<path d="M39.75 7.82222H49.6875V54.7556H39.75V7.82222Z" fill="#00BB00"/>
<path d="M4.96875 7.82222H14.9062V54.7556H4.96875V7.82222Z" fill="#00BB00"/>
<path d="M19.875 7.82222H24.8438V54.7556H19.875V7.82222Z" fill="#00BB00"/>
<path d="M149.062 7.82222H154.031V54.7556H149.062V7.82222Z" fill="black"/>
<path d="M114.281 7.82222H119.25V54.7556H114.281V7.82222Z" fill="black"/>
<path d="M104.344 7.82222H109.312V54.7556H104.344V7.82222Z" fill="black"/>
<path d="M124.219 7.82222H144.094V54.7556H124.219V7.82222Z" fill="black"/>
</svg>
