<svg width="2560" height="1440" viewBox="0 0 2560 1440" fill="none" xmlns="http://www.w3.org/2000/svg">
<path d="M479 375.5C479 403.39 408.037 426 320.5 426C232.963 426 162 403.39 162 375.5C162 347.61 232.963 325 320.5 325C408.037 325 479 347.61 479 375.5Z" fill="#CFA630"/>
<g filter="url(#filter0_i_16_731)">
<path d="M461 361.5C461 389.39 390.037 412 302.5 412C214.963 412 144 389.39 144 361.5C144 333.61 214.963 311 302.5 311C390.037 311 461 333.61 461 361.5Z" fill="white"/>
</g>
<mask id="mask0_16_731" style="mask-type:alpha" maskUnits="userSpaceOnUse" x="144" y="311" width="317" height="101">
<path d="M461 361.5C461 389.39 390.037 412 302.5 412C214.963 412 144 389.39 144 361.5C144 333.61 214.963 311 302.5 311C390.037 311 461 333.61 461 361.5Z" fill="white"/>
</mask>
<g mask="url(#mask0_16_731)">
<path fill-rule="evenodd" clip-rule="evenodd" d="M375.539 353.101C362.709 347.489 342.631 343.637 314.579 344.027C296.854 344.273 268.396 346.622 244.515 352.256C232.532 355.082 222.093 358.648 214.777 362.955C207.275 367.371 204.503 371.652 204.503 375.528C204.503 379.621 206.831 384.194 211.992 389.132C217.09 394.01 224.331 398.626 232.576 402.728C249.08 410.94 268.396 416.506 279.289 418.084L277.711 428.971C265.604 427.216 245.171 421.282 227.676 412.577C218.923 408.221 210.601 403.025 204.388 397.08C198.236 391.195 193.503 383.935 193.503 375.528C193.503 365.653 200.667 358.497 209.197 353.475C217.913 348.344 229.598 344.473 241.99 341.55C266.859 335.683 296.152 333.282 314.426 333.028C343.373 332.626 365.169 336.559 379.947 343.023C394.442 349.363 403.731 358.965 403.687 370.493C403.643 381.917 394.417 391.526 380.735 397.897C366.749 404.408 346.582 408.394 320.921 408.027C303.098 407.772 287.751 405.487 276.654 401.224C265.953 397.113 257.003 390.182 257.003 379.528C257.003 369.284 264.357 362.442 274.246 358.431C284.14 354.418 297.959 352.528 314.503 352.528C326.33 352.528 337.129 353.265 345.123 355.628C349.13 356.813 352.896 358.535 355.729 361.176C358.731 363.974 360.503 367.652 360.503 372.028C360.503 377.547 357.815 381.888 353.683 384.807C349.775 387.566 344.652 389.041 339.215 389.688C328.278 390.991 314.097 389.178 299.878 384.782L303.127 374.273C316.405 378.378 328.975 379.83 337.914 378.765C342.414 378.229 345.51 377.112 347.337 375.821C348.94 374.69 349.503 373.523 349.503 372.028C349.503 370.904 349.149 370.081 348.229 369.223C347.14 368.207 345.186 367.117 342.005 366.177C335.624 364.29 326.173 363.528 314.503 363.528C298.542 363.528 286.362 365.387 278.381 368.624C270.397 371.863 268.003 375.771 268.003 379.528C268.003 382.873 270.801 387.192 280.599 390.956C290 394.568 303.902 396.783 321.079 397.028C345.667 397.379 364.061 393.526 376.092 387.925C388.425 382.182 392.668 375.404 392.687 370.451C392.706 365.602 388.652 358.836 375.539 353.101Z" fill="#F391A9"/>
<path fill-rule="evenodd" clip-rule="evenodd" d="M375.539 347.101C362.709 341.489 342.631 337.637 314.579 338.027C296.854 338.273 268.396 340.622 244.515 346.256C232.532 349.082 222.093 352.648 214.777 356.955C207.275 361.371 204.503 365.652 204.503 369.528C204.503 373.621 206.831 378.194 211.992 383.132C217.09 388.01 224.331 392.626 232.576 396.728C249.08 404.94 268.396 410.506 279.289 412.084L277.711 422.971C265.604 421.216 245.171 415.282 227.676 406.577C218.923 402.221 210.601 397.025 204.388 391.08C198.236 385.195 193.503 377.935 193.503 369.528C193.503 359.653 200.667 352.497 209.197 347.475C217.913 342.344 229.598 338.473 241.99 335.55C266.859 329.683 296.152 327.282 314.426 327.028C343.373 326.626 365.169 330.559 379.947 337.023C394.442 343.363 403.731 352.965 403.687 364.493C403.643 375.917 394.417 385.526 380.735 391.897C366.749 398.408 346.582 402.394 320.921 402.027C303.098 401.772 287.751 399.487 276.654 395.224C265.953 391.113 257.003 384.182 257.003 373.528C257.003 363.284 264.357 356.442 274.246 352.431C284.14 348.418 297.959 346.528 314.503 346.528C326.33 346.528 337.129 347.265 345.123 349.628C349.13 350.813 352.896 352.535 355.729 355.176C358.731 357.974 360.503 361.652 360.503 366.028C360.503 371.547 357.815 375.888 353.683 378.807C349.775 381.566 344.652 383.041 339.215 383.688C328.278 384.991 314.097 383.178 299.878 378.782L303.127 368.273C316.405 372.378 328.975 373.83 337.914 372.765C342.414 372.229 345.51 371.112 347.337 369.821C348.94 368.69 349.503 367.523 349.503 366.028C349.503 364.904 349.149 364.081 348.229 363.223C347.14 362.207 345.186 361.117 342.005 360.177C335.624 358.29 326.173 357.528 314.503 357.528C298.542 357.528 286.362 359.387 278.381 362.624C270.397 365.863 268.003 369.771 268.003 373.528C268.003 376.873 270.801 381.192 280.599 384.956C290 388.568 303.902 390.783 321.079 391.028C345.667 391.379 364.061 387.526 376.092 381.925C388.425 376.182 392.668 369.404 392.687 364.451C392.706 359.602 388.652 352.836 375.539 347.101Z" fill="#DA3A60"/>
</g>
<defs>
<filter id="filter0_i_16_731" x="144" y="311" width="317" height="101" filterUnits="userSpaceOnUse" color-interpolation-filters="sRGB">
<feFlood flood-opacity="0" result="BackgroundImageFix"/>
<feBlend mode="normal" in="SourceGraphic" in2="BackgroundImageFix" result="shape"/>
<feColorMatrix in="SourceAlpha" type="matrix" values="0 0 0 0 0 0 0 0 0 0 0 0 0 0 0 0 0 0 127 0" result="hardAlpha"/>
<feOffset dx="-13" dy="-7"/>
<feComposite in2="hardAlpha" operator="arithmetic" k2="-1" k3="1"/>
<feColorMatrix type="matrix" values="0 0 0 0 0.952941 0 0 0 0 0.568627 0 0 0 0 0.662745 0 0 0 1 0"/>
<feBlend mode="normal" in2="shape" result="effect1_innerShadow_16_731"/>
</filter>
</defs>
</svg>
