<svg width="2560" height="1440" viewBox="0 0 2560 1440" fill="none" xmlns="http://www.w3.org/2000/svg">
<path d="M2438 274.5C2438 302.39 2367.04 325 2279.5 325C2191.96 325 2121 302.39 2121 274.5C2121 246.61 2191.96 224 2279.5 224C2367.04 224 2438 246.61 2438 274.5Z" fill="#CFA630"/>
<g filter="url(#filter0_i_16_732)">
<path d="M2420 260.5C2420 288.39 2349.04 311 2261.5 311C2173.96 311 2103 288.39 2103 260.5C2103 232.61 2173.96 210 2261.5 210C2349.04 210 2420 232.61 2420 260.5Z" fill="white"/>
</g>
<mask id="mask0_16_732" style="mask-type:alpha" maskUnits="userSpaceOnUse" x="2103" y="210" width="317" height="101">
<path d="M2420 260.5C2420 288.39 2349.04 311 2261.5 311C2173.96 311 2103 288.39 2103 260.5C2103 232.61 2173.96 210 2261.5 210C2349.04 210 2420 232.61 2420 260.5Z" fill="white"/>
</mask>
<g mask="url(#mask0_16_732)">
<path fill-rule="evenodd" clip-rule="evenodd" d="M2334.54 252.101C2321.71 246.489 2301.63 242.637 2273.58 243.027C2255.85 243.273 2227.4 245.622 2203.52 251.256C2191.53 254.082 2181.09 257.648 2173.78 261.955C2166.28 266.371 2163.5 270.652 2163.5 274.528C2163.5 278.621 2165.83 283.194 2170.99 288.132C2176.09 293.01 2183.33 297.626 2191.58 301.728C2208.08 309.94 2227.4 315.506 2238.29 317.084L2236.71 327.971C2224.6 326.216 2204.17 320.282 2186.68 311.577C2177.92 307.221 2169.6 302.025 2163.39 296.08C2157.24 290.195 2152.5 282.935 2152.5 274.528C2152.5 264.653 2159.67 257.497 2168.2 252.475C2176.91 247.344 2188.6 243.473 2200.99 240.55C2225.86 234.683 2255.15 232.282 2273.43 232.028C2302.37 231.626 2324.17 235.559 2338.95 242.023C2353.44 248.363 2362.73 257.965 2362.69 269.493C2362.64 280.917 2353.42 290.526 2339.73 296.897C2325.75 303.408 2305.58 307.394 2279.92 307.027C2262.1 306.772 2246.75 304.487 2235.65 300.224C2224.95 296.113 2216 289.182 2216 278.528C2216 268.284 2223.36 261.442 2233.25 257.431C2243.14 253.418 2256.96 251.528 2273.5 251.528C2285.33 251.528 2296.13 252.265 2304.12 254.628C2308.13 255.813 2311.9 257.535 2314.73 260.176C2317.73 262.974 2319.5 266.652 2319.5 271.028C2319.5 276.547 2316.82 280.888 2312.68 283.807C2308.78 286.566 2303.65 288.041 2298.21 288.688C2287.28 289.991 2273.1 288.178 2258.88 283.782L2262.13 273.273C2275.41 277.378 2287.97 278.83 2296.91 277.765C2301.41 277.229 2304.51 276.112 2306.34 274.821C2307.94 273.69 2308.5 272.523 2308.5 271.028C2308.5 269.904 2308.15 269.081 2307.23 268.223C2306.14 267.207 2304.19 266.117 2301 265.177C2294.62 263.29 2285.17 262.528 2273.5 262.528C2257.54 262.528 2245.36 264.387 2237.38 267.624C2229.4 270.863 2227 274.771 2227 278.528C2227 281.873 2229.8 286.192 2239.6 289.956C2249 293.568 2262.9 295.783 2280.08 296.028C2304.67 296.379 2323.06 292.526 2335.09 286.925C2347.42 281.182 2351.67 274.404 2351.69 269.451C2351.71 264.602 2347.65 257.836 2334.54 252.101Z" fill="#F391A9"/>
<path fill-rule="evenodd" clip-rule="evenodd" d="M2334.54 246.101C2321.71 240.489 2301.63 236.637 2273.58 237.027C2255.85 237.273 2227.4 239.622 2203.52 245.256C2191.53 248.082 2181.09 251.648 2173.78 255.955C2166.28 260.371 2163.5 264.652 2163.5 268.528C2163.5 272.621 2165.83 277.194 2170.99 282.132C2176.09 287.01 2183.33 291.626 2191.58 295.728C2208.08 303.94 2227.4 309.506 2238.29 311.084L2236.71 321.971C2224.6 320.216 2204.17 314.282 2186.68 305.577C2177.92 301.221 2169.6 296.025 2163.39 290.08C2157.24 284.195 2152.5 276.935 2152.5 268.528C2152.5 258.653 2159.67 251.497 2168.2 246.475C2176.91 241.344 2188.6 237.473 2200.99 234.55C2225.86 228.683 2255.15 226.282 2273.43 226.028C2302.37 225.626 2324.17 229.559 2338.95 236.023C2353.44 242.363 2362.73 251.965 2362.69 263.493C2362.64 274.917 2353.42 284.526 2339.73 290.897C2325.75 297.408 2305.58 301.394 2279.92 301.027C2262.1 300.772 2246.75 298.487 2235.65 294.224C2224.95 290.113 2216 283.182 2216 272.528C2216 262.284 2223.36 255.442 2233.25 251.431C2243.14 247.418 2256.96 245.528 2273.5 245.528C2285.33 245.528 2296.13 246.265 2304.12 248.628C2308.13 249.813 2311.9 251.535 2314.73 254.176C2317.73 256.974 2319.5 260.652 2319.5 265.028C2319.5 270.547 2316.82 274.888 2312.68 277.807C2308.78 280.566 2303.65 282.041 2298.21 282.688C2287.28 283.991 2273.1 282.178 2258.88 277.782L2262.13 267.273C2275.41 271.378 2287.97 272.83 2296.91 271.765C2301.41 271.229 2304.51 270.112 2306.34 268.821C2307.94 267.69 2308.5 266.523 2308.5 265.028C2308.5 263.904 2308.15 263.081 2307.23 262.223C2306.14 261.207 2304.19 260.117 2301 259.177C2294.62 257.29 2285.17 256.528 2273.5 256.528C2257.54 256.528 2245.36 258.387 2237.38 261.624C2229.4 264.863 2227 268.771 2227 272.528C2227 275.873 2229.8 280.192 2239.6 283.956C2249 287.568 2262.9 289.783 2280.08 290.028C2304.67 290.379 2323.06 286.526 2335.09 280.925C2347.42 275.182 2351.67 268.404 2351.69 263.451C2351.71 258.602 2347.65 251.836 2334.54 246.101Z" fill="#DA3A60"/>
</g>
<defs>
<filter id="filter0_i_16_732" x="2103" y="210" width="317" height="101" filterUnits="userSpaceOnUse" color-interpolation-filters="sRGB">
<feFlood flood-opacity="0" result="BackgroundImageFix"/>
<feBlend mode="normal" in="SourceGraphic" in2="BackgroundImageFix" result="shape"/>
<feColorMatrix in="SourceAlpha" type="matrix" values="0 0 0 0 0 0 0 0 0 0 0 0 0 0 0 0 0 0 127 0" result="hardAlpha"/>
<feOffset dx="-13" dy="-7"/>
<feComposite in2="hardAlpha" operator="arithmetic" k2="-1" k3="1"/>
<feColorMatrix type="matrix" values="0 0 0 0 0.952941 0 0 0 0 0.568627 0 0 0 0 0.662745 0 0 0 1 0"/>
<feBlend mode="normal" in2="shape" result="effect1_innerShadow_16_732"/>
</filter>
</defs>
</svg>
