<svg width="2560" height="1440" viewBox="0 0 2560 1440" fill="none" xmlns="http://www.w3.org/2000/svg">
<path d="M144.217 667.604C144.217 679.973 113.668 690 75.9831 690C38.2984 690 7.7489 679.973 7.7489 667.604C7.7489 655.236 38.2984 645.209 75.9831 645.209C113.668 645.209 144.217 655.236 144.217 667.604Z" fill="#CFA630"/>
<g filter="url(#filter0_i_16_730)">
<path d="M136.468 661.396C136.468 673.764 105.919 683.791 68.2342 683.791C30.5495 683.791 0 673.764 0 661.396C0 649.027 30.5495 639 68.2342 639C105.919 639 136.468 649.027 136.468 661.396Z" fill="white"/>
</g>
<mask id="mask0_16_730" style="mask-type:alpha" maskUnits="userSpaceOnUse" x="0" y="639" width="137" height="45">
<path d="M136.468 661.396C136.468 673.764 105.919 683.791 68.2342 683.791C30.5495 683.791 0 673.764 0 661.396C0 649.027 30.5495 639 68.2342 639C105.919 639 136.468 649.027 136.468 661.396Z" fill="white"/>
</mask>
<g mask="url(#mask0_16_730)">
<path fill-rule="evenodd" clip-rule="evenodd" d="M99.3939 657.976C93.9929 655.542 85.4606 653.84 73.4443 654.012C65.8498 654.121 53.6534 655.159 43.4367 657.642C38.3057 658.888 33.8888 660.45 30.8241 662.308C27.6786 664.216 26.6787 665.964 26.6787 667.421C26.6787 669.05 27.5787 670.95 29.7396 673.08C31.8733 675.183 34.9284 677.195 38.4459 678.998C45.4906 682.609 53.7352 685.052 58.3453 685.741L57.4593 691.675C52.1678 690.885 43.3007 688.229 35.709 684.337C31.9083 682.389 28.264 680.05 25.5279 677.353C22.819 674.683 20.6787 671.335 20.6787 667.421C20.6787 662.78 23.9569 659.456 27.7129 657.178C31.5496 654.851 36.6575 653.114 42.0199 651.811C52.7901 649.194 65.4551 648.126 73.3585 648.013C85.8801 647.833 95.3745 649.583 101.859 652.505C108.216 655.37 112.448 659.786 112.427 665.19C112.407 670.539 108.214 674.956 102.212 677.835C96.0696 680.781 87.2733 682.558 76.1544 682.394C68.4381 682.281 61.7375 681.263 56.8527 679.329C52.1483 677.468 48.0154 674.243 48.0154 669.195C48.0154 664.372 51.3994 661.172 55.8045 659.331C60.1845 657.501 66.24 656.66 73.4014 656.66C78.5041 656.66 83.2407 656.985 86.7864 658.065C88.5676 658.608 90.2956 659.412 91.6128 660.677C93.0172 662.025 93.8366 663.793 93.8366 665.869C93.8366 668.483 92.5942 670.568 90.6674 671.97C88.8621 673.283 86.5307 673.961 84.1252 674.256C79.2856 674.85 73.0754 674.022 66.8946 672.053L68.7152 666.336C74.3721 668.138 79.6777 668.757 83.3946 668.301C85.2673 668.071 86.4743 667.6 87.1378 667.118C87.6799 666.723 87.8366 666.366 87.8366 665.869C87.8366 665.505 87.7411 665.277 87.457 665.004C87.0857 664.648 86.3515 664.205 85.0384 663.805C82.3953 663 78.4144 662.66 73.4014 662.66C66.5699 662.66 61.4325 663.482 58.1177 664.867C54.828 666.242 54.0154 667.809 54.0154 669.195C54.0154 670.355 54.9404 672.12 59.0606 673.75C63.0005 675.31 68.8914 676.287 76.2427 676.395C86.7558 676.55 94.5603 674.85 99.6174 672.425C104.815 669.932 106.42 667.082 106.427 665.168C106.434 663.309 104.922 660.466 99.3939 657.976Z" fill="#F391A9"/>
<path fill-rule="evenodd" clip-rule="evenodd" d="M99.3939 655.976C93.9929 653.542 85.4606 651.84 73.4443 652.012C65.8498 652.121 53.6534 653.159 43.4367 655.642C38.3057 656.888 33.8888 658.45 30.8241 660.308C27.6786 662.216 26.6787 663.964 26.6787 665.421C26.6787 667.05 27.5787 668.95 29.7396 671.08C31.8733 673.183 34.9284 675.195 38.4459 676.998C45.4906 680.609 53.7352 683.052 58.3453 683.741L57.4593 689.675C52.1678 688.885 43.3007 686.229 35.709 682.337C31.9083 680.389 28.264 678.05 25.5279 675.353C22.819 672.683 20.6787 669.335 20.6787 665.421C20.6787 660.78 23.9569 657.456 27.7129 655.178C31.5496 652.851 36.6575 651.114 42.0199 649.811C52.7901 647.194 65.4551 646.126 73.3585 646.013C85.8801 645.833 95.3745 647.583 101.859 650.505C108.216 653.37 112.448 657.786 112.427 663.19C112.407 668.539 108.214 672.956 102.212 675.835C96.0696 678.781 87.2733 680.558 76.1544 680.394C68.4381 680.281 61.7375 679.263 56.8527 677.329C52.1483 675.468 48.0154 672.243 48.0154 667.195C48.0154 662.372 51.3994 659.172 55.8045 657.331C60.1845 655.501 66.24 654.66 73.4014 654.66C78.5041 654.66 83.2407 654.985 86.7864 656.065C88.5676 656.608 90.2956 657.412 91.6128 658.677C93.0172 660.025 93.8366 661.793 93.8366 663.869C93.8366 666.483 92.5942 668.568 90.6674 669.97C88.8621 671.283 86.5307 671.961 84.1252 672.256C79.2856 672.85 73.0754 672.022 66.8946 670.053L68.7152 664.336C74.3721 666.138 79.6777 666.757 83.3946 666.301C85.2673 666.071 86.4743 665.6 87.1378 665.118C87.6799 664.723 87.8366 664.366 87.8366 663.869C87.8366 663.505 87.7411 663.277 87.457 663.004C87.0857 662.648 86.3515 662.205 85.0384 661.805C82.3953 661 78.4144 660.66 73.4014 660.66C66.5699 660.66 61.4325 661.482 58.1177 662.867C54.828 664.242 54.0154 665.809 54.0154 667.195C54.0154 668.355 54.9404 670.12 59.0606 671.75C63.0005 673.31 68.8914 674.287 76.2427 674.395C86.7558 674.55 94.5603 672.85 99.6174 670.425C104.815 667.932 106.42 665.082 106.427 663.168C106.434 661.309 104.922 658.466 99.3939 655.976Z" fill="#DA3A60"/>
</g>
<defs>
<filter id="filter0_i_16_730" x="0" y="639" width="136.468" height="44.7913" filterUnits="userSpaceOnUse" color-interpolation-filters="sRGB">
<feFlood flood-opacity="0" result="BackgroundImageFix"/>
<feBlend mode="normal" in="SourceGraphic" in2="BackgroundImageFix" result="shape"/>
<feColorMatrix in="SourceAlpha" type="matrix" values="0 0 0 0 0 0 0 0 0 0 0 0 0 0 0 0 0 0 127 0" result="hardAlpha"/>
<feOffset dx="-9" dy="-4"/>
<feComposite in2="hardAlpha" operator="arithmetic" k2="-1" k3="1"/>
<feColorMatrix type="matrix" values="0 0 0 0 0.952941 0 0 0 0 0.568627 0 0 0 0 0.662745 0 0 0 1 0"/>
<feBlend mode="normal" in2="shape" result="effect1_innerShadow_16_730"/>
</filter>
</defs>
</svg>
