<svg width="335" height="115" viewBox="0 0 335 115" fill="none" xmlns="http://www.w3.org/2000/svg">
<path d="M335 64.5C335 92.3904 264.037 115 176.5 115C88.9629 115 18 92.3904 18 64.5C18 36.6096 88.9629 14 176.5 14C264.037 14 335 36.6096 335 64.5Z" fill="#CFA630"/>
<g filter="url(#filter0_i_7_734)">
<path d="M317 50.5C317 78.3904 246.037 101 158.5 101C70.9629 101 0 78.3904 0 50.5C0 22.6096 70.9629 0 158.5 0C246.037 0 317 22.6096 317 50.5Z" fill="white"/>
</g>
<mask id="mask0_7_734" style="mask-type:alpha" maskUnits="userSpaceOnUse" x="0" y="0" width="317" height="101">
<path d="M317 50.5C317 78.3904 246.037 101 158.5 101C70.9629 101 0 78.3904 0 50.5C0 22.6096 70.9629 0 158.5 0C246.037 0 317 22.6096 317 50.5Z" fill="white"/>
</mask>
<g mask="url(#mask0_7_734)">
<g filter="url(#filter1_d_7_734)">
<path fill-rule="evenodd" clip-rule="evenodd" d="M231.539 32.5731C218.709 26.9612 198.631 23.11 170.579 23.4996C152.854 23.7457 124.396 26.0948 100.515 31.7281C88.5323 34.5549 78.0926 38.1208 70.7773 42.4272C63.2755 46.8435 60.5027 51.1249 60.5027 55.0001C60.5027 59.093 62.8312 63.6665 67.992 68.6042C73.0905 73.4822 80.3307 78.0981 88.5764 82.2009C105.08 90.4127 124.396 95.9782 135.289 97.5569L133.711 108.443C121.604 106.688 101.171 100.754 83.6763 92.0492C74.9227 87.6937 66.601 82.4971 60.3875 76.5523C54.2364 70.667 49.5027 63.4072 49.5027 55.0001C49.5027 45.1252 56.6674 37.9691 65.1968 32.9479C73.9128 27.8168 85.598 23.9452 97.9899 21.022C122.859 15.1554 152.152 12.7544 170.426 12.5006C199.373 12.0986 221.169 16.031 235.947 22.495C250.442 28.8353 259.731 38.4373 259.687 49.9659C259.643 61.3898 250.417 70.9987 236.735 77.3691C222.749 83.8806 202.582 87.866 176.921 87.4995C159.098 87.2449 143.751 84.9599 132.654 80.6967C121.953 76.5856 113.003 69.6545 113.003 59.0001C113.003 48.7565 120.357 41.9148 130.246 37.9034C140.14 33.8905 153.959 32.0001 170.503 32.0001C182.33 32.0001 193.129 32.7372 201.123 35.1007C205.13 36.2853 208.896 38.0077 211.729 40.6488C214.731 43.4468 216.503 47.1241 216.503 51.5001C216.503 57.0198 213.815 61.3609 209.683 64.2793C205.775 67.0388 200.652 68.513 195.215 69.1606C184.278 70.4632 170.097 68.6501 155.878 64.2548L159.127 53.7454C172.405 57.85 184.975 59.3025 193.914 58.2378C198.414 57.7018 201.51 56.5842 203.337 55.2939C204.94 54.1625 205.503 52.9959 205.503 51.5001C205.503 50.3761 205.149 49.5533 204.229 48.6951C203.14 47.6799 201.186 46.5898 198.005 45.6494C191.624 43.7629 182.173 43.0001 170.503 43.0001C154.542 43.0001 142.362 44.8596 134.381 48.0968C126.397 51.3354 124.003 55.2437 124.003 59.0001C124.003 62.3456 126.801 66.6646 136.599 70.4284C146 74.0402 159.902 76.2552 177.079 76.5006C201.667 76.8518 220.061 72.9983 232.092 67.397C244.425 61.6545 248.668 54.877 248.687 49.9235C248.706 45.0747 244.652 38.3086 231.539 32.5731Z" fill="#DA3A60"/>
</g>
</g>
<defs>
<filter id="filter0_i_7_734" x="0" y="0" width="317" height="101" filterUnits="userSpaceOnUse" color-interpolation-filters="sRGB">
<feFlood flood-opacity="0" result="BackgroundImageFix"/>
<feBlend mode="normal" in="SourceGraphic" in2="BackgroundImageFix" result="shape"/>
<feColorMatrix in="SourceAlpha" type="matrix" values="0 0 0 0 0 0 0 0 0 0 0 0 0 0 0 0 0 0 127 0" result="hardAlpha"/>
<feOffset dx="-13" dy="-7"/>
<feComposite in2="hardAlpha" operator="arithmetic" k2="-1" k3="1"/>
<feColorMatrix type="matrix" values="0 0 0 0 0.952941 0 0 0 0 0.568627 0 0 0 0 0.662745 0 0 0 1 0"/>
<feBlend mode="normal" in2="shape" result="effect1_innerShadow_7_734"/>
</filter>
<filter id="filter1_d_7_734" x="49.5027" y="12.4725" width="210.184" height="104.971" filterUnits="userSpaceOnUse" color-interpolation-filters="sRGB">
<feFlood flood-opacity="0" result="BackgroundImageFix"/>
<feColorMatrix in="SourceAlpha" type="matrix" values="0 0 0 0 0 0 0 0 0 0 0 0 0 0 0 0 0 0 127 0" result="hardAlpha"/>
<feOffset dy="9"/>
<feComposite in2="hardAlpha" operator="out"/>
<feColorMatrix type="matrix" values="0 0 0 0 0.952941 0 0 0 0 0.568627 0 0 0 0 0.662745 0 0 0 1 0"/>
<feBlend mode="normal" in2="BackgroundImageFix" result="effect1_dropShadow_7_734"/>
<feBlend mode="normal" in="SourceGraphic" in2="effect1_dropShadow_7_734" result="shape"/>
</filter>
</defs>
</svg>
