<svg width="2560" height="809" viewBox="0 0 2560 809" fill="none" xmlns="http://www.w3.org/2000/svg">
<path fill-rule="evenodd" clip-rule="evenodd" d="M469.694 547.676V1080H164.428V547.676V547.175H164.43C164.792 484.624 232.989 434 317.061 434C401.134 434 469.33 484.624 469.692 547.175H469.694V547.676Z" fill="#A0FE62"/>
<path fill-rule="evenodd" clip-rule="evenodd" d="M477.571 1088H156.551V539.175H156.934C159.748 508.023 177.888 480.564 204.708 460.67C233.795 439.095 273.53 426 317.061 426C360.592 426 400.327 439.095 429.414 460.67C456.234 480.564 474.374 508.023 477.188 539.175H477.571V1088ZM164.428 547.175V1080H469.694V547.175H469.692C469.33 484.624 401.134 434 317.061 434C232.988 434 164.792 484.624 164.43 547.175H164.428Z" fill="black"/>
<mask id="mask0_7_719" style="mask-type:alpha" maskUnits="userSpaceOnUse" x="164" y="434" width="306" height="646">
<path fill-rule="evenodd" clip-rule="evenodd" d="M469.694 547.676V1080H164.428V547.676V547.175H164.43C164.792 484.624 232.989 434 317.061 434C401.134 434 469.33 484.624 469.692 547.175H469.694V547.676Z" fill="#A0FE62"/>
</mask>
<g mask="url(#mask0_7_719)">
<path d="M124.06 515.298L488.705 403L496.377 428.697L131.732 540.995L124.06 515.298Z" fill="#6AF34B"/>
<path d="M124.06 565.3L488.705 453.002L496.377 478.699L131.732 590.997L124.06 565.3Z" fill="#6AF34B"/>
<path d="M124.06 615.302L488.705 503.004L496.377 528.701L131.732 640.999L124.06 615.302Z" fill="#6AF34B"/>
<path d="M124.06 667.304L488.705 555.006L496.377 580.703L131.732 693.001L124.06 667.304Z" fill="#6AF34B"/>
<path d="M124.06 719.306L488.705 607.008L496.377 632.704L131.732 745.003L124.06 719.306Z" fill="#6AF34B"/>
<path d="M124.06 773.308L488.705 661.01L496.377 686.706L131.732 799.004L124.06 773.308Z" fill="#6AF34B"/>
<path d="M124.06 826.31L488.705 714.012L496.377 739.708L131.732 852.006L124.06 826.31Z" fill="#6AF34B"/>
<path d="M124.06 880.312L488.705 768.014L496.377 793.71L131.732 906.008L124.06 880.312Z" fill="#6AF34B"/>
<g style="mix-blend-mode:screen" opacity="0.42">
<path d="M261.904 452.5C257.943 452.739 253.413 453.509 248.56 454.935C212.711 468.955 208.05 540.054 210.704 577.5V1090.5H179.197V577.5C179.197 495.292 219.63 463.438 248.56 454.935C252.6 453.355 257.037 452.5 261.904 452.5Z" fill="white"/>
</g>
<g style="mix-blend-mode:color-burn">
<path d="M355.441 476.5C352.29 434.9 292.754 432.5 263.38 436.5C277.329 431.167 311.527 420.5 336.733 420.5C368.24 420.5 463.747 464.5 481.469 490.5C495.648 511.3 487.377 895.833 481.469 1085.5H355.441C356.753 899.833 358.591 518.1 355.441 476.5Z" fill="#131313" fill-opacity="0.2"/>
</g>
<g style="mix-blend-mode:multiply" opacity="0.19">
<path d="M346.579 443C351.813 443.243 357.799 444.024 364.212 445.473C411.583 459.712 417.743 531.926 414.235 569.959V1091H455.87V569.959C455.87 486.463 402.441 454.109 364.212 445.473C358.873 443.868 353.011 443 346.579 443Z" fill="black"/>
</g>
</g>
<path fill-rule="evenodd" clip-rule="evenodd" d="M2552.12 121.676V654H2246.86V121.676V121.175H2246.86C2247.22 58.624 2315.42 8 2399.49 8C2483.56 8 2551.76 58.624 2552.12 121.175H2552.12V121.676Z" fill="#A0FE62"/>
<path fill-rule="evenodd" clip-rule="evenodd" d="M2560 662H2238.98V113.175H2239.36C2242.18 82.0228 2260.32 54.5644 2287.14 34.6704C2316.22 13.0952 2355.96 0 2399.49 0C2443.02 0 2482.76 13.0952 2511.84 34.6704C2538.66 54.5644 2556.8 82.0228 2559.62 113.175H2560V662ZM2246.86 121.175V654H2552.12V121.175H2552.12C2551.76 58.624 2483.56 8 2399.49 8C2315.42 8 2247.22 58.624 2246.86 121.175H2246.86Z" fill="black"/>
<mask id="mask1_7_719" style="mask-type:alpha" maskUnits="userSpaceOnUse" x="2246" y="8" width="307" height="646">
<path fill-rule="evenodd" clip-rule="evenodd" d="M2552.12 121.676V654H2246.86V121.676V121.175H2246.86C2247.22 58.624 2315.42 8 2399.49 8C2483.56 8 2551.76 58.624 2552.12 121.175H2552.12V121.676Z" fill="#A0FE62"/>
</mask>
<g mask="url(#mask1_7_719)">
<path d="M2206.49 89.298L2571.13 -23L2578.81 2.69665L2214.16 114.995L2206.49 89.298Z" fill="#6AF34B"/>
<path d="M2206.49 139.3L2571.13 27.0019L2578.81 52.6986L2214.16 164.997L2206.49 139.3Z" fill="#6AF34B"/>
<path d="M2206.49 189.302L2571.13 77.0039L2578.81 102.701L2214.16 214.999L2206.49 189.302Z" fill="#6AF34B"/>
<path d="M2206.49 241.304L2571.13 129.006L2578.81 154.703L2214.16 267.001L2206.49 241.304Z" fill="#6AF34B"/>
<path d="M2206.49 293.306L2571.13 181.008L2578.81 206.704L2214.16 319.003L2206.49 293.306Z" fill="#6AF34B"/>
<path d="M2206.49 347.308L2571.13 235.01L2578.81 260.706L2214.16 373.004L2206.49 347.308Z" fill="#6AF34B"/>
<path d="M2206.49 400.31L2571.13 288.012L2578.81 313.708L2214.16 426.006L2206.49 400.31Z" fill="#6AF34B"/>
<path d="M2206.49 454.312L2571.13 342.014L2578.81 367.71L2214.16 480.008L2206.49 454.312Z" fill="#6AF34B"/>
<path d="M2206.49 505.298L2571.13 393L2578.81 418.697L2214.16 530.995L2206.49 505.298Z" fill="#6AF34B"/>
<path d="M2206.49 560.3L2571.13 448.002L2578.81 473.699L2214.16 585.997L2206.49 560.3Z" fill="#6AF34B"/>
<path d="M2206.49 614.302L2571.13 502.004L2578.81 527.701L2214.16 639.999L2206.49 614.302Z" fill="#6AF34B"/>
<path d="M2206.49 667.304L2571.13 555.006L2578.81 580.702L2214.16 693L2206.49 667.304Z" fill="#6AF34B"/>
<path d="M2205.5 720.298L2570.15 608L2577.82 633.697L2213.18 745.995L2205.5 720.298Z" fill="#6AF34B"/>
<g style="mix-blend-mode:screen" opacity="0.42">
<path d="M2344.33 26.5C2340.37 26.7394 2335.84 27.5086 2330.99 28.9351C2295.14 42.9545 2290.48 114.054 2293.13 151.5V664.5H2261.63V151.5C2261.63 69.292 2302.06 37.4377 2330.99 28.9351C2335.03 27.355 2339.47 26.5 2344.33 26.5Z" fill="white"/>
</g>
<g style="mix-blend-mode:color-burn">
<path d="M2437.87 50.5C2434.72 8.9 2375.18 6.5 2345.81 10.5C2359.76 5.16667 2393.96 -5.5 2419.16 -5.5C2450.67 -5.5 2546.18 38.5 2563.9 64.5C2578.08 85.3 2569.81 469.833 2563.9 659.5H2437.87C2439.18 473.833 2441.02 92.1 2437.87 50.5Z" fill="#131313" fill-opacity="0.2"/>
</g>
<g style="mix-blend-mode:multiply" opacity="0.19">
<path d="M2429.01 17C2434.24 17.2432 2440.23 18.0245 2446.64 19.4733C2494.01 33.7125 2500.17 105.926 2496.66 143.959V665H2538.3V143.959C2538.3 60.4627 2484.87 28.1091 2446.64 19.4733C2441.3 17.8684 2435.44 17 2429.01 17Z" fill="black"/>
</g>
</g>
<path fill-rule="evenodd" clip-rule="evenodd" d="M2389.66 336.676V869H2084.4V336.676V336.175H2084.4C2084.76 273.624 2152.96 223 2237.03 223C2321.1 223 2389.3 273.624 2389.66 336.175H2389.66V336.676Z" fill="#A0FE62"/>
<path fill-rule="evenodd" clip-rule="evenodd" d="M2397.54 877H2076.52V328.175H2076.9C2079.72 297.023 2097.86 269.564 2124.68 249.67C2153.77 228.095 2193.5 215 2237.03 215C2280.56 215 2320.3 228.095 2349.38 249.67C2376.2 269.564 2394.34 297.023 2397.16 328.175H2397.54V877ZM2084.4 336.175V869H2389.66V336.175H2389.66C2389.3 273.624 2321.1 223 2237.03 223C2152.96 223 2084.76 273.624 2084.4 336.175H2084.4Z" fill="black"/>
<mask id="mask2_7_719" style="mask-type:alpha" maskUnits="userSpaceOnUse" x="2084" y="223" width="306" height="646">
<path fill-rule="evenodd" clip-rule="evenodd" d="M2389.66 336.676V869H2084.4V336.676V336.175H2084.4C2084.76 273.624 2152.96 223 2237.03 223C2321.1 223 2389.3 273.624 2389.66 336.175H2389.66V336.676Z" fill="#A0FE62"/>
</mask>
<g mask="url(#mask2_7_719)">
<path d="M2044.03 304.298L2408.68 192L2416.35 217.697L2051.7 329.995L2044.03 304.298Z" fill="#6AF34B"/>
<path d="M2044.03 354.3L2408.68 242.002L2416.35 267.699L2051.7 379.997L2044.03 354.3Z" fill="#6AF34B"/>
<path d="M2044.03 404.302L2408.68 292.004L2416.35 317.701L2051.7 429.999L2044.03 404.302Z" fill="#6AF34B"/>
<path d="M2044.03 456.304L2408.68 344.006L2416.35 369.703L2051.7 482.001L2044.03 456.304Z" fill="#6AF34B"/>
<path d="M2044.03 508.306L2408.68 396.008L2416.35 421.704L2051.7 534.003L2044.03 508.306Z" fill="#6AF34B"/>
<path d="M2044.03 562.308L2408.68 450.01L2416.35 475.706L2051.7 588.004L2044.03 562.308Z" fill="#6AF34B"/>
<path d="M2044.03 615.31L2408.68 503.012L2416.35 528.708L2051.7 641.006L2044.03 615.31Z" fill="#6AF34B"/>
<path d="M2044.03 669.312L2408.68 557.014L2416.35 582.71L2051.7 695.008L2044.03 669.312Z" fill="#6AF34B"/>
<path d="M2044.03 720.298L2408.68 608L2416.35 633.697L2051.7 745.995L2044.03 720.298Z" fill="#6AF34B"/>
<path d="M2044.03 775.3L2408.68 663.002L2416.35 688.699L2051.7 800.997L2044.03 775.3Z" fill="#6AF34B"/>
<path d="M2044.03 829.302L2408.68 717.004L2416.35 742.701L2051.7 854.999L2044.03 829.302Z" fill="#6AF34B"/>
<path d="M2044.03 882.304L2408.68 770.006L2416.35 795.702L2051.7 908L2044.03 882.304Z" fill="#6AF34B"/>
<g style="mix-blend-mode:screen" opacity="0.42">
<path d="M2181.87 241.5C2177.91 241.739 2173.38 242.509 2168.53 243.935C2132.68 257.955 2128.02 329.054 2130.67 366.5V879.5H2099.17V366.5C2099.17 284.292 2139.6 252.438 2168.53 243.935C2172.57 242.355 2177.01 241.5 2181.87 241.5Z" fill="white"/>
</g>
<g style="mix-blend-mode:color-burn">
<path d="M2275.41 265.5C2272.26 223.9 2212.72 221.5 2183.35 225.5C2197.3 220.167 2231.5 209.5 2256.7 209.5C2288.21 209.5 2383.72 253.5 2401.44 279.5C2415.62 300.3 2407.35 684.833 2401.44 874.5H2275.41C2276.72 688.833 2278.56 307.1 2275.41 265.5Z" fill="#131313" fill-opacity="0.2"/>
</g>
<g style="mix-blend-mode:multiply" opacity="0.19">
<path d="M2266.55 232C2271.78 232.243 2277.77 233.024 2284.18 234.473C2331.55 248.712 2337.71 320.926 2334.21 358.959V880H2375.84V358.959C2375.84 275.463 2322.41 243.109 2284.18 234.473C2278.84 232.868 2272.98 232 2266.55 232Z" fill="black"/>
</g>
</g>
<path fill-rule="evenodd" clip-rule="evenodd" d="M313.142 336.676V869H7.87671V336.676V336.175H7.87816C8.24041 273.624 76.437 223 160.51 223C244.582 223 312.779 273.624 313.141 336.175H313.142V336.676Z" fill="#A0FE62"/>
<path fill-rule="evenodd" clip-rule="evenodd" d="M321.019 877H0V328.175H0.382603C3.19691 297.023 21.3367 269.564 48.157 249.67C77.2439 228.095 116.978 215 160.51 215C204.041 215 243.775 228.095 272.862 249.67C299.683 269.564 317.822 297.023 320.637 328.175H321.019V877ZM7.8768 336.175V869H313.142V336.175H313.141C312.779 273.624 244.582 223 160.51 223C76.4371 223 8.2405 273.624 7.87825 336.175H7.8768Z" fill="black"/>
<mask id="mask3_7_719" style="mask-type:alpha" maskUnits="userSpaceOnUse" x="7" y="223" width="307" height="646">
<path fill-rule="evenodd" clip-rule="evenodd" d="M313.142 336.676V869H7.87671V336.676V336.175H7.87816C8.24041 273.624 76.437 223 160.51 223C244.582 223 312.779 273.624 313.141 336.175H313.142V336.676Z" fill="#A0FE62"/>
</mask>
<g mask="url(#mask3_7_719)">
<path d="M-32.4918 304.298L332.154 192L339.825 217.697L-24.82 329.995L-32.4918 304.298Z" fill="#6AF34B"/>
<path d="M-32.4918 354.3L332.154 242.002L339.825 267.699L-24.82 379.997L-32.4918 354.3Z" fill="#6AF34B"/>
<path d="M-32.4918 404.302L332.154 292.004L339.825 317.701L-24.82 429.999L-32.4918 404.302Z" fill="#6AF34B"/>
<path d="M-32.4918 456.304L332.154 344.006L339.825 369.703L-24.82 482.001L-32.4918 456.304Z" fill="#6AF34B"/>
<path d="M-32.4918 508.306L332.154 396.008L339.825 421.704L-24.82 534.003L-32.4918 508.306Z" fill="#6AF34B"/>
<path d="M-32.4918 562.308L332.154 450.01L339.825 475.706L-24.82 588.004L-32.4918 562.308Z" fill="#6AF34B"/>
<path d="M-32.4918 615.31L332.154 503.012L339.825 528.708L-24.82 641.006L-32.4918 615.31Z" fill="#6AF34B"/>
<path d="M-32.4918 669.312L332.154 557.014L339.825 582.71L-24.82 695.008L-32.4918 669.312Z" fill="#6AF34B"/>
<path d="M-32.4918 720.298L332.154 608L339.825 633.697L-24.82 745.995L-32.4918 720.298Z" fill="#6AF34B"/>
<path d="M-32.4918 775.3L332.154 663.002L339.825 688.699L-24.82 800.997L-32.4918 775.3Z" fill="#6AF34B"/>
<path d="M-32.4918 829.302L332.154 717.004L339.825 742.701L-24.82 854.999L-32.4918 829.302Z" fill="#6AF34B"/>
<path d="M-32.4918 882.304L332.154 770.006L339.825 795.702L-24.82 908L-32.4918 882.304Z" fill="#6AF34B"/>
<g style="mix-blend-mode:screen" opacity="0.42">
<path d="M105.352 241.5C101.391 241.739 96.8617 242.509 92.0082 243.935C56.16 257.955 51.4984 329.054 54.153 366.5V879.5H22.6458V366.5C22.6458 284.292 63.0786 252.438 92.0082 243.935C96.0487 242.355 100.485 241.5 105.352 241.5Z" fill="white"/>
</g>
<g style="mix-blend-mode:color-burn">
<path d="M198.889 265.5C195.739 223.9 136.203 221.5 106.829 225.5C120.778 220.167 154.976 209.5 180.182 209.5C211.689 209.5 307.195 253.5 324.918 279.5C339.096 300.3 330.826 684.833 324.918 874.5H198.889C200.202 688.833 202.04 307.1 198.889 265.5Z" fill="#131313" fill-opacity="0.2"/>
</g>
<g style="mix-blend-mode:multiply" opacity="0.19">
<path d="M190.028 232C195.262 232.243 201.247 233.024 207.661 234.473C255.032 248.712 261.192 320.926 257.684 358.959V880H299.318V358.959C299.318 275.463 245.889 243.109 207.661 234.473C202.322 232.868 196.459 232 190.028 232Z" fill="black"/>
</g>
</g>
<path fill-rule="evenodd" clip-rule="evenodd" d="M2231.14 659.676V1192H1925.88V659.676V659.175H1925.88C1926.24 596.624 1994.44 546 2078.51 546C2162.58 546 2230.78 596.624 2231.14 659.175H2231.14V659.676Z" fill="#A0FE62"/>
<path fill-rule="evenodd" clip-rule="evenodd" d="M2239.02 1200H1918V651.175H1918.38C1921.2 620.023 1939.34 592.564 1966.16 572.67C1995.24 551.095 2034.98 538 2078.51 538C2122.04 538 2161.78 551.095 2190.86 572.67C2217.68 592.564 2235.82 620.023 2238.64 651.175H2239.02V1200ZM1925.88 659.175V1192H2231.14V659.175H2231.14C2230.78 596.624 2162.58 546 2078.51 546C1994.44 546 1926.24 596.624 1925.88 659.175H1925.88Z" fill="black"/>
<mask id="mask4_7_719" style="mask-type:alpha" maskUnits="userSpaceOnUse" x="1925" y="546" width="307" height="646">
<path fill-rule="evenodd" clip-rule="evenodd" d="M2231.14 659.676V1192H1925.88V659.676V659.175H1925.88C1926.24 596.624 1994.44 546 2078.51 546C2162.58 546 2230.78 596.624 2231.14 659.175H2231.14V659.676Z" fill="#A0FE62"/>
</mask>
<g mask="url(#mask4_7_719)">
<path d="M1885.51 627.298L2250.15 515L2257.83 540.697L1893.18 652.995L1885.51 627.298Z" fill="#6AF34B"/>
<path d="M1885.51 677.3L2250.15 565.002L2257.83 590.699L1893.18 702.997L1885.51 677.3Z" fill="#6AF34B"/>
<path d="M1885.51 727.302L2250.15 615.004L2257.83 640.701L1893.18 752.999L1885.51 727.302Z" fill="#6AF34B"/>
<path d="M1885.51 779.304L2250.15 667.006L2257.83 692.703L1893.18 805.001L1885.51 779.304Z" fill="#6AF34B"/>
<path d="M1885.51 831.306L2250.15 719.008L2257.83 744.704L1893.18 857.003L1885.51 831.306Z" fill="#6AF34B"/>
<path d="M1885.51 885.308L2250.15 773.01L2257.83 798.706L1893.18 911.004L1885.51 885.308Z" fill="#6AF34B"/>
<g style="mix-blend-mode:screen" opacity="0.42">
<path d="M2023.35 564.5C2019.39 564.739 2014.86 565.509 2010.01 566.935C1974.16 580.955 1969.5 652.054 1972.15 689.5V1202.5H1940.65V689.5C1940.65 607.292 1981.08 575.438 2010.01 566.935C2014.05 565.355 2018.49 564.5 2023.35 564.5Z" fill="white"/>
</g>
<g style="mix-blend-mode:color-burn">
<path d="M2116.89 588.5C2113.74 546.9 2054.2 544.5 2024.83 548.5C2038.78 543.167 2072.98 532.5 2098.18 532.5C2129.69 532.5 2225.2 576.5 2242.92 602.5C2257.1 623.3 2248.83 1007.83 2242.92 1197.5H2116.89C2118.2 1011.83 2120.04 630.1 2116.89 588.5Z" fill="#131313" fill-opacity="0.2"/>
</g>
<g style="mix-blend-mode:multiply" opacity="0.19">
<path d="M2108.03 555C2113.26 555.243 2119.25 556.024 2125.66 557.473C2173.03 571.712 2179.19 643.926 2175.69 681.959V1203H2217.32V681.959C2217.32 598.463 2163.89 566.109 2125.66 557.473C2120.32 555.868 2114.46 555 2108.03 555Z" fill="black"/>
</g>
</g>
</svg>
